<?xml version="1.0" encoding="utf-8"?>
<!-- Generator: Adobe Illustrator 27.0.1, SVG Export Plug-In . SVG Version: 6.00 Build 0)  -->
<svg version="1.1" id="Card" xmlns="http://www.w3.org/2000/svg" xmlns:xlink="http://www.w3.org/1999/xlink" x="0px" y="0px"
	 viewBox="0 0 480.9 718" style="enable-background:new 0 0 480.9 718;" xml:space="preserve">
<style type="text/css">
	.st0{fill:#FFFFFF;}
	.st1{fill:#111111;}
	.st2{fill:#FF0008;}
	.st3{fill:#FFE100;}
</style>
<path id="background" class="st0" d="M460.4,515.7c0-31.1,0.4-75.4-4.4-105.9c-0.9-30-4.5-65.7-5.4-95.6
	c2.5-64.7-8.3-136.3,1.2-200.6c4.6-20.4,3.5-53.4,4.7-74.3l-0.9-5.8c-1-1.4-2.7-4.5-3.6-6c-3.4-2.5-8.4-4.6-12.6-4.2
	c-5.2-1.5-12.8-3.3-17.8-5.4c-7.5-0.2-22.7-1.4-30.1-2.1l-17.1-0.7c-6.5-1.9-21.7-3-28.5-3.4c-29.6-2.5-73.7-1.7-103.4-1.8
	c-42.4,1-123.5-4.1-164.7,4.2c-9.6-0.3-20.4,5.5-29.9,5.7c-4.2,4.3-11.7,5.2-17.4,6c-4.9,3.9-5.9,4.4-8.5,10c-4,7.1-3,23.3-3.1,31.3
	c-0.6,24.8,1.5,66,1.4,90.9l1.6,10.6c-0.3,43.5-1,109.1-2.3,152.4c-1.2,19.9-1.1,50.6-3.2,70.4c-1.7,10-2.1,26-2.7,36.3
	c-1.6,1.5-1.9,49.2-2.1,52.2c-0.2,5.9-0.8,25.2-2.1,30.8v26.7c1.7,7,1.8,17.5,3.2,24.5c1.6,1.9,1.7,5.1,2,7.3
	c0.7,1.3,1.8,4.2,2.3,5.7l0.5,6.9l1.3,4.8l0.4,32.7c-1.5,9.8-2,29.9-1.7,39.9c0.4,1.1,3.2,4.1,4.2,5c2.4,4.5,7.1,10,10.5,13.8
	c2.8,1.1,6,2.9,8,5.2c1.5,2,5,5.2,7.1,6.6c6.4,1.7,13.5,4.4,20.1,5.3l7.3,2.4L86,698l5.5,2.1l8.4,1.1c5.9,1.3,13.2,2.6,18.8,4.6
	l5.2,1.5h18.2c6-1.1,17.7-2.8,23.8-3.3c14.6-0.7,37.6-0.9,51.9,1.4c5.4,0.3,79,0.2,81.4,1.9c2.6,1.2,9.3,1.6,12.1,1.8H364
	c3.5-0.9,10.7-1.7,14.3-1.8c4.3-0.6,13.9-2,18.3-2.5l16.2-0.5l11.1-2.3l8.1-0.7l3.9-1.2c4.2-1,10.7-1.1,14.7-3.1l5.1-1.9l2.9-3.1
	l2.2-4c1-4.7,1.4-15.4,1.8-20.2l0.8-12.4l2.4-5.8l0.8-5.2c1.7-5,3.2-12.4,4.4-17.5l0.9-19.2l-0.2-18c-0.6-2.6-1.3-8.1-1.9-10.7
	l-2.3-3l-0.9-6.6c-1.9-4.6-2.6-11.8-4-16.5C461.6,543.3,459.8,525,460.4,515.7L460.4,515.7L460.4,515.7z"/>
<path id="black_blob" d="M183.3,46.8c0.5,0.1,1,0.1,1.5,0.1l24,0.8l25.7-0.5l16.8-0.8l31.2-0.3l32.1,0.8l17.9,0.5
	c0.5,0,1.1,0.1,1.6,0.1l12.4,1.7c0.7,0.1,1.4,0.2,2.1,0.5l12.1,3.6c0.7,0.2,1.4,0.5,2.1,0.8l11.2,5.3c0.4,0.2,0.7,0.3,1,0.5
	l12.4,7.1c0.5,0.3,1,0.6,1.4,0.9l9.4,6.9l12.1,8.8c0.7,0.5,1.4,1.1,2,1.8l2.7,2.9c1.3,1.4,2.3,3,3,4.8l0,0c0.5,1.4,0.8,2.9,0.9,4.4
	l0.3,5.8l0.5,18.7c0,0.8,0,1.6-0.1,2.4l-0.9,6.5c-0.2,1.5-0.2,3.1,0.1,4.6l0.7,4.1c0.3,1.5,0.8,2.9,1.5,4.2l1.9,3.7
	c1,1.9,1.6,4.1,1.7,6.3l0.5,13.9c0,0.7,0,1.5-0.1,2.2l-1.4,12.1c-0.1,0.6-0.1,1.3-0.1,2l0.2,15.1v6.6c0,1.3,0.2,2.7,0.6,4l1.1,3.8
	c0.3,1,0.5,2.1,0.5,3.2l0.8,13.9c0,0.5,0,1.1,0,1.6l-1,17.3l-1.2,22.8l-0.8,14.9l-0.9,16.4c0,0.7-0.1,1.3-0.2,2l-0.7,3.8
	c-0.2,0.9-0.3,1.8-0.3,2.7v11.7l1,28.2c0,0.4,0,0.8,0,1.2l-1,22.4c0,0.4,0,0.9,0,1.3l1.3,28.8V428c0,0.8,0.1,1.6,0.2,2.5l2.4,14.2
	c0.1,0.3,0.1,0.7,0.1,1.1l1.5,15.5l1.3,22l1.1,12c0.1,0.6,0.1,1.2,0.3,1.7l3.1,14.4l2,9.9l3.2,13c0.2,0.9,0.4,1.8,0.4,2.8l0.4,8.6
	c0,0.6,0.1,1.2,0.2,1.8l2,11.4c0.1,0.8,0.2,1.6,0.2,2.4l0.1,14.2c0,0.8-0.1,1.7-0.2,2.5l-3.2,19c-0.1,0.6-0.2,1.1-0.2,1.7l-0.6,12.1
	c0,0.6-0.1,1.2-0.2,1.8l-0.7,4.2c-0.2,1.1-0.5,2.2-1,3.3l-3.1,7.3c-0.2,0.4-0.3,0.8-0.4,1.2l-3.3,9.9c-0.1,0.3-0.2,0.7-0.4,1l-2.9,7
	c-0.5,1.3-1.2,2.5-2.1,3.6l-3.6,4.5c-1.1,1.4-2.5,2.6-4,3.5l-7.2,4.1c-0.6,0.3-1.2,0.6-1.8,0.9l-11.7,4.7c-0.9,0.3-1.7,0.6-2.6,0.8
	l-14.1,2.7c-0.4,0.1-0.8,0.1-1.2,0.2l-19.4,2.1c-0.3,0-0.6,0.1-0.9,0.1l-20.4,1c-0.3,0-0.6,0-0.9,0l-33.7-0.4c-0.4,0-0.7,0-1.1-0.1
	l-15.2-1.3c-0.4,0-0.7-0.1-1.1-0.1l-30.8-0.4H183c-0.6,0-1.2,0-1.7-0.1L162,670c-0.4,0-0.8-0.1-1.1-0.1l-24.5-1
	c-0.6,0-1.1-0.1-1.7-0.2l-12.2-1.9c-1.2-0.2-2.4-0.5-3.5-1l-8.5-3.7c-0.8-0.3-1.6-0.6-2.5-0.8l-16.5-3.9c-0.6-0.1-1.2-0.3-1.8-0.6
	l-10.4-4c-1.2-0.4-2.3-1-3.3-1.7l-6.2-4.4c-0.6-0.4-1.2-0.9-1.7-1.4l-4-3.9c-0.8-0.8-1.5-1.7-2.1-2.6l-2.4-3.8
	c-0.6-1-1.2-2.1-1.5-3.3l-1.5-4.6c-0.4-1.4-1.1-2.6-1.9-3.8l-4.2-6.1l-4.4-6.9c-0.5-0.7-0.8-1.5-1.2-2.2l-3.8-9.1l-3.2-8.9
	c-0.3-0.9-0.5-1.7-0.7-2.6l-2-12.9c-0.1-0.4-0.1-0.8-0.1-1.2L33.8,556l-1-24.9l-0.7-29.2c0-1.2,0.1-2.4,0.4-3.6l1.4-6.3
	c0.1-0.4,0.2-0.7,0.3-1.1l1-3.1c0.5-1.5,0.7-3.1,0.7-4.7L35.1,463v-13.3c0-0.5,0-0.9,0.1-1.4l1.9-19.4l2.4-18.1
	c0.1-0.5,0.1-1,0.1-1.5l0.5-20.6c0-0.4,0-0.8,0.1-1.1l2.4-23.4l1.3-20.7l0.5-29.2l0.8-29.9l2-36.8l2.5-25.6l3.1-27.1l1.9-24.4
	c0-0.3,0-0.6,0-0.8l0.8-36.5l-1-33.6c0-0.8-0.1-1.7-0.3-2.5l-1.5-7.5c-0.2-1-0.3-1.9-0.3-2.9v-5.1c0-1.3,0.2-2.7,0.6-4l1-3.6
	c0.3-1.2,0.8-2.3,1.4-3.3l2.1-3.6c0.5-0.9,1.1-1.7,1.8-2.5l4.4-4.8l5.3-5.3c0.8-0.8,1.7-1.5,2.6-2.1l3.8-2.3c0.9-0.5,1.8-1,2.8-1.3
	l4.6-1.6c1.1-0.4,2.2-0.6,3.4-0.8l8.7-0.9c0.6-0.1,1.3-0.2,1.9-0.3l10-2.4l9.1-2l8.2-1.6l4.2-0.9c1.7-0.4,3.4-0.4,5.1-0.2l6.3,0.9
	l15.1,2.9l14.5,3c0.3,0.1,0.7,0.1,1,0.2L183.3,46.8z"/>
<path id="border" class="st1" d="M154.6,9.1c26.5,0,53.5,0.8,74.7,0.8c4.7,0,9.1,0,13.2-0.1h4.7c10.1,0,21.5-0.1,33.3-0.1
	c22.8,0,46.9,0.3,65.4,1.9c6.8,0.5,22,1.6,28.5,3.4l17.1,0.7c7.4,0.6,22.6,1.8,30.1,2c5,2.2,12.5,4,17.8,5.4c0.3,0,0.6,0,0.9,0
	c4,0,8.5,2,11.7,4.3c0.9,1.5,2.6,4.6,3.6,6l0.9,5.8c-1.2,20.9-0.1,53.9-4.7,74.3c-9.5,64.4,1.3,136-1.2,200.6
	c0.9,30,4.5,65.7,5.4,95.6c4.8,30.5,4.4,74.8,4.4,105.9c-0.6,9.3,1.2,27.6,2,36.7c1.4,4.8,2.1,11.9,4,16.5l0.9,6.6l2.3,3
	c0.7,2.6,1.4,8.1,1.9,10.7l0.2,18l-0.9,19.2c-1.2,5.1-2.7,12.5-4.4,17.5l-0.8,5.2l-2.4,5.8l-0.8,12.4c-0.5,4.8-0.8,15.5-1.8,20.2
	l-2.2,4l-2.9,3.1l-5.1,1.9c-3.9,2-10.5,2.1-14.7,3.1l-3.9,1.2l-8.1,0.7l-11.1,2.3l-16.2,0.5c-4.4,0.5-14,1.9-18.3,2.5
	c-3.6,0.1-10.8,1-14.3,1.8h-52.7c-2.8-0.2-9.5-0.7-12.1-1.8c-2.4-1.7-76-1.6-81.4-1.9c-8.6-1.4-20.5-1.9-31.8-1.9
	c-7.3,0-14.3,0.2-20.1,0.5c-6,0.5-17.7,2.2-23.8,3.3h-18.2l-5.2-1.5c-5.7-2-13-3.3-18.8-4.6l-8.4-1.1l-5.5-2.1l-11.3-0.5l-7.3-2.4
	c-6.6-0.9-13.7-3.7-20.1-5.3c-2.1-1.4-5.6-4.6-7.1-6.6c-2-2.2-5.2-4.1-8-5.2c-3.4-3.8-8.1-9.2-10.5-13.8c-0.9-0.8-3.8-3.8-4.2-5
	c-0.3-10,0.3-30.1,1.7-39.9L18.6,586l-1.3-4.8l-0.5-6.9c-0.5-1.4-1.7-4.3-2.3-5.7c-0.4-2.2-0.4-5.4-2-7.3c-1.5-7-1.5-17.5-3.2-24.5
	v-26.7c1.3-5.6,1.9-24.9,2.1-30.8c0.3-3,0.5-50.8,2.1-52.2c0.6-10.2,1-26.2,2.7-36.3c2.1-19.7,1.9-50.5,3.2-70.4
	c1.3-43.3,2-108.9,2.3-152.4l-1.5-10c0.1-24.9-2-66.1-1.4-90.9c0.1-8-0.9-24.2,3.1-31.3c2.6-5.6,3.7-6.1,8.5-10
	c5.6-0.8,13.2-1.7,17.4-6C57.2,19.5,67.6,14,77,14c0.3,0,0.5,0,0.8,0C97.3,10.1,125.6,9.1,154.6,9.1 M154.6,0L154.6,0
	C118.7,0,94,1.6,77,4.9c-6.1,0-11.9,1.6-17.5,3.2c-4.4,1.2-8.5,2.4-11.9,2.5l-3.8,0.1l-2.6,2.7c-1.7,1.8-7.5,2.6-11,3.1l-1.1,0.2
	l-2.5,0.4l-1.9,1.6c-0.5,0.4-0.9,0.7-1.3,1c-4.5,3.5-6.6,5.4-9.7,11.9c-4.1,7.5-4.3,18.5-4.1,31.1c0,1.6,0,3.1,0,4.3
	c-0.3,14,0.2,32.8,0.7,51.1C10.7,133,11.1,147,11,158h0.1c0,1.1,0.2,2.1,0.3,3.1l0.6,3.6l0.7,4.6c-0.2,30.1-0.9,103.3-2.3,151.3
	c-0.5,8.1-0.8,17.6-1.1,27.8c-0.4,14.9-0.9,30.3-2.1,41.8c-1.2,8-1.8,19-2.2,28.8c-0.1,2.4-0.2,4.7-0.3,6.7
	c-0.8,3.1-1.1,8.1-1.4,17.4C3,451.7,2.8,462,2.7,469.5c-0.1,4.2-0.2,8.6-0.2,9.5v0.2v0.2v1.3c-0.5,15.5-1.2,24.8-1.8,27.7L0,510.9
	l0.3,1v26.4l0.3,1.1c0.8,3,1.2,7.5,1.6,11.7c0.4,4.3,0.8,8.7,1.6,12.4l0.5,2.3l1,1.2c0.1,0.5,0.2,1.2,0.3,1.7
	c0.1,0.6,0.2,1.2,0.3,1.8L6,572l0.7,1.3c0.3,0.6,0.9,2.1,1.4,3.4l0.4,5.6l0.1,0.8l0.2,0.8l1,3.7l0.3,30.9c-1.5,10.8-2,30.8-1.7,40.8
	v1.3l0.4,1.3c1,2.9,3.9,6.1,5.6,7.8c2.3,3.9,5.9,8.5,11,14.2l1.5,1.6l2,0.8c2,0.8,3.7,1.9,4.4,2.6c2.2,2.7,6.2,6.3,9,8.2l1.3,0.8
	l1.5,0.4c2,0.5,4.2,1.2,6.4,1.9c4.5,1.4,9.1,2.8,13.8,3.5l0.4,0.1l2.5,0.8l3.7,1.2l1.2,0.4l1.3,0.1l9.8,0.4l4.1,1.6l1,0.4l1.1,0.1
	l8,1c0.9,0.2,1.9,0.4,2.9,0.6c4.8,1,10.3,2.2,14.4,3.6l0,0c0.2,0.1,0.4,0.1,0.6,0.2l0.6,0.2l1.8,0.5l2.6,0.8l1.3,0.4H143l0.8-0.2
	c5.9-1.1,17.1-2.6,22.7-3.2c6.1-0.3,13-0.5,19.4-0.5c12.7,0,23.2,0.6,30.3,1.8l0.5,0.1h0.5c1.6,0.1,6.9,0.1,17.7,0.2
	c16.5,0.1,54.5,0.4,61.3,1.3c3.1,1.2,7.4,1.7,13.4,2.2l0.8,0.1l0,0c0.4,0,0.9,0.1,1.3,0.1H365l1.1-0.3c2.6-0.7,9.2-1.5,12.4-1.6h0.5
	l0.5-0.1l1.4-0.2c4.4-0.6,12.3-1.8,16.3-2.2c2.4-0.1,15.8-0.5,15.8-0.5h0.8l0.8-0.2l10.6-2.2l7.6-0.7l1-0.1l1-0.3l3.5-1.1
	c1-0.2,2.5-0.4,4-0.7c3.9-0.5,8.2-1.2,12-3c1-0.4,2.5-0.9,4.5-1.7l1.9-0.7l1.4-1.5l2.9-3.1l0.8-0.9l0.6-1.1l2.2-4l0.6-1.1l0.3-1.3
	c0.9-3.9,1.3-10.2,1.6-15.7c0.1-2.2,0.3-4.2,0.4-5.5l0.5-5l-0.1-0.1c0.1-2.2,0.3-4.6,0.4-6.1l1.8-4.4l0.4-1l0.2-1.1l0.6-4.3
	c1.3-3.9,2.4-8.6,3.3-12.8c0.4-1.7,0.7-3.3,1.1-4.6h-0.1c0.2-0.8,0.3-1.6,0.4-2.6l0.1-2.2l0.3-6.6l0.5-9.6v-0.5l-0.2-18v-1l-0.2-0.9
	c-0.2-0.9-0.5-2.5-0.7-4.1c-0.4-2.2-0.7-4.5-1.1-6.3c-0.4-2-1.5-3.5-2.6-5l-0.6-4.2l-0.2-1.1l-0.4-1c-0.8-1.9-1.4-5.3-2-8.2
	c-0.4-2.2-0.9-4.5-1.4-6.5c-0.1-1.4-0.2-2.9-0.4-4.6c-0.8-9.1-2-23-1.5-29.9v-0.3v-5.4c0.1-30.5,0.2-72.1-4.4-101.7
	c-0.5-15-1.6-31.5-2.7-47.5s-2.2-32.5-2.7-47.3c1-25.8-0.1-53-1.2-79.3c-1.6-40.2-3.3-81.7,2.2-119.8c3.4-15.2,3.8-36.2,4.2-54.7
	c0.2-7.6,0.3-14.8,0.6-20.8l0.6-10.9l-2.6,0.3l-0.6-0.9c-0.5-0.7-1.6-2.7-2.3-3.9c-0.3-0.6-0.6-1.1-0.9-1.5l-1-1.6l-1.5-1.1
	c-5.1-3.8-11.4-6-16.9-6.1c-0.9-0.2-1.8-0.5-2.7-0.7c-4.4-1.2-9.4-2.5-12.6-3.9l-1.6-0.7l-1.5,0c-7.2-0.2-22-1.4-29.6-2l0,0
	c-0.2,0-0.4,0-0.6,0h-0.5l-1.9-0.1l-5.9-0.2L375.9,6c-6.8-1.7-18.5-2.7-29.1-3.5c-19.4-1.7-44.3-1.9-66.1-1.9c-6.1,0-12.2,0-18,0
	c-5.3,0-10.5,0-15.3,0h-4.9c-3.8,0.1-8.1,0.1-13,0.1c-9.9,0-21.2-0.2-33.1-0.4C182.7,0.2,168.7,0,154.6,0L154.6,0L154.6,0z"/>
<g id="ONU">
	<path id="red_blob" class="st2" d="M145.8,228.5l16.4-16c1.8-1.8,3.8-3.4,5.8-4.9l13.2-9.8c2.2-1.6,4.5-3.1,6.9-4.4l21.3-11.4
		l25.8-13.4l22.1-10.2c2.2-1,4.4-1.9,6.7-2.6l12.9-4c4.9-1.5,10-2.4,15.1-2.5l7.9-0.2c4-0.1,8,0.2,11.9,0.9l5.8,1.1
		c3.9,0.7,7.7,1.9,11.4,3.4l6.2,2.6c3.6,1.5,7.1,3.4,10.4,5.7l4.9,3.4c2.5,1.8,4.9,3.7,7.1,5.9l6.3,6.1c2.3,2.2,4.4,4.6,6.3,7.2
		l5.2,7.2c1.7,2.3,3.2,4.7,4.5,7.2l6.5,12.6c1.2,2.3,2.2,4.7,3.1,7.2l3.7,10.4c1.2,3.4,2.1,6.9,2.6,10.4l2,13.4
		c0.6,3.8,0.7,7.7,0.5,11.5l-1.3,22.9c-0.1,1.8-0.3,3.5-0.6,5.3l-3.4,21.8c-0.2,1.2-0.4,2.4-0.7,3.5l-3.9,17.8
		c-0.4,1.6-0.8,3.2-1.3,4.7l-6.5,20.7c-0.3,1-0.7,2-1,3l-8.6,22.8l-7.8,18.5c-1.4,3.3-3.1,6.4-5.1,9.4l-10.8,16.1
		c-0.7,1.1-1.5,2.1-2.2,3.1l-15.2,19.6c-0.9,1.2-1.9,2.4-3,3.5l-17.2,18.7c-1.6,1.7-3.3,3.3-5,4.8l-27.4,23.3l-22.7,18.8
		c-2.2,1.8-4.5,3.4-6.9,4.9l-18,10.5c-1.7,1-3.5,2-5.4,2.8l-14.6,6.7c-5.6,2.6-11.5,4.2-17.6,4.8l-19.8,2.1c-2.3,0.2-4.6,0.3-7,0.3
		l-20.8-0.4c-5.2-0.1-10.4-0.9-15.4-2.5l-10.1-3.1c-9-2.8-17.1-7.8-23.7-14.5l0,0c-2.8-2.9-5.3-6.1-7.4-9.5l-9.4-15.1
		c-1.3-2.1-2.5-4.4-3.5-6.6l-7.3-16.2c-2.2-4.9-3.7-10.1-4.4-15.4l-2.6-18.6c-0.3-2.5-0.5-5.1-0.5-7.6v-25c0-3.4,0.3-6.8,0.9-10.2
		l6-32.5l8.7-37.9c0.6-2.8,1.5-5.6,2.6-8.3l8-20c1.2-2.9,2.6-5.7,4.2-8.4l11.4-18.7l17.4-26.1c1.4-2.1,2.9-4,4.5-5.9l18.9-21.6
		C143.7,230.6,144.7,229.5,145.8,228.5z"/>
	<path id="U_b" d="M419,350.9l-4.1-5.7l-6.6-13L398,306.7c-0.2-0.5-0.4-0.9-0.6-1.4l-12.1-24.2l-8.4-17.5l-12.4-27.8l-5.3-12.3
		c-0.1-0.3-0.2-0.5-0.3-0.7l-8.6-17.5c-3.8-7.7-13-11-20.9-7.5s-11.5,12.6-8.3,20.6l11.3,27.8l14.8,39.9c0,0.1,0.1,0.2,0.1,0.2
		l8.5,21.9l7.9,21.9l6.4,17.8l0.6,4.9c-0.7,0.9-1.3,1.8-1.8,2.8l-4.8,9.4l-2.6,3.3l-1.4,1.2l-1.2,0.3h-2l-1.6-0.7l-4.6-3.7l-5.2-4.9
		l-4.6-6.9l-4.9-8.4l-9-17.5c-0.2-0.5-0.5-0.9-0.7-1.3l-4-6.6c0-0.1-0.1-0.2-0.2-0.2l-3.2-5l-5.6-11.3c-0.2-0.4-0.4-0.8-0.6-1.1
		l-6.6-11.7c0-0.1-0.1-0.1-0.1-0.2l-7.7-13.1l-8.9-16.5l-6.3-14.9c-3.5-8.1-12.8-11.9-21-8.5c-8.1,3.5-11.9,12.8-8.5,21l6.5,15.4
		c0.3,0.6,0.5,1.2,0.8,1.8l9.3,17.2c0.1,0.2,0.2,0.3,0.3,0.5l7.7,13.3l6.4,11.3l5.7,11.6c0.3,0.7,0.7,1.4,1.1,2l3.4,5.4l3.7,6.1
		l9,17.4c0.2,0.3,0.3,0.7,0.5,0.9l5.2,9c0.2,0.4,0.4,0.7,0.7,1l5.5,8.2c0.9,1.3,1.9,2.5,3,3.6l6.4,6.1c0.4,0.4,0.8,0.7,1.2,1.1
		l6.1,5c1.5,1.2,3.1,2.2,4.9,3l5.1,2.2c2.6,1.1,5.4,1.7,8.3,1.7h5.6c1.6,0,3.2-0.2,4.7-0.5l4.9-1.1c3.1-0.7,6.1-2.2,8.6-4.3l4.4-3.6
		c1.1-0.9,2.2-2,3.1-3.2l4-5.1c0.9-1.1,1.6-2.3,2.2-3.5l1.6-3.1l10.1,0.7c0.4,0,0.8,0,1.2,0c6.2,0,12-3.4,15-8.8
		C423.3,363.6,422.9,356.3,419,350.9z"/>
	<path id="N_b" d="M237.3,469.9c-4,0-7.9-1.5-11-4.4l-10.9-10.3c-0.1-0.1-0.2-0.2-0.3-0.3l-11.2-11.2c-0.1-0.1-0.3-0.3-0.4-0.4
		l-11.6-12.4c-1.1-1.1-2-2.4-2.8-3.7l-7-12c-0.6-1-1-2-1.4-3l-7-18.5c-0.2-0.5-0.3-0.9-0.5-1.4l-4.6-15.2l-8.7-18.9l-8.6-16.8
		l-7.1-12.9c-1.1-2-1.9-4.1-2.3-6.3L140,312c-1.1-6.2,1.5-12.6,6.7-16.2s12.1-3.8,17.5-0.6l19.5,11.7c0.8,0.5,1.5,1,2.2,1.5
		l23.7,18.7l24,18.1l22.7,16.2l19.5,13l-2.5-6.7l-5.8-12.4l-9.8-17.8l-11.8-19.6l-9.9-16.2c-0.5-0.9-1-1.9-1.5-2.8l-8.6-20.3
		c-3.4-8.1,0.4-17.5,8.5-21c8.1-3.4,17.5,0.4,21,8.5l8.2,19.5l9.5,15.5c0,0,0,0.1,0.1,0.1l12,20c0.1,0.2,0.2,0.4,0.3,0.5l10.1,18.3
		c0.2,0.4,0.4,0.8,0.6,1.2l6.1,13.1c0.2,0.4,0.4,0.9,0.6,1.4l10.2,27.2c0.1,0.3,0.2,0.5,0.3,0.8l8.3,26.1c2.1,6.6-0.3,13.8-5.9,17.8
		s-13.2,4-18.8-0.1l-12.2-8.9l-16.6-10.9c0,0-0.1,0-0.1-0.1l-29.9-20.1c-0.1-0.1-0.2-0.2-0.4-0.3L214.9,371
		c-0.1-0.1-0.2-0.2-0.3-0.2l-20.8-15.6l4.2,9.1c0.4,0.8,0.7,1.7,1,2.6l4.7,15.6l6.6,17.2l5.9,10.1l10.5,11.3l10.9,10.9l10.7,10.2
		c6.4,6.1,6.7,16.2,0.6,22.6C245.7,468.3,241.5,469.9,237.3,469.9z M273.4,368C273.5,368,273.5,368.1,273.4,368L273.4,368z
		 M264,286.5L264,286.5L264,286.5z M263.2,284.9L263.2,284.9C263.2,285,263.2,285,263.2,284.9z"/>
	<path id="O_b" d="M127.8,514c-3.2,0-6.4-0.5-9.4-1.6c-3.1-1.1-6-2.8-8.6-4.9l-2.3-1.9c-1.5-1.3-2.9-2.7-4.1-4.3l-5.5-7.1
		c-0.6-0.7-1.1-1.5-1.6-2.3L86,475.3l-10.9-12.8c-1-1.1-1.8-2.3-2.6-3.6l-4.2-6.9c-0.4-0.7-0.8-1.5-1.2-2.2l-4.9-10L56,428
		c-0.1-0.1-0.1-0.2-0.2-0.3l-5.3-10.5c-0.3-0.7-0.7-1.4-1-2.1l-3.7-9.3c-0.3-0.8-0.6-1.7-0.9-2.5l-2.4-8.2c-0.7-2.5-1.1-5.2-1.1-7.8
		V381c0-1.6,0.1-3.3,0.4-4.9l1.7-9.5c1-5.9,4-11.4,8.3-15.4l4.4-4.1c0.1-0.1,0.2-0.2,0.3-0.3l7.7-6.9l5.9-6.9
		c1.2-1.4,2.6-2.7,4.1-3.9l5.7-4.4c3-2.3,6.4-4,10-5l6.8-1.8c3-0.8,6-1.1,9.1-0.9l2.2,0.1c4.6,0.3,9.1,1.8,13,4.2l4.4,2.7
		c1.1,0.7,2.2,1.5,3.2,2.3l9.2,7.8c0.7,0.6,1.3,1.2,2,1.8l13.5,13.9c0.1,0.1,0.1,0.2,0.2,0.2l11.9,12.8l0.1,0.1l12.6,13.8
		c2,2.2,3.7,4.7,4.9,7.5l5.3,11.8c1.3,2.8,2,5.8,2.3,8.9l1.5,16.6c0.1,1.3,0.1,2.6,0.1,3.9l-0.6,12.2c-0.1,1.6-0.3,3.2-0.7,4.8
		l-2.5,11.1c-0.4,1.9-1.1,3.8-1.9,5.6l-4.6,9.8c-0.4,0.9-0.8,1.7-1.3,2.5l-9.4,15.8c-1.2,2-2.6,3.8-4.3,5.5l-7.5,7.5
		c-0.7,0.7-1.4,1.3-2.1,1.9l-3.6,2.9c-2.1,1.7-4.3,3.1-6.8,4.1l-4.5,1.9c-1.7,0.7-3.4,1.3-5.2,1.6l-3.6,0.7
		C131.6,513.8,129.7,514,127.8,514z M128.4,481.3l0.4,0.4l1.3-0.3l3.6-1.5l3-2.5l7-7l9-15.2l4.3-9.3l2.3-10.4L160,424l-1.4-15.6
		l-4.7-10.6l-12.1-13.2L130,372l-13.2-13.6l-8.8-7.5l-3.3-2h-0.5l-5.3,1.4l-4.7,3.7l-5.8,6.8c-0.8,1-1.7,1.9-2.6,2.7l-7.7,6.9
		l-3.2,3.1l-1.4,7.8v5.4l2.2,7.4l3.6,8.9l5.1,10.2l6.3,11.9c0.1,0.1,0.1,0.3,0.2,0.4l5,10.1l4,6.5l10.8,12.7c0.9,1,1.7,2.2,2.4,3.3
		l10.4,16.6L128.4,481.3z M136.9,477.3L136.9,477.3L136.9,477.3z M95.8,435.7L95.8,435.7L95.8,435.7z"/>
	<path id="U_y" class="st3" d="M427.8,329.6l-4.1-5.7l-6.6-13l-10.4-25.5c-0.2-0.5-0.4-0.9-0.6-1.4L394,259.8l-8.4-17.5l-12.4-27.8
		l-5.3-12.3c-0.1-0.3-0.2-0.5-0.3-0.7L359,184c-3.8-7.7-13-11-20.9-7.5s-11.5,12.6-8.3,20.6l11.3,27.8l14.8,39.9
		c0,0.1,0.1,0.2,0.1,0.2l8.5,21.9l7.9,21.9l6.4,17.8l0.6,4.9c-0.7,0.9-1.3,1.8-1.8,2.8l-4.8,9.4l-2.6,3.3l-1.4,1.2l-1.2,0.3h-2
		l-1.6-0.7l-4.6-3.7l-5.2-4.9l-4.6-6.9l-4.9-8.4l-9-17.5c-0.2-0.5-0.5-0.9-0.7-1.3l-4-6.6c0-0.1-0.1-0.2-0.2-0.2l-3.2-5L322,282
		c-0.2-0.4-0.4-0.8-0.6-1.1l-6.6-11.7c0-0.1-0.1-0.1-0.1-0.2l-7.7-13.1l-8.9-16.5l-6.3-14.9c-3.5-8.1-12.8-11.9-21-8.5
		c-8.1,3.5-11.9,12.8-8.5,21l6.5,15.4c0.3,0.6,0.5,1.2,0.8,1.8l9.3,17.2c0.1,0.2,0.2,0.3,0.3,0.5L287,285l6.4,11.3l5.7,11.6
		c0.3,0.7,0.7,1.4,1.1,2l3.4,5.4l3.7,6.1l9,17.4c0.2,0.3,0.3,0.7,0.5,0.9l5.2,9c0.2,0.4,0.4,0.7,0.7,1l5.5,8.2
		c0.9,1.3,1.9,2.5,3,3.6l6.4,6.1c0.4,0.4,0.8,0.7,1.2,1.1l6.1,5c1.5,1.2,3.1,2.2,4.9,3l5.1,2.2c2.6,1.1,5.4,1.7,8.3,1.7h5.6
		c1.6,0,3.2-0.2,4.7-0.5l4.9-1.1c3.1-0.7,6.1-2.2,8.6-4.3l4.4-3.6c1.1-0.9,2.2-2,3.1-3.2l4-5.1c0.9-1.1,1.6-2.3,2.2-3.5l1.6-3.1
		l10.1,0.7c0.4,0,0.8,0,1.2,0c6.2,0,12-3.4,15-8.8C432,342.2,431.6,335,427.8,329.6z"/>
	<path id="N_y" class="st3" d="M246,448.6c-4,0-7.9-1.5-11-4.4l-10.9-10.3c-0.1-0.1-0.2-0.2-0.3-0.3l-11.2-11.2
		c-0.1-0.1-0.3-0.3-0.4-0.4l-11.6-12.4c-1.1-1.1-2-2.4-2.8-3.7l-7-12c-0.6-1-1-2-1.4-3l-7-18.5c-0.2-0.5-0.3-0.9-0.5-1.4l-4.6-15.2
		l-8.7-18.9l-8.6-16.8l-7.1-12.9c-1.1-2-1.9-4.1-2.3-6.3l-1.9-10.2c-1.1-6.2,1.5-12.6,6.7-16.2s12.1-3.8,17.5-0.6l19.5,11.7
		c0.8,0.5,1.5,1,2.2,1.5l23.7,18.7l24,18.1l22.7,16.2l19.5,13l-2.5-6.7l-5.8-12.4l-9.8-17.8l-11.8-19.6l-9.9-16.2
		c-0.5-0.9-1-1.9-1.5-2.8l-8.6-20.3c-3.4-8.1,0.4-17.5,8.5-21c8.1-3.4,17.5,0.4,21,8.5l8.2,19.5l9.5,15.5c0,0,0,0.1,0.1,0.1l12,20
		c0.1,0.2,0.2,0.4,0.3,0.5l10.1,18.3c0.2,0.4,0.4,0.8,0.6,1.2L311,333c0.2,0.4,0.4,0.9,0.6,1.4l10.2,27.2c0.1,0.3,0.2,0.5,0.3,0.8
		l8.3,26.1c2.1,6.6-0.3,13.8-5.9,17.8s-13.2,4-18.8-0.1l-12.2-8.9l-16.6-10.9c0,0-0.1,0-0.1-0.1l-29.9-20.1
		c-0.1-0.1-0.2-0.2-0.4-0.3l-23.1-16.4c-0.1-0.1-0.2-0.2-0.3-0.2l-20.8-15.6l4.2,9.1c0.4,0.8,0.7,1.7,1,2.6l4.7,15.6l6.6,17.2
		l5.9,10.1l10.5,11.3l10.9,10.9l10.7,10.2c6.4,6.1,6.7,16.2,0.6,22.6C254.5,446.9,250.3,448.6,246,448.6z M282.2,346.7
		C282.2,346.7,282.3,346.7,282.2,346.7L282.2,346.7z M272.8,265.1L272.8,265.1L272.8,265.1z M272,263.6L272,263.6L272,263.6z"/>
	<path id="O_y" class="st3" d="M136.6,492.6c-3.2,0-6.4-0.5-9.4-1.6c-3.1-1.1-6-2.8-8.6-4.9l-2.3-1.9c-1.5-1.3-2.9-2.7-4.1-4.3
		l-5.5-7.1c-0.6-0.7-1.1-1.5-1.6-2.3L94.8,454l-10.9-12.8c-1-1.1-1.8-2.3-2.6-3.6l-4.2-6.9c-0.4-0.7-0.8-1.5-1.2-2.2l-4.9-10
		l-6.2-11.8c-0.1-0.1-0.1-0.2-0.2-0.3l-5.3-10.5c-0.3-0.7-0.7-1.4-1-2.1l-3.7-9.3c-0.3-0.8-0.6-1.7-0.9-2.5l-2.4-8.2
		c-0.7-2.5-1.1-5.2-1.1-7.8v-6.3c0-1.6,0.1-3.3,0.4-4.9l1.7-9.5c1-5.9,4-11.4,8.3-15.4l4.4-4.1c0.1-0.1,0.2-0.2,0.3-0.3l7.7-6.9
		l5.9-6.9c1.2-1.4,2.6-2.7,4.1-3.9l5.7-4.4c3-2.3,6.4-4,10-5l6.8-1.8c3-0.8,6-1.1,9.1-0.9l2.2,0.1c4.6,0.3,9.1,1.8,13,4.2l4.4,2.7
		c1.1,0.7,2.2,1.5,3.2,2.3l9.2,7.8c0.7,0.6,1.3,1.2,2,1.8l13.5,13.9c0.1,0.1,0.1,0.2,0.2,0.2l11.9,12.8l0.1,0.1l12.6,13.8
		c2,2.2,3.7,4.7,4.9,7.5l5.3,11.8c1.3,2.8,2,5.8,2.3,8.9l1.5,16.6c0.1,1.3,0.1,2.6,0.1,3.9l-0.6,12.2c-0.1,1.6-0.3,3.2-0.7,4.8
		l-2.5,11.1c-0.4,1.9-1.1,3.8-1.9,5.6l-4.6,9.8c-0.4,0.9-0.8,1.7-1.3,2.5l-9.4,15.8c-1.2,2-2.6,3.8-4.3,5.5l-7.5,7.5
		c-0.7,0.7-1.4,1.3-2.1,1.9l-3.6,2.9c-2.1,1.7-4.3,3.1-6.8,4.1l-4.5,1.9c-1.7,0.7-3.4,1.3-5.2,1.6l-3.6,0.7
		C140.4,492.4,138.5,492.6,136.6,492.6z M137.2,459.9l0.4,0.4l1.3-0.3l3.6-1.5l3-2.5l7-7l9-15.2l4.3-9.3l2.3-10.4l0.6-11.6
		l-1.4-15.6l-4.7-10.6l-12.1-13.2l-11.8-12.6L125.5,337l-8.8-7.5l-3.3-2h-0.5l-5.3,1.4l-4.7,3.7l-5.8,6.8c-0.8,1-1.7,1.9-2.6,2.7
		l-7.7,6.9l-3.2,3.1l-1.4,7.8v5.4l2.2,7.4l3.6,8.9l5.1,10.2l6.3,11.9c0.1,0.1,0.1,0.3,0.2,0.4l5,10.1l4,6.5l10.8,12.7
		c0.9,1,1.7,2.2,2.4,3.3l10.4,16.6L137.2,459.9z M145.6,456L145.6,456L145.6,456z M104.6,414.3L104.6,414.3L104.6,414.3z"/>
</g>
</svg>
