<?xml version="1.0" encoding="UTF-8"?>
<svg id="Card" xmlns="http://www.w3.org/2000/svg" viewBox="0 0 480.87 718">
  <defs>
    <style>
      .cls-1 {
        fill: #fff;
      }

      .cls-2 {
        fill: #111;
      }

      .cls-3 {
        fill: #ff002c;
      }
    </style>
  </defs>
  <path id="background" class="cls-1" d="M460.38,515.68c.05-31.09,.43-75.4-4.37-105.92-.88-29.99-4.5-65.66-5.36-95.65,2.5-64.66-8.29-136.3,1.19-200.64,4.6-20.42,3.53-53.42,4.7-74.32,0,0-.93-5.76-.93-5.76-.99-1.42-2.7-4.48-3.58-5.96-3.36-2.48-8.35-4.58-12.59-4.24-5.23-1.48-12.77-3.26-17.75-5.43-7.54-.23-22.7-1.42-30.14-2.05,0,0-17.09-.66-17.09-.66-6.48-1.86-21.69-2.96-28.48-3.44-29.57-2.54-73.7-1.71-103.4-1.79-42.43,.99-123.51-4.13-164.74,4.24-9.64-.33-20.37,5.48-29.94,5.7-4.15,4.33-11.72,5.19-17.36,6.03-4.85,3.91-5.9,4.37-8.54,10-4.05,7.13-3.05,23.33-3.11,31.33-.57,24.83,1.53,66,1.39,90.88,0,0,1.59,10.6,1.59,10.6-.32,43.47-1.03,109.06-2.29,152.37-1.24,19.89-1.08,50.63-3.18,70.35-1.72,10.05-2.11,26.01-2.73,36.27-1.62,1.47-1.88,49.21-2.14,52.21-.21,5.85-.82,25.16-2.09,30.75,0,0,0,26.68,0,26.68,1.71,6.95,1.76,17.5,3.23,24.49,1.6,1.89,1.67,5.13,2.04,7.3,.68,1.31,1.84,4.25,2.34,5.66,0,0,.55,6.86,.55,6.86l1.29,4.82,.35,32.74c-1.45,9.83-2.02,29.92-1.74,39.89,.37,1.12,3.25,4.14,4.17,4.97,2.41,4.51,7.11,9.97,10.53,13.76,2.83,1.1,5.99,2.91,8,5.17,1.51,1.96,5.04,5.19,7.11,6.56,6.39,1.65,13.47,4.42,20.07,5.32,0,0,7.35,2.43,7.35,2.43l11.33,.5,5.46,2.09,8.4,1.09c5.86,1.27,13.15,2.63,18.83,4.62,0,0,5.17,1.54,5.17,1.54h18.23c6-1.11,17.73-2.75,23.75-3.28,14.59-.73,37.64-.91,51.87,1.39,5.37,.29,79.01,.22,81.38,1.89,2.56,1.19,9.28,1.61,12.07,1.84,0,0,52.66,0,52.66,0,3.46-.87,10.67-1.7,14.26-1.84,4.34-.63,13.92-2.05,18.33-2.53,0,0,16.2-.55,16.2-.55l11.13-2.29,8.1-.7,3.88-1.24c4.2-1.04,10.72-1.14,14.66-3.13,0,0,5.07-1.94,5.07-1.94l2.93-3.08,2.19-4.02c1.03-4.65,1.38-15.38,1.84-20.17,0,0,.84-12.42,.84-12.42l2.38-5.81,.75-5.17c1.74-4.98,3.17-12.37,4.42-17.49,0,0,.89-19.23,.89-19.23l-.2-17.98c-.59-2.61-1.26-8.14-1.94-10.73,0,0-2.33-3.03-2.33-3.03l-.94-6.56c-1.86-4.63-2.59-11.79-3.97-16.54-.72-9.17-2.57-27.47-1.95-36.73Z"/>
  <path id="border" class="cls-2" d="M154.63,9.14c26.5,0,53.51,.79,74.73,.79,4.72,0,9.15-.04,13.23-.13,1.54,0,3.11,0,4.72,0,10.07,0,21.49-.07,33.28-.07,22.77,0,46.93,.27,65.4,1.85,6.79,.48,22,1.58,28.48,3.44,0,0,17.09,.66,17.09,.66,7.44,.63,22.6,1.82,30.14,2.05,4.98,2.17,12.52,3.95,17.75,5.43,.3-.02,.61-.04,.92-.04,4.02,0,8.55,1.98,11.67,4.28,.88,1.48,2.59,4.55,3.58,5.96,0,0,.93,5.76,.93,5.76-1.17,20.9-.11,53.9-4.7,74.32-9.48,64.35,1.3,135.98-1.19,200.64,.86,29.99,4.49,65.66,5.36,95.65,4.8,30.52,4.43,74.84,4.37,105.92-.61,9.26,1.23,27.56,1.95,36.73,1.38,4.75,2.11,11.91,3.97,16.54l.94,6.56s2.33,3.03,2.33,3.03c.68,2.59,1.35,8.12,1.94,10.73l.2,17.98s-.89,19.23-.89,19.23c-1.25,5.11-2.68,12.5-4.42,17.49l-.75,5.17-2.38,5.81s-.84,12.42-.84,12.42c-.46,4.79-.81,15.52-1.84,20.17l-2.19,4.02-2.93,3.08s-5.07,1.94-5.07,1.94c-3.93,1.99-10.45,2.09-14.66,3.13l-3.88,1.24-8.1,.7-11.13,2.29s-16.2,.55-16.2,.55c-4.41,.49-13.99,1.9-18.33,2.53-3.59,.14-10.79,.97-14.26,1.84,0,0-52.66,0-52.66,0-2.79-.23-9.51-.65-12.07-1.84-2.37-1.67-76.01-1.6-81.38-1.89-8.64-1.4-20.53-1.88-31.8-1.88-7.3,0-14.34,.2-20.07,.49-6.01,.53-17.74,2.17-23.75,3.28h-18.23s-5.17-1.54-5.17-1.54c-5.68-1.99-12.97-3.35-18.83-4.62l-8.4-1.09-5.46-2.09-11.33-.5s-7.35-2.43-7.35-2.43c-6.6-.9-13.68-3.67-20.07-5.32-2.06-1.37-5.59-4.6-7.11-6.56-2.01-2.25-5.17-4.07-8-5.17-3.43-3.79-8.12-9.25-10.53-13.76-.93-.82-3.8-3.85-4.17-4.97-.29-9.97,.29-30.06,1.74-39.89l-.35-32.74-1.29-4.82s-.55-6.86-.55-6.86c-.49-1.41-1.66-4.35-2.33-5.66-.37-2.18-.44-5.42-2.04-7.3-1.47-7-1.51-17.55-3.23-24.49,0,0,0-26.68,0-26.68,1.27-5.59,1.87-24.9,2.09-30.75,.26-3,.52-50.75,2.14-52.21,.62-10.25,1.01-26.22,2.73-36.27,2.1-19.72,1.94-50.46,3.18-70.35,1.26-43.31,1.97-108.9,2.29-152.37,0,0-1.59-10.6-1.59-10.6,.14-24.88-1.96-66.06-1.39-90.88,.06-8.01-.94-24.2,3.11-31.33,2.64-5.64,3.7-6.1,8.54-10,5.64-.84,13.21-1.7,17.36-6.03,9.3-.21,19.71-5.71,29.14-5.71,.27,0,.54,0,.8,.01,19.47-3.95,47.81-4.89,76.79-4.89M154.63,0h0c-35.86,0-60.58,1.55-77.62,4.88-6.1,0-11.86,1.64-17.45,3.23-4.37,1.24-8.5,2.41-11.87,2.49l-3.78,.09-2.61,2.73c-1.72,1.79-7.53,2.64-11,3.15l-1.11,.16-2.45,.37-1.93,1.56c-.46,.37-.88,.7-1.27,1.02-4.46,3.55-6.59,5.43-9.68,11.94-4.08,7.5-4.29,18.53-4.14,31.11,.02,1.57,.04,3.05,.03,4.26-.32,13.97,.19,32.85,.68,51.11,.4,14.86,.77,28.9,.71,39.86h.05c0,1.08,.16,2.12,.3,3.06l.55,3.64,.69,4.59c-.22,30.06-.88,103.29-2.27,151.31-.5,8.06-.77,17.63-1.05,27.76-.42,14.89-.85,30.29-2.05,41.75-1.37,8.17-1.9,19.17-2.38,28.9-.12,2.39-.23,4.67-.34,6.74-.81,3.14-1.07,8.12-1.39,17.44-.3,8.62-.48,18.91-.61,26.43-.07,4.24-.15,8.62-.2,9.49v.17s-.02,.23-.02,.23l-.05,1.34c-.55,15.49-1.16,24.81-1.82,27.72l-.53,2.34,.31,1.02c0,5.4,0,25.34,0,25.34v1.11l.27,1.08c.75,3.04,1.16,7.46,1.56,11.74,.4,4.26,.8,8.66,1.6,12.44l.48,2.26,.98,1.16c.1,.48,.19,1.21,.26,1.73,.08,.58,.15,1.19,.26,1.81l.24,1.4,.65,1.26c.29,.56,.95,2.14,1.44,3.44l.45,5.61,.07,.83,.22,.81,.99,3.7,.33,30.89c-1.49,10.82-2.01,30.82-1.73,40.75l.04,1.34,.42,1.27c.97,2.93,3.87,6.1,5.56,7.78,2.3,3.91,5.85,8.47,11.04,14.21l1.45,1.6,2.02,.78c2.04,.79,3.65,1.87,4.37,2.6,2.17,2.68,6.18,6.35,9,8.22l1.28,.85,1.49,.38c2.01,.52,4.16,1.18,6.43,1.88,4.46,1.37,9.06,2.78,13.81,3.52l.39,.13,2.53,.84,3.68,1.22,1.2,.4,1.27,.06,9.85,.43,4.08,1.56,1.01,.39,1.07,.14,8.02,1.04c.95,.2,1.93,.41,2.93,.62,4.84,1.02,10.33,2.17,14.44,3.61h0c.2,.07,.41,.13,.63,.2l.59,.17,1.78,.53,2.58,.77,1.28,.38h20.4l.82-.15c5.95-1.1,17.13-2.64,22.73-3.15,6.11-.3,13-.47,19.44-.47,12.72,0,23.21,.61,30.34,1.76l.48,.08,.49,.03c1.63,.09,6.89,.13,17.7,.21,16.5,.13,54.52,.42,61.32,1.26,3.12,1.18,7.36,1.71,13.37,2.17l.81,.06v-.04c.42,.04,.87,.07,1.33,.07h7.64s18.1,0,18.1,0h27.46l1.1-.27c2.64-.66,9.22-1.45,12.39-1.57l.48-.02,.48-.07,1.38-.2c4.35-.63,12.34-1.8,16.3-2.25,2.36-.08,15.84-.53,15.84-.53l.77-.03,.76-.16,10.6-2.18,7.57-.65,1.03-.09,.98-.31,3.54-1.13c1.04-.23,2.48-.43,4.01-.65,3.86-.54,8.22-1.15,12.03-2.99,1.03-.37,2.45-.92,4.5-1.7l1.93-.74,1.43-1.5,2.93-3.08,.83-.88,.58-1.06,2.19-4.02,.61-1.13,.28-1.26c.86-3.89,1.26-10.18,1.62-15.73,.14-2.16,.27-4.2,.4-5.55l.48-5.02-.13-.1c.15-2.17,.31-4.57,.41-6.07l1.82-4.44,.43-1.05,.16-1.12,.63-4.33c1.29-3.91,2.35-8.63,3.3-12.82,.38-1.68,.74-3.26,1.07-4.63l-.06-.02c.19-.77,.31-1.62,.35-2.56l.1-2.18,.31-6.61,.45-9.61v-.26s0-.26,0-.26l-.2-17.98v-.96s-.22-.94-.22-.94c-.2-.88-.46-2.53-.71-4.12-.36-2.23-.72-4.53-1.15-6.34-.42-1.99-1.53-3.55-2.62-4.97l-.6-4.18-.16-1.09-.41-1.02c-.78-1.93-1.42-5.26-1.99-8.19-.43-2.19-.87-4.45-1.42-6.54-.11-1.38-.24-2.93-.39-4.6-.78-9.14-1.95-22.95-1.49-29.93l.02-.29v-.29s.01-5.07,.01-5.07c.07-30.47,.16-72.13-4.4-101.71-.45-14.98-1.58-31.5-2.68-47.47-1.09-15.99-2.23-32.51-2.66-47.29,.98-25.76-.13-52.96-1.2-79.27-1.63-40.18-3.32-81.72,2.24-119.76,3.37-15.24,3.8-36.19,4.19-54.68,.16-7.59,.31-14.76,.65-20.79l.61-10.94-2.56,.32-.61-.87c-.51-.73-1.65-2.7-2.33-3.87-.34-.58-.64-1.11-.89-1.53l-.95-1.6-1.49-1.1c-5.08-3.75-11.38-6-16.88-6.06-.85-.23-1.75-.48-2.67-.72-4.38-1.18-9.35-2.52-12.56-3.91l-1.61-.7-1.76-.05c-7.23-.22-22.04-1.38-29.65-2.03h0c-.2-.01-.4-.03-.61-.03l-.54-.02-1.94-.08-5.87-.23-7.53-.29c-6.81-1.7-18.47-2.7-29.14-3.46-19.39-1.66-44.3-1.88-66.11-1.88-6.14,0-12.18,.02-17.98,.04-5.34,.02-10.48,.03-15.3,.03-1.6,0-3.17,0-4.7,0h-.12s-.12,0-.12,0c-3.79,.09-8.05,.13-13.01,.13-9.95,0-21.21-.18-33.13-.36C182.68,.22,168.68,0,154.63,0h0Z"/>
  <path id="bottom_color" data-name="bottom color" class="cls-3" d="M416.73,654.46s-2.78-5.96-3.18-6.56-1.79-13.71-1.79-13.71l1.59-14.31,2.38-13.51-.4-15.5-4.37-22.85v-14.9l-3.58-14.11-2.58-13.51,1.59-51.87-.79-25.44-.79-6.96-12.72,11.33-12.32,9.94-18.48,12.52-14.11,8.94-15.7,7.15-19.87,6.56-19.47,4.77-18.88,3.78-13.12,.99-14.11,3.18-15.9,3.97-15.7,2.58-24.84,.79-37.76-1.19-15.1-2.98-14.11-.79-15.5-2.78-10.33-.79-11.53-4.17-19.67-6.96-2.38,51.87v52.66l4.97,17.29,3.18,9.74,2.78,4.97,11.53,7.95,5.76,4.97,7.55,4.77,9.34,3.78,10.73,4.17,7.75,3.18,7.15,1.39,6.36-1.79,6.56-1.19,9.14-2.38,9.74-1.79,15.9-1.59,130.16,.99,29.21,1.19s22.06,1.99,23.25,1.99,21.86,.4,21.86,.4l14.51-1.99,12.12-2.19,3.97-1.99Z"/>
  <path id="top_color" data-name="top color" class="cls-3" d="M85.72,65.24l31-1.32,23.85-6.62,21.2-3.18,21.73-3.44,71.54-2.65,75.25-1.32,23.85-2.12,13.78-1.59h19.34l10.33,5.3,11.66,5.83,12.45,7.42-4.5,10.6-4.5,13.51-1.06,15.63-.79,24.11-1.32,39.48-1.06,19.87h-25.7l-21.2,2.38-26.76,6.09s-29.94,3.44-30.74,3.44-12.72,2.38-12.72,2.38l-9.01,3.44-18.28,2.38-13.51,1.85h-13.03l-12.41,1.85-18.28,2.91-22.52,6.36-21.2,8.74-17.22,9.54-12.72,7.95-5.83,5.03-8.74,5.83-12.19,11.13-15.37,12.98v-23.05l-2.12-19.34-5.56-29.41V82.99l2.38-17.75Z"/>
  <g id="types">
    <g id="small">
      <g id="lower">
        <g id="lsw">
          <path id="arrow_2" data-name="arrow 2" class="cls-1" d="M308.4,605.62c1.5,5.32,7.02,8.41,12.34,6.91,5.31-1.5,8.41-7.02,6.91-12.34l-1.04-3.67,.06-3.48,1.44-2.2,5.53-4.34,9.58-5.8,10.71-5,14.17-4.64c.68-.22,1.34-.52,1.96-.88l4.47-2.63,6.26,9.44c2.01,3.02,5.63,4.55,9.19,3.86,3.56-.68,6.37-3.44,7.12-6.99l2.58-11.96c.12-.56,.19-1.13,.21-1.71l.2-7.88c0-.19,0-.37,0-.56l-.24-6.51c-.15-3.94-2.84-7.32-6.64-8.35l-5.84-1.58-6.83-2.06-7.49-2.62c-.97-.34-1.98-.51-2.97-.51-2.3,0-4.56,.89-6.27,2.54-2.45,2.38-3.34,5.93-2.31,9.18l2.72,8.56-3.34,1.96-13.71,4.49c-.38,.12-.75,.27-1.12,.44l-11.74,5.48c-.32,.15-.64,.32-.95,.51l-10.56,6.39c-.35,.21-.68,.44-1,.69l-7.3,5.74c-.86,.67-1.6,1.49-2.2,2.4l-3.91,6c-1.03,1.58-1.59,3.41-1.62,5.3l-.13,7.83c-.02,.97,.11,1.94,.37,2.88l1.44,5.09Z"/>
          <path id="arrow_1" data-name="arrow 1" class="cls-1" d="M303.62,647.68c1.74,1.89,4.17,2.94,6.76,2.9l19.22-.29c1.09-.02,2.17-.23,3.18-.63l11.84-4.7c4.62-1.83,6.88-7.06,5.05-11.68-.63-1.59-1.67-2.89-2.95-3.86l.02-.02c.33-.33,.64-.69,.93-1.07l.15-.2,1.45-.96,6.25-3.63c.13-.07,.25-.15,.38-.23l5.09-3.26c.1-.06,.2-.13,.3-.2l5.09-3.52c.07-.05,.14-.1,.21-.15l6.78-4.96c1.08-.79,1.99-1.78,2.68-2.93l2.35-3.91c.19-.32,.36-.64,.52-.98l1.44-3.13c.35-.77,.61-1.58,.76-2.42l1.04-5.87c.34-1.92,.11-3.9-.65-5.69l-1.17-2.74c-1.62-3.79-5.32-6.06-9.2-6.06-1.31,0-2.65,.26-3.93,.81-5.07,2.17-7.43,8.05-5.26,13.12l-.3,1.67-.67,1.47-1.02,1.7-5.05,3.69-4.84,3.35-4.75,3.04-6.33,3.67c-.18,.1-.36,.21-.53,.33l-3.13,2.09c-.94,.63-1.77,1.41-2.45,2.32l-.75,1-3.55,3.55-3.81-1.88c-.71-.35-1.47-.61-2.25-.76l-6.13-1.21c-.58-.11-1.17-.17-1.74-.17-3.45,0-6.67,2-8.17,5.22l-3.41,7.37c-.42,.91-.69,1.89-.79,2.89l-.98,9.93c-.25,2.55,.6,5.09,2.33,6.98Z"/>
        </g>
        <g id="lrd">
          <path class="cls-1" d="M404.37,578.47l-1.89-1.46c-2.75-2.13-5.74-3.97-8.88-5.47l-6.51-3.1-10.47-5.36-8.11-4.32c-1.1-.59-2.25-1.14-3.4-1.64l-4.47-1.95c-.89-.39-1.84-.58-2.79-.58s-1.97,.21-2.88,.62l-3.38,1.47c-2.62,1.1-5.15,2.45-7.54,3.99l-4.87,3.14-8.26,5.13-6.06,3.88c-1.16,.74-2.3,1.54-3.39,2.38l-8.63,6.6c-1.85,1.41-2.87,3.66-2.72,5.98l.16,2.49c.05,.75,.07,1.51,.07,2.26v18.6c0,1.62,.08,3.26,.24,4.88l.66,6.59c.21,2.06,1.32,3.93,3.04,5.09l6.07,4.09c.05,.04,.11,.07,.16,.11l7.77,4.92c.8,.51,1.61,.99,2.44,1.45l8.13,4.52c1.52,.84,3.1,1.61,4.69,2.29l5.94,2.52c1.4,.59,2.77,1.28,4.09,2.05l5.44,3.19c2.47,1.45,5.58,1.24,7.83-.53l7.52-5.91c1.75-1.37,3.42-2.88,4.98-4.49l3.62-3.74c.94-.97,1.94-1.89,2.98-2.75l4.99-4.09c1.13-.93,2.34-1.79,3.58-2.57l7.43-4.66c1.96-1.23,3.18-3.35,3.26-5.67l.61-18.31,1.23-15.58c.18-2.34-.83-4.62-2.69-6.06Zm-12.44,20.71c0,.1-.01,.21-.02,.31l-.5,14.77-4.29,2.7c-1.73,1.09-3.42,2.3-5,3.6l-4.99,4.09c-1.46,1.19-2.86,2.49-4.17,3.84l-3.61,3.74c-1.11,1.15-2.31,2.23-3.56,3.21l-3.79,2.97-1.34-.79c-1.84-1.08-3.76-2.04-5.71-2.87l-5.94-2.52c-1.14-.48-2.27-1.04-3.36-1.64l-8.13-4.51c-.59-.33-1.17-.67-1.75-1.04l-7.69-4.87-3.28-2.21-.33-3.33c-.12-1.16-.17-2.33-.17-3.49v-18.6c0-.64-.01-1.28-.04-1.92l5.68-4.35c.78-.6,1.6-1.17,2.43-1.7l5.98-3.83,8.28-5.15,4.97-3.21c1.71-1.1,3.53-2.07,5.4-2.86l.85-.36,1.67,.73c.82,.36,1.64,.75,2.43,1.18l8.21,4.37,10.66,5.45c.06,.03,.12,.06,.18,.09l6.6,3.14c1.84,.88,3.61,1.92,5.27,3.1l-.94,11.95Z"/>
          <path class="cls-1" d="M370.29,615.9c-2.53-1.87-6.1-1.34-7.97,1.2l-.87,1.18-1.31,1.45-.86,.74-1.18,.61-.89,.18-.91-.07-.14-.52-.27-2.28-.06-2.08,.44-1.19,1.03-1.2,1.89-1.64,3.29-2.11c.42-.27,.83-.58,1.23-.91l1.09-.94c1.53-1.32,2.66-3.03,3.27-4.95l.17-.53c.31-.98,.48-2,.51-3.03l.02-.67c.04-1.44-.21-2.85-.73-4.2l-.18-.46c-.69-1.78-1.84-3.36-3.33-4.56l-.79-.64c-.49-.4-1.03-.76-1.58-1.06l-1.19-.66c-.77-.42-1.59-.75-2.43-.98l-.66-.18c-.49-.13-.99-.2-1.48-.2-2.52,0-4.82,1.68-5.5,4.23-.81,3.04,.99,6.17,4.03,6.98l.55,.13,1.12,.61,.68,.55,.09,.24v.5s-.12,.33-.12,.33l-.92,.8-3.29,2.11c-.43,.28-.85,.59-1.23,.92l-1.95,1.69c-.39,.34-.77,.71-1.1,1.1l-1.15,1.33c-.86,1-1.53,2.13-1.99,3.36l-.5,1.37c-.48,1.31-.71,2.68-.67,4.07l.06,2.18c0,.32,.03,.64,.07,.96l.27,2.32c.06,.5,.15,1,.28,1.48l.22,.85c.34,1.3,.91,2.52,1.7,3.61,1.18,1.64,2.79,2.92,4.67,3.7l.25,.1c1.07,.45,2.2,.72,3.36,.8l1.03,.08c.8,.06,1.62,.03,2.43-.09l1.1-.16c.25-.04,.49-.09,.73-.16l1.08-.31c.3-.09,.59-.2,.87-.33l1-.48c.23-.11,.47-.23,.69-.36l.62-.35c.59-.33,1.16-.73,1.67-1.16l.94-.79c.38-.32,.73-.66,1.06-1.02l1.36-1.51c.24-.27,.47-.55,.68-.83l.9-1.22c1.87-2.53,1.34-6.1-1.2-7.97Z"/>
          <path class="cls-1" d="M357.2,583.52c3.15,0,5.7-2.55,5.7-5.7v-.19c0-3.15-2.55-5.7-5.7-5.7s-5.7,2.55-5.7,5.7v.19c0,3.15,2.55,5.7,5.7,5.7Z"/>
        </g>
        <path id="lsk" class="cls-1" d="M409.39,596.11c-.07-3.14-.58-6.26-1.51-9.27l-1.09-3.52c-1.23-3.98-3.16-7.67-5.75-10.96l-2.36-3.01c-3.25-4.13-7.48-7.5-12.23-9.75l-5.77-2.72c-2.75-1.3-5.66-2.22-8.66-2.75l-7.07-1.23c-5.73-1-11.67-.51-17.17,1.43l-7.38,2.61c-.11,.04-.22,.08-.33,.12l-11.37,4.47c-3.04,1.19-5.9,2.82-8.5,4.85l-3.67,2.87c-3.96,3.09-7.25,7.1-9.49,11.6l-.3,.6c-2.55,5.11-3.78,10.82-3.56,16.53l.33,8.35c.2,5.18,1.61,10.32,4.08,14.87l1.99,3.67c2.01,3.71,4.66,6.98,7.88,9.71l4.88,4.15c2.01,1.71,4.22,3.18,6.58,4.38l5.44,2.77c4.77,2.43,10.1,3.71,15.46,3.71,.23,0,.45,0,.68,0l2.84-.06c3.69-.07,7.32-.75,10.8-1.99l6.48-2.33c.15-.05,.3-.11,.46-.18l11.34-4.71c2.35-.98,4.59-2.22,6.65-3.68l4.18-2.96c3.33-2.36,6.17-5.28,8.47-8.67l1.27-1.88c2.15-3.18,3.74-6.68,4.72-10.4l.71-2.7c.81-3.08,1.18-6.25,1.11-9.44l-.11-4.49Zm-84.76-5.72l.3-.6c.92-1.85,2.28-3.5,3.91-4.78l3.67-2.86c1.07-.83,2.25-1.51,3.5-2l11.21-4.4,7.22-2.55c2.19-.77,4.54-.98,6.83-.61l-.05,.09c-1.66,3.02-3.51,5.97-5.51,8.77l-3.03,4.24c-1.63,2.28-3.4,4.52-5.25,6.65l-3.97,4.55c-1.3,1.49-2.59,3.05-3.83,4.65l-7.46,9.59c-.08,.1-.15,.19-.22,.29l-3.85,5.34c-.33-.46-.67-.92-.95-1.42l-1.99-3.67c-1.02-1.87-1.6-3.99-1.68-6.12l-.33-8.35c-.09-2.35,.42-4.71,1.47-6.81Zm64.41,14.55l-.71,2.68c-.4,1.53-1.06,2.97-1.95,4.29l-1.27,1.88c-.95,1.4-2.12,2.6-3.49,3.57l-4.18,2.97c-.84,.6-1.77,1.11-2.73,1.51l-11.11,4.61-6.25,2.25c-1.43,.51-2.92,.79-4.45,.82l-2.84,.06c-1.98,.03-3.92-.37-5.73-1.13l3.74-5.19,7.34-9.44c1.02-1.31,2.07-2.58,3.12-3.79l3.97-4.55c2.28-2.61,4.45-5.36,6.45-8.17l3.03-4.24c2.45-3.44,4.73-7.06,6.76-10.76l1.67-3.05c.93,.71,1.78,1.53,2.51,2.46l2.36,3c1.06,1.36,1.86,2.87,2.37,4.51l1.09,3.53c.38,1.24,.59,2.52,.62,3.81l.11,4.48c.03,1.32-.12,2.63-.46,3.89Z"/>
        <g id="lcy">
          <path id="lcy2" class="cls-1" d="M361.36,607.52c-3.41-1.83-7.65-.54-9.48,2.87l-1.38,2.57c-.64,1.2-1.48,2.26-2.5,3.17l-1.25,1.11c-.7,.62-1.46,1.17-2.27,1.64l-1.7,.99c-.23,.13-.47,.23-.73,.3l-2.1,.54c-.66,.17-1.34,.26-2.03,.26h-1.23c-.92,0-1.83-.12-2.71-.37l-1.48-.41c-.33-.09-.62-.25-.88-.46l-2.5-2.08-.36-.49c-.71-.95-1.09-2.13-1.09-3.32v-3.63c2.52,2.21,6.35,2.34,9.03,.15,3-2.44,3.44-6.85,1-9.85l-8.99-11.02s-.06-.06-.08-.09c-.16-.2-.34-.38-.52-.55-.03-.03-.06-.06-.09-.09-.22-.2-.45-.39-.69-.56-.04-.03-.07-.05-.11-.07-.21-.14-.42-.27-.64-.38-.06-.03-.11-.06-.17-.09-.51-.26-1.05-.45-1.61-.57-.07-.02-.14-.03-.21-.04-.24-.05-.49-.08-.74-.1-.04,0-.08,0-.12-.01-.29-.02-.59-.02-.88,0-.05,0-.1,0-.15,.01-.26,.02-.51,.06-.77,.11-.03,0-.07,0-.1,.01-.02,0-.04,.01-.06,.02-.29,.06-.58,.14-.86,.25-.03,.01-.06,.03-.1,.04-.23,.09-.46,.19-.68,.3-.08,.04-.16,.09-.24,.13-.07,.04-.14,.07-.21,.11l-14.39,8.64c-3.31,1.99-4.39,6.29-2.4,9.6,1.31,2.19,3.63,3.4,6.01,3.4,1.23,0,2.47-.32,3.6-1l1.2-.72c0,.31-.03,.62-.03,.93v5.07c0,4.16,1.36,8.29,3.83,11.64l.86,1.17c.33,.45,.72,.86,1.15,1.22l3.14,2.62c1.8,1.5,3.86,2.58,6.12,3.2l1.48,.41c2.09,.58,4.26,.87,6.43,.87h1.23c1.87,0,3.73-.24,5.54-.71l2.1-.54c1.49-.39,2.93-.98,4.27-1.76l1.7-.99c1.61-.94,3.13-2.04,4.52-3.27l1.24-1.11c2.25-2,4.12-4.36,5.54-7.02l1.38-2.57c1.83-3.41,.54-7.65-2.87-9.48Z"/>
          <path id="lcy1" class="cls-1" d="M375.82,579.52c-1.99-3.31-6.29-4.39-9.6-2.4l-1.2,.72c0-.31,.03-.62,.03-.93v-5.07c0-4.16-1.36-8.29-3.83-11.64l-.86-1.17c-.33-.45-.72-.86-1.15-1.22l-3.15-2.62c-1.8-1.5-3.86-2.58-6.12-3.2l-1.49-.41c-2.1-.58-4.26-.87-6.43-.87h-1.23c-1.87,0-3.73,.24-5.54,.71l-2.1,.54c-1.5,.39-2.94,.98-4.26,1.76l-1.71,.99c-1.61,.94-3.12,2.04-4.51,3.27l-1.25,1.11c-2.25,2-4.12,4.36-5.54,7.02l-1.38,2.57c-1.83,3.41-.54,7.65,2.87,9.48,3.41,1.82,7.65,.54,9.48-2.87l1.38-2.58c.64-1.2,1.48-2.26,2.5-3.17l1.25-1.11c.7-.62,1.46-1.17,2.26-1.64l1.71-1c.22-.13,.46-.23,.72-.3l2.1-.54c.66-.17,1.34-.26,2.03-.26h1.23c.91,0,1.82,.12,2.71,.37l1.48,.41c.33,.09,.62,.25,.88,.46l2.5,2.08,.36,.49c.71,.95,1.09,2.13,1.09,3.32v3.63c-2.52-2.21-6.35-2.34-9.03-.15-3,2.44-3.44,6.85-1,9.85l8.95,10.96s.01,.01,.02,.02l.03,.04c.17,.21,.36,.41,.55,.6,.08,.08,.16,.14,.25,.21,.13,.12,.26,.23,.4,.34,.1,.07,.2,.14,.3,.21,.13,.09,.26,.18,.4,.26,.11,.06,.21,.12,.32,.17,.14,.07,.29,.14,.44,.21,.11,.05,.21,.09,.32,.13,.16,.06,.32,.11,.49,.16,.1,.03,.2,.06,.31,.09,.18,.04,.36,.08,.55,.11,.09,.01,.18,.03,.27,.05,.25,.03,.5,.05,.76,.05,.03,0,.05,0,.08,0,.03,0,.06,0,.09,0,.24,0,.48-.02,.72-.05,.11-.01,.21-.03,.32-.05,.1-.02,.21-.03,.31-.05,.06-.01,.11-.03,.17-.05,.18-.04,.35-.09,.52-.15,.14-.04,.28-.09,.41-.14,.15-.06,.3-.13,.44-.2,.15-.07,.3-.15,.44-.23,.05-.03,.11-.05,.16-.08l14.39-8.64c3.31-1.99,4.39-6.29,2.4-9.6Z"/>
        </g>
        <path id="l9" class="cls-1" d="M370.93,646.82c-.09,0-.18,0-.27,0l-15.16-.39c-2.35-.06-4.62-.91-6.43-2.41l-8.02-6.65c-3.24-2.69-4.56-7.05-3.36-11.08l2.16-7.25-.97-10.36-1.55-12.98c-.02-.14-.03-.29-.04-.43l-1.17-15.16c-.08-.99-.01-1.98,.19-2.95,.08-.41,2.07-9.97,2.48-11.78,.29-1.32,.78-3.53,7.03-13.48,1.06-1.69,2.58-3.04,4.38-3.9l10.27-4.89c.75-.36,1.55-.63,2.36-.8l8.41-1.76c5.68-1.18,11.24,2.45,12.43,8.13,1.19,5.68-2.45,11.24-8.13,12.43l-7.18,1.5-6.34,3.02c-1.28,2.11-2.41,4.09-2.91,5.08-.42,1.98-1.36,6.45-1.94,9.27l.88,11.43,1.62-1c1.32-.81,2.8-1.32,4.33-1.49l12.33-1.37c2.18-.24,4.38,.2,6.29,1.27l9.78,5.48c2.22,1.24,3.92,3.25,4.77,5.66l3.33,9.39c.57,1.61,.74,3.33,.49,5.02l-1.57,10.76c-.24,1.68-.89,3.27-1.88,4.64l-6.65,9.2c-1.34,1.85-3.24,3.21-5.42,3.88l-11.45,3.52c-1,.31-2.04,.46-3.09,.46Zm-11.11-21.29l9.67,.25,6.44-1.98,3.08-4.26,.82-5.64-1.14-3.22-3.39-1.9-6.64,.74-8.14,5,.43,4.58c.13,1.34,0,2.69-.39,3.98l-.73,2.45Zm-.9-54.44h0Zm.35-1.17s0,0,0,0c0,0,0,0,0,0Z"/>
        <path id="l8" class="cls-1" d="M376.18,650.02h-10.7c-1.22,0-2.43-.21-3.57-.63l-11.35-4.11c-2.06-.75-3.84-2.12-5.08-3.93l-6.25-9.1c-1.25-1.82-1.9-3.99-1.84-6.2l.18-7.33c.05-1.88,.6-3.71,1.58-5.29-1.33-1.02-2.42-2.35-3.14-3.9l-4.11-8.8c-.18-.39-.34-.79-.47-1.2l-2.35-7.24c-.34-1.05-.51-2.14-.51-3.24v-8.02c0-3.7,1.95-7.13,5.13-9.03l7.24-4.3c1.07-.63,2.23-1.07,3.45-1.3l10.57-1.96c.63-.12,1.27-.18,1.91-.18h11.93c.68,0,1.36,.07,2.02,.2l9.98,1.96c2.62,.51,4.95,2.01,6.51,4.18l4.5,6.26c1.71,2.38,2.35,5.38,1.76,8.25l-1.17,5.67c-.17,.8-.42,1.58-.77,2.31l-2.74,5.87c-.74,1.59-1.87,2.96-3.27,4l-2.98,2.21c.35,.2,.69,.42,1.01,.66l7.44,5.48c1.59,1.17,2.82,2.77,3.54,4.61l2.54,6.46c.77,1.95,.93,4.08,.48,6.13l-1.57,7.04c-.6,2.69-2.23,5.03-4.54,6.53l-9.65,6.26c-1.7,1.1-3.69,1.69-5.71,1.69Zm-8.85-21h5.75l3.3-2.14-.18-.46-3.96-2.92-5.32-2.18-6.1-1-2.34,2.69v.16s2.41,3.51,2.41,3.51l6.44,2.33Zm-14.19-32.47l2.22,.74,3.01-1.97c.42-.27,.85-.51,1.3-.72l5.32-2.49,6.01-4.45,.76-1.63-3.96-.78h-9.95l-7.77,1.44-.49,.29v.39l1.64,5.04,1.93,4.13Z"/>
        <path id="l7" class="cls-1" d="M393.1,635.46c-.52-5.78-5.59-10.03-11.39-9.53l-9.9,.88-13.56,.33,.47-1.65,3.52-9.59,1.94-4.29,19.26-3.29c5.72-.98,9.56-6.4,8.58-12.12-.98-5.72-6.41-9.56-12.12-8.58l-8.27,1.41,3-10.82c1.55-5.59-1.72-11.37-7.31-12.92-5.59-1.55-11.37,1.72-12.92,7.31l-3.98,14.35c-.02,.08-.04,.15-.06,.23l-1.14,4.51-12.66,.69c-5.79,.31-10.23,5.26-9.92,11.05,.3,5.6,4.94,9.93,10.48,9.93,.19,0,.38,0,.58-.02l3.18-.17-1.92,5.24c-.13,.37-.26,.73-.36,1.09l-2.54,8.84c-.8,2.78-.81,5.72-.03,8.49,1.87,6.69,8.03,11.36,14.98,11.36h5.49c.09,0,.17,0,.26,0l15.78-.39c.33,0,.66-.03,.97-.06l10.08-.9c5.78-.52,10.04-5.62,9.53-11.39Z"/>
        <path id="l6" class="cls-1" d="M375.47,641.85c-.74,0-1.49-.08-2.25-.24-5.67-1.24-9.26-6.83-8.02-12.5l1.3-5.98c.16-.75,.41-1.48,.73-2.18l3.51-7.57,2.28-6.59-7.56-1.41c-.1-.02-.2-.04-.29-.06l-5.87-1.27c-.27-.06-.53-.13-.79-.2l-4.4-1.32c-.43-.13-.84-.28-1.25-.46l-2.79-1.24-4.01-1.5c-1.79-.67-3.36-1.82-4.55-3.32l-1.66-2.1c-1.74-2.2-2.53-5.01-2.19-7.8l.73-5.97c.15-1.2,.5-2.36,1.04-3.44l3.67-7.29c.24-.47,.51-.92,.81-1.35l5.58-7.88c.97-1.37,2.25-2.49,3.74-3.26l5.48-2.84c2.08-1.08,4.46-1.43,6.76-1l6.26,1.17c.86,.16,1.7,.43,2.5,.8l5.67,2.64c.25,.12,.5,.24,.74,.38l5.01,2.84c1.06,.6,2.02,1.39,2.81,2.32l3.59,4.21c1.21,1.42,2.02,3.13,2.35,4.97l1.42,7.92c.13,.72,.18,1.46,.16,2.19l-.34,10.66s0,.08,0,.11l-.54,12.57c-.04,1.02-.24,2.02-.57,2.99l-4.1,11.87c-.12,.34-.25,.67-.4,1l-3.25,7-1.06,4.85c-1.07,4.91-5.42,8.27-10.25,8.27Zm-6-57.09l5.4,1.01,.09-2.81-.72-4.03-.54-.63-3.04-1.72-4.1-1.91-1.41-.26h0s-3.65,5.15-3.65,5.15l-1.39,2.76,.67,.3,3.37,1.01,5.32,1.15Z"/>
        <path id="l5" class="cls-1" d="M360.98,641.18c-.38,0-.77-.02-1.15-.06l-13-1.44c-5.76-.64-9.92-5.83-9.28-11.59,.64-5.76,5.81-9.92,11.59-9.28l12.12,1.34,6.19-.36,1.14-7.92h-3.02c-3.79,0-7.5-1.14-10.68-3.3l-1.81-1.23c-4.72-3.21-7.75-8.31-8.3-13.99-.23-2.4,.17-4.84,1.15-7.05,.09-.2,.18-.4,.28-.59l1.79-3.44c.21-.4,.44-.78,.69-1.15l2.76-3.96c1.08-1.55,2.29-3.05,3.58-4.44l2.58-2.78c2.09-2.25,4.44-4.27,6.99-5.99l1.5-1.02c1.53-1.04,3.16-1.99,4.84-2.81l4.69-2.31c1.44-.71,3.03-1.08,4.64-1.08h4.6c5.8,0,10.5,4.7,10.5,10.5s-4.7,10.5-10.5,10.5h-2.15l-2.5,1.23c-.81,.4-1.59,.85-2.33,1.36l-1.51,1.02c-1.23,.83-2.36,1.81-3.38,2.9l-2.58,2.77c-.62,.67-1.21,1.4-1.73,2.15l-1.2,1.72h13.55c3.1,0,6.05,1.37,8.04,3.75s2.84,5.51,2.3,8.57l-1.83,10.41-2.6,17.74c-.74,4.91-4.81,8.63-9.77,8.92l-15.59,.91c-.2,.01-.41,.02-.61,.02Z"/>
        <path id="l4" class="cls-1" d="M395.96,578.57l-1.14-1.27c-1.83-2.04-4.39-3.28-7.12-3.46l-6.95-.46c-.33-.02-.66-.03-1-.02l-6.7,.2,.13-5.53c0-.2,0-.4,0-.6l-.59-17.34c-.2-5.8-5.05-10.33-10.85-10.14-5.8,.2-10.33,5.06-10.14,10.85l.58,17.05-.19,8.31-8.05,.25c-5.8,.18-10.35,5.02-10.17,10.82s5.01,10.32,10.82,10.17l7.02-.21c.53,5.19,4.85,9.29,10.19,9.41,.08,0,.17,0,.25,0,5.69,0,10.36-4.54,10.49-10.26l.04-1.75,4.95-.14v.96s-1.92,9.86-1.92,9.86l-3.24,6.63-3.79,5.96c-3.11,4.89-1.67,11.38,3.22,14.5,1.75,1.11,3.7,1.64,5.63,1.64,3.47,0,6.87-1.72,8.87-4.86l4.11-6.46c.21-.33,.4-.68,.58-1.03l4.11-8.41c.4-.83,.7-1.71,.87-2.61l2.35-12.13c.12-.61,.18-1.22,.19-1.84l.16-10.89c.04-2.64-.92-5.21-2.69-7.17Z"/>
        <path id="l3" class="cls-1" d="M383.44,654.42h-9.05c-1.24,0-2.47-.22-3.63-.65l-7.57-2.79c-1.28-.47-2.46-1.19-3.46-2.11l-5.68-5.2c-.27-.25-.53-.51-.78-.79l-4.56-5.17c-.7-.79-1.28-1.69-1.71-2.66-2.52-5.63-2.97-6.64-3.02-8.73-.06-.85-.26-3.32-.26-3.32-.22-2.7,.61-5.37,2.32-7.47l1.03-1.27-1.46-1.55c-.65-.69-1.2-1.46-1.64-2.29l-2.19-4.14c-.38-.71-.67-1.46-.88-2.24l-1.22-4.65c-.23-.87-.35-1.77-.35-2.67v-4.4c0-.62,.05-1.23,.16-1.84l1.03-5.77c.4-2.26,1.54-4.33,3.23-5.89l2.82-2.59c1.45-1.33,3.24-2.23,5.18-2.59l9.78-1.83c.92-.17,1.85-.22,2.78-.14l12.78,1.04c.08,0,.15,.01,.23,.02l7.57,.78c5.77,.6,9.96,5.76,9.36,11.52-.6,5.77-5.76,9.96-11.52,9.36l-7.45-.77-11.27-.92-3.68,.69v1.97l.57,2.16,.96,1.81,1.21,1.29,6.15,2.03c4.02,1.33,6.84,4.94,7.17,9.15s-1.9,8.22-5.67,10.15l-4.89,2.52-.36,.45s.03,.07,.05,.1l3.13,3.54,3.74,3.43,3.87,1.43h7.18c5.8,0,10.5,4.7,10.5,10.5s-4.7,10.5-10.5,10.5Z"/>
        <path id="l2" class="cls-1" d="M360.88,641.93h-8.52c-2.12,0-4.21-.54-6.06-1.57l-6.06-3.38c-1.22-.68-2.3-1.55-3.23-2.59l-6.34-7.12c-1.2-1.35-2.07-2.89-2.6-4.6l-2.53-8.18c-.39-1.26-.58-2.58-.55-3.91l.18-9.97c.03-1.73,.41-3.41,1.14-4.99l2.81-6.09c.63-1.37,1.5-2.61,2.58-3.67l2.61-2.56-16.27,2.01c-5.74,.71-11-3.38-11.71-9.13-.71-5.75,3.38-11,9.13-11.71l22.37-2.76c.16-.02,.32-.04,.48-.05l21.02-1.62c.55-.04,1.06-.05,1.56-.02l11.28,.54c5.04,.24,9.2,4.03,9.9,9.03,.7,5-2.26,9.79-7.04,11.4l-8.85,2.99-7.26,4.6-11.4,11.18-1.4,3.03-.12,6.82,1.57,5.09,4.14,4.65,2.85,1.59h4.16l8.63-4.62c.13-.07,.26-.14,.39-.2l7.57-3.65c5.22-2.52,11.5-.33,14.02,4.89,2.52,5.22,.33,11.5-4.89,14.02l-7.37,3.56-10.33,5.53c-1.8,.96-3.83,1.48-5.88,1.48Zm-14.89-30.97h0s0,0,0,0Zm-.38-2.68v.02s0-.01,0-.02Zm14.01-20.38l-.06,.06s.04-.04,.06-.06Zm7.46-4.5l-.03,.02s.02-.01,.03-.02Z"/>
        <path id="l1" class="cls-1" d="M360.54,643.05c-1.24,0-2.49-.23-3.67-.7-2.92-1.15-5.13-3.61-5.96-6.63l-5.33-19.26c-.13-.48-.23-.96-.29-1.45l-2.05-16.79c-.03-.27-.06-.54-.07-.81l-.68-17.05c-.02-.44,0-.88,.03-1.32l1.57-17.02c.02-.24,.05-.47,.09-.71l2.26-13.74,.48-9.04c.29-5.52,5-9.73,10.52-9.46,5.52,.29,9.75,5,9.46,10.52l-.51,9.59c-.02,.37-.06,.73-.12,1.09l-2.29,13.93-1.47,16.01,.64,15.99,1.92,15.65,1.24,4.48,2.1-3.82,3.34-8.75,1.67-7.39c1.22-5.39,6.57-8.76,11.96-7.55,5.39,1.22,8.77,6.57,7.55,11.96l-1.83,8.09c-.11,.46-.24,.92-.42,1.37l-3.85,10.06c-.16,.43-.36,.84-.58,1.25l-4.96,9.02c-.84,1.53-2.06,2.81-3.55,3.72l-11.98,7.32c-1.59,.97-3.4,1.47-5.21,1.47Z"/>
        <path id="l0" class="cls-1" d="M354.29,645.49h-5.28l-7.62-.9-5.25-3.49-4.25-3.64-4.53-5.02-3.05-4.02-4.99-6.32-1.12-6.64v-5.9l-.25-18.6v-12.15s.41-9.73,.41-9.73l2.24-7.16,.85-4.77,2.11-6.73,4.59-5.71,4.2-2.85,3.91-2.84,4.99-.91,2.62-.33h14.24l9.54,1.12,7.23,3.57,3.92,3.65,3.23,4.25,2.17,4.16,1.89,3.89,1.74,5.29,1.03,5.13,.93,5.64v5.12l.34,2.94,.88,4.7,.49,6.14-.26,5.6-.67,4.15-.34,4.16-1.07,4.08-1.99,6.94-2.04,5.14-3.06,4.99-3.34,5.08-6.46,5.25-4.86,3.49-7.66,2.53-5.44,.71Zm-4.08-20.31h2.77l2.22-.29,2.87-.95,2.08-1.49,3.29-2.69,1.54-2.34,1.89-3.09,1.04-2.61,1.66-5.78,.54-2.07,.32-3.59,.55-3.4,.14-3.15-.3-3.8-.85-4.7-.51-4.46v-4.62l-.63-3.82-.69-3.4-.94-2.86-1.23-2.53-1.17-2.24-1.14-1.51-.46-.43-1.41-.7-4.87-.57h-11.79l-.68,.09-.56,.4-1.82,1.23-.28,.35-.57,1.82-.84,4.76-1.83,5.85-.28,6.85v11.44l.25,18.6v4.13l1.93,2.44,2.83,3.74,2.78,3.04,2.55,2.15,1.62,.19Z"/>
      </g>
      <g id="upper">
        <g id="usw">
          <path id="arrow_2-2" data-name="arrow 2" class="cls-1" d="M178.48,103.46c-1.5-5.32-7.02-8.41-12.34-6.91-5.31,1.5-8.41,7.02-6.91,12.34l1.04,3.67-.06,3.48-1.44,2.2-5.53,4.34-9.58,5.8-10.71,5-14.17,4.64c-.68,.22-1.34,.52-1.96,.88l-4.47,2.63-6.26-9.44c-2.01-3.02-5.63-4.55-9.19-3.86-3.56,.68-6.37,3.44-7.12,6.99l-2.58,11.96c-.12,.56-.19,1.13-.21,1.71l-.2,7.88c0,.19,0,.37,0,.56l.24,6.51c.15,3.94,2.84,7.32,6.64,8.35l5.84,1.58,6.83,2.06,7.49,2.62c.97,.34,1.98,.51,2.97,.51,2.3,0,4.56-.89,6.27-2.54,2.45-2.38,3.34-5.93,2.31-9.18l-2.72-8.56,3.34-1.96,13.71-4.49c.38-.12,.75-.27,1.12-.44l11.74-5.48c.32-.15,.64-.32,.95-.51l10.56-6.39c.35-.21,.68-.44,1-.69l7.3-5.74c.86-.67,1.6-1.49,2.2-2.4l3.91-6c1.03-1.58,1.59-3.41,1.62-5.3l.13-7.83c.02-.97-.11-1.94-.37-2.88l-1.44-5.09Z"/>
          <path id="arrow_1-2" data-name="arrow 1" class="cls-1" d="M183.25,61.39c-1.74-1.89-4.17-2.94-6.76-2.9l-19.22,.29c-1.09,.02-2.17,.23-3.18,.63l-11.84,4.7c-4.62,1.83-6.88,7.06-5.05,11.68,.63,1.59,1.67,2.89,2.95,3.86l-.02,.02c-.33,.33-.64,.69-.93,1.07l-.15,.2-1.45,.96-6.25,3.63c-.13,.07-.25,.15-.38,.23l-5.09,3.26c-.1,.06-.2,.13-.3,.2l-5.09,3.52c-.07,.05-.14,.1-.21,.15l-6.78,4.96c-1.08,.79-1.99,1.78-2.68,2.93l-2.35,3.91c-.19,.32-.36,.64-.52,.98l-1.44,3.13c-.35,.77-.61,1.58-.76,2.42l-1.04,5.87c-.34,1.92-.11,3.9,.65,5.69l1.17,2.74c1.62,3.79,5.32,6.06,9.2,6.06,1.31,0,2.65-.26,3.93-.81,5.07-2.17,7.43-8.05,5.26-13.12l.3-1.67,.67-1.47,1.02-1.7,5.05-3.69,4.84-3.35,4.75-3.04,6.33-3.67c.18-.1,.36-.21,.53-.33l3.13-2.09c.94-.63,1.77-1.41,2.45-2.32l.75-1,3.55-3.55,3.81,1.88c.71,.35,1.47,.61,2.25,.76l6.13,1.21c.58,.11,1.17,.17,1.74,.17,3.45,0,6.67-2,8.17-5.22l3.41-7.37c.42-.91,.69-1.89,.79-2.89l.98-9.93c.25-2.55-.6-5.09-2.33-6.98Z"/>
        </g>
        <g id="urd">
          <path class="cls-1" d="M89,146.25l1.89,1.46c2.75,2.13,5.74,3.97,8.88,5.47l6.51,3.1,10.47,5.36,8.11,4.32c1.1,.59,2.25,1.14,3.4,1.64l4.47,1.95c.89,.39,1.84,.58,2.79,.58s1.97-.21,2.88-.62l3.38-1.47c2.62-1.1,5.15-2.45,7.54-3.99l4.87-3.14,8.26-5.13,6.06-3.88c1.16-.74,2.3-1.54,3.39-2.38l8.63-6.6c1.85-1.41,2.87-3.66,2.72-5.98l-.16-2.49c-.05-.75-.07-1.51-.07-2.26v-18.6c0-1.62-.08-3.26-.24-4.88l-.66-6.59c-.21-2.06-1.32-3.93-3.04-5.09l-6.07-4.09c-.05-.04-.11-.07-.16-.11l-7.77-4.92c-.8-.51-1.61-.99-2.44-1.45l-8.13-4.52c-1.52-.84-3.1-1.61-4.69-2.29l-5.94-2.52c-1.4-.59-2.77-1.28-4.09-2.05l-5.44-3.19c-2.47-1.45-5.58-1.24-7.83,.53l-7.52,5.91c-1.75,1.37-3.42,2.88-4.98,4.49l-3.62,3.74c-.94,.97-1.94,1.89-2.98,2.75l-4.99,4.09c-1.13,.93-2.34,1.79-3.58,2.57l-7.43,4.66c-1.96,1.23-3.18,3.35-3.26,5.67l-.61,18.31-1.23,15.58c-.18,2.34,.83,4.62,2.69,6.06Zm12.44-20.71c0-.1,.01-.21,.02-.31l.5-14.77,4.29-2.7c1.73-1.09,3.42-2.3,5-3.6l4.99-4.09c1.46-1.19,2.86-2.49,4.17-3.84l3.61-3.74c1.11-1.15,2.31-2.23,3.56-3.21l3.79-2.97,1.34,.79c1.84,1.08,3.76,2.04,5.71,2.87l5.94,2.52c1.14,.48,2.27,1.04,3.36,1.64l8.13,4.51c.59,.33,1.17,.67,1.75,1.04l7.69,4.87,3.28,2.21,.33,3.33c.12,1.16,.17,2.33,.17,3.49v18.6c0,.64,.01,1.28,.04,1.92l-5.68,4.35c-.78,.6-1.6,1.17-2.43,1.7l-5.98,3.83-8.28,5.15-4.97,3.21c-1.71,1.1-3.53,2.07-5.4,2.86l-.85,.36-1.67-.73c-.82-.36-1.64-.75-2.43-1.18l-8.21-4.37-10.66-5.45c-.06-.03-.12-.06-.18-.09l-6.6-3.14c-1.84-.88-3.61-1.92-5.27-3.1l.94-11.95Z"/>
          <path class="cls-1" d="M123.08,108.82c2.53,1.87,6.1,1.34,7.97-1.2l.87-1.18,1.31-1.45,.86-.74,1.18-.61,.89-.18,.91,.07,.14,.52,.27,2.28,.06,2.08-.44,1.19-1.03,1.2-1.89,1.64-3.29,2.11c-.42,.27-.83,.58-1.23,.91l-1.09,.94c-1.53,1.32-2.66,3.03-3.27,4.95l-.17,.53c-.31,.98-.48,2-.51,3.03l-.02,.67c-.04,1.44,.21,2.85,.73,4.2l.18,.46c.69,1.78,1.84,3.36,3.33,4.56l.79,.64c.49,.4,1.03,.76,1.58,1.06l1.19,.66c.77,.42,1.59,.75,2.43,.98l.66,.18c.49,.13,.99,.2,1.48,.2,2.52,0,4.82-1.68,5.5-4.23,.81-3.04-.99-6.17-4.03-6.98l-.55-.13-1.12-.61-.68-.55-.09-.24v-.5s.12-.33,.12-.33l.92-.8,3.29-2.11c.43-.28,.85-.59,1.23-.92l1.95-1.69c.39-.34,.77-.71,1.1-1.1l1.15-1.33c.86-1,1.53-2.13,1.99-3.36l.5-1.37c.48-1.31,.71-2.68,.67-4.07l-.06-2.18c0-.32-.03-.64-.07-.96l-.27-2.32c-.06-.5-.15-1-.28-1.48l-.22-.85c-.34-1.3-.91-2.52-1.7-3.61-1.18-1.64-2.79-2.92-4.67-3.7l-.25-.1c-1.07-.45-2.2-.72-3.36-.8l-1.03-.08c-.8-.06-1.62-.03-2.43,.09l-1.1,.16c-.25,.04-.49,.09-.73,.16l-1.08,.31c-.3,.09-.59,.2-.87,.33l-1,.48c-.23,.11-.47,.23-.69,.36l-.62,.35c-.59,.33-1.16,.73-1.67,1.16l-.94,.79c-.38,.32-.73,.66-1.06,1.02l-1.36,1.51c-.24,.27-.47,.55-.68,.83l-.9,1.22c-1.87,2.53-1.34,6.1,1.2,7.97Z"/>
          <path class="cls-1" d="M136.17,141.2c-3.15,0-5.7,2.55-5.7,5.7v.19c0,3.15,2.55,5.7,5.7,5.7s5.7-2.55,5.7-5.7v-.19c0-3.15-2.55-5.7-5.7-5.7Z"/>
        </g>
        <path id="usk" class="cls-1" d="M173.5,105.45c-.74-6.11-3.13-11.91-6.9-16.76-2.75-3.53-6.11-6.45-10-8.66l-1.05-.6c-4.22-2.4-9.01-3.89-13.84-4.31l-3.04-.27c-3.24-.28-6.5-.1-9.69,.55l-3.8,.77c-4.29,.87-8.32,2.54-11.97,4.95l-3.75,2.48c-2.78,1.83-5.26,4.06-7.39,6.63l-3.77,4.54c-2.25,2.71-4.05,5.73-5.37,9l-2.03,5.04c-1.14,2.82-1.89,5.77-2.24,8.79l-.6,5.23c-.53,4.62-.12,9.23,1.22,13.68l1.65,5.48c1.13,3.75,2.88,7.25,5.21,10.39l3.05,4.12c3.42,4.62,7.98,8.32,13.21,10.7l.68,.31c4.4,2.01,9.25,3.06,14.09,3.06,.32,0,.64,0,.96-.01l5.77-.17c5.93-.17,11.73-1.9,16.79-5.01l2.67-1.64c3.51-2.16,6.56-4.9,9.08-8.15l2.41-3.11c1.8-2.32,3.29-4.87,4.43-7.57l1.87-4.43c1.45-3.44,2.32-7.07,2.58-10.8l.78-11c.15-2.15,.1-4.32-.16-6.46l-.82-6.76Zm-69.11,19.27l.6-5.23c.18-1.56,.57-3.08,1.15-4.53l2.03-5.04c.68-1.68,1.61-3.24,2.77-4.64l3.77-4.54c1.1-1.32,2.37-2.47,3.81-3.41l3.75-2.48c1.88-1.24,3.96-2.1,6.17-2.55l3.8-.77c1.15-.23,2.31-.35,3.48-.35,.5,0,1.01,.02,1.51,.07l3.04,.27c.46,.04,.91,.12,1.37,.19l-5.69,10.12c-.21,.37-.43,.73-.66,1.08l-6.41,9.55c-.48,.72-1.03,1.4-1.62,2.03l-8.36,8.9c-.6,.64-1.26,1.24-1.96,1.77l-7.29,5.55c-1.04,.8-2.19,1.46-3.39,1.98l-.84,.36-.39-1.28c-.69-2.29-.9-4.66-.63-7.04Zm53.67-7.21l-.78,11c-.14,1.92-.58,3.79-1.33,5.56l-1.87,4.43c-.59,1.39-1.35,2.71-2.28,3.9l-2.41,3.11c-1.3,1.68-2.87,3.09-4.68,4.2l-2.67,1.64c-2.6,1.6-5.59,2.49-8.65,2.58l-5.77,.17c-2.67,.06-5.34-.47-7.75-1.57l-.68-.31c-2.33-1.06-4.39-2.66-6.05-4.61,2.29-1.02,4.46-2.3,6.46-3.82l7.29-5.55c1.42-1.08,2.76-2.29,3.99-3.59l8.36-8.9c1.2-1.28,2.31-2.67,3.29-4.13l6.41-9.55c.48-.71,.92-1.44,1.34-2.18l4.87-8.66c1.04,1.92,1.73,4.01,2,6.19l.82,6.76c.13,1.1,.16,2.23,.08,3.33Z"/>
        <g id="ucy">
          <path id="ucy2" class="cls-1" d="M124.91,162.66c1.8,1.5,3.86,2.58,6.12,3.2l1.48,.41c2.09,.58,4.26,.87,6.43,.87h1.23c1.87,0,3.73-.24,5.54-.71l2.11-.55c1.5-.39,2.93-.98,4.26-1.76l1.7-.99c1.61-.94,3.12-2.04,4.51-3.27l1.25-1.11c2.25-2,4.12-4.36,5.54-7.02l1.38-2.57c1.83-3.41,.54-7.65-2.86-9.48-3.41-1.83-7.65-.54-9.48,2.86l-1.38,2.58c-.64,1.2-1.48,2.26-2.5,3.17l-1.25,1.11c-.7,.62-1.46,1.17-2.27,1.64l-1.7,.99c-.23,.13-.47,.23-.72,.3l-2.1,.55c-.66,.17-1.34,.26-2.03,.26h-1.23c-.92,0-1.83-.12-2.71-.37l-1.48-.41c-.32-.09-.62-.24-.88-.46l-2.5-2.08-.36-.49c-.71-.97-1.09-2.11-1.09-3.32v-3.63c2.52,2.21,6.35,2.35,9.03,.15,3-2.44,3.44-6.85,1-9.85l-8.99-11.02s-.06-.06-.08-.09c-.17-.2-.34-.38-.52-.55-.03-.03-.06-.06-.09-.09-.22-.2-.45-.39-.69-.56-.04-.03-.07-.05-.11-.07-.21-.14-.42-.27-.64-.38-.06-.03-.12-.06-.17-.09-.26-.13-.52-.25-.79-.34,0,0-.01,0-.02,0-.26-.09-.53-.16-.8-.22-.08-.02-.15-.03-.23-.05-.23-.04-.47-.08-.71-.1-.05,0-.1-.01-.15-.01-.29-.02-.58-.02-.86,0-.05,0-.11,.01-.16,.02-.25,.02-.51,.06-.76,.11-.03,0-.07,0-.1,.01-.02,0-.04,.01-.05,.02-.29,.06-.58,.14-.86,.25-.03,.01-.06,.02-.09,.04-.24,.09-.47,.19-.7,.31-.08,.04-.16,.08-.23,.12-.07,.04-.15,.07-.22,.12l-14.39,8.64c-3.31,1.99-4.39,6.29-2.4,9.6,1.31,2.19,3.63,3.4,6.01,3.4,1.23,0,2.47-.32,3.6-1l1.2-.72c0,.31-.03,.62-.03,.93v5.07c0,4.16,1.36,8.29,3.83,11.64l.86,1.17c.33,.45,.72,.86,1.15,1.22l3.14,2.62Z"/>
          <path id="ucy1" class="cls-1" d="M119.62,110.34c3.41,1.83,7.65,.54,9.48-2.87l1.38-2.57c.64-1.2,1.48-2.26,2.5-3.17l1.25-1.11c.7-.62,1.46-1.17,2.27-1.64l1.7-.99c.23-.13,.47-.23,.73-.3l2.11-.55c.66-.17,1.34-.26,2.02-.26h1.23c.92,0,1.83,.12,2.71,.37l1.49,.41c.32,.09,.62,.24,.88,.46l2.5,2.08,.36,.49c.7,.95,1.09,2.13,1.09,3.32v3.63c-2.52-2.21-6.35-2.35-9.04-.15-3,2.44-3.44,6.85-1,9.85l8.95,10.97s0,.01,.01,.02l.03,.04c.17,.21,.36,.41,.55,.6,.07,.07,.16,.14,.23,.2,.13,.12,.27,.24,.41,.34,.1,.07,.2,.14,.3,.21,.13,.09,.27,.18,.41,.26,.1,.06,.21,.12,.32,.17,.15,.07,.29,.14,.44,.21,.11,.05,.21,.09,.32,.13,.16,.06,.32,.11,.49,.16,.1,.03,.2,.06,.31,.09,.18,.04,.37,.08,.55,.11,.09,.01,.18,.03,.27,.05,.25,.03,.51,.05,.76,.05,.02,0,.05,0,.07,0,.03,0,.06,0,.09,0,.24,0,.48-.02,.72-.05,.11-.01,.21-.03,.32-.05,.1-.02,.21-.03,.31-.05,.06-.01,.11-.03,.17-.05,.18-.04,.35-.09,.52-.15,.14-.04,.28-.09,.41-.14,.15-.06,.3-.13,.45-.2,.15-.07,.29-.14,.44-.22,.06-.03,.11-.05,.17-.09l14.39-8.64c3.31-1.99,4.39-6.29,2.4-9.6-1.99-3.31-6.29-4.39-9.6-2.4l-1.2,.72c0-.31,.03-.62,.03-.93v-5.07c0-4.16-1.36-8.29-3.83-11.64l-.86-1.17c-.33-.45-.72-.86-1.15-1.22l-3.14-2.62c-1.8-1.5-3.86-2.58-6.12-3.2l-1.48-.41c-2.09-.58-4.26-.87-6.43-.87h-1.23c-1.87,0-3.73,.24-5.54,.71l-2.1,.55c-1.49,.39-2.93,.98-4.27,1.76l-1.7,.99c-1.61,.94-3.12,2.04-4.51,3.27l-1.25,1.11c-2.25,2-4.12,4.36-5.54,7.02l-1.38,2.57c-1.83,3.41-.54,7.65,2.87,9.48Z"/>
        </g>
        <path id="u9" class="cls-1" d="M146.09,113.66l-.1-7.43c-.03-2.45-.91-4.68-2.33-6.45,.35-1.4,.43-2.9,.15-4.41l-1.41-7.79c-.81-4.48-4.42-7.93-8.93-8.54l-5.09-.69c-.46-.06-.93-.09-1.4-.09h-8.51c-2.66,0-5.22,1.01-7.17,2.83l-7.43,6.95c-.79,.74-1.47,1.6-1.99,2.54l-5.97,10.66c-.34,.6-.61,1.23-.83,1.89l-2.35,7.24c-.34,1.05-.51,2.14-.51,3.24v7.61c0,3.21,1.47,6.24,3.98,8.23l6.46,5.11c.33,.26,.68,.51,1.04,.73l5.28,3.23c1.65,1.01,3.54,1.54,5.48,1.54h8.2l-1.74,6.73c-.02,.08-.04,.17-.06,.25l-2.25,9.68c-.1,.45-.18,.91-.22,1.37l-.58,6.03-.78,2.46-1.14,1.19-1.34,.22-4.49-.38c-5.78-.5-10.86,3.8-11.35,9.58s3.8,10.86,9.58,11.35l5.77,.49c.29,.02,.59,.04,.89,.04,.56,0,1.12-.04,1.67-.13l6.06-.98c2.24-.36,4.31-1.44,5.89-3.08l5.28-5.48c1.12-1.17,1.96-2.57,2.45-4.12l1.86-5.87c.22-.71,.37-1.43,.44-2.17l.62-6.45,2.06-8.88,3-11.61c.11-.44,.2-.89,.26-1.35l1.47-11.93c.05-.43,.08-.85,.08-1.28v-11.94s0-.09,0-.14Zm-28.68,5.39l-2.22-1.36-1.97-1.56v-.87l1.52-4.68,4.66-8.33,3.21-3h.56c.34,1.73,1.1,3.28,2.14,4.57-.21,.86-.33,1.75-.32,2.68l.04,3.3c-.46,.49-.88,1.02-1.25,1.61l-4.83,7.64h-1.54Z"/>
        <path id="u8" class="cls-1" d="M131.62,172.04c-.65,0-1.31-.06-1.95-.18l-11.02-2.09c-2.74-.52-5.16-2.1-6.73-4.41l-5.15-7.57c-.71-1.05-1.23-2.22-1.53-3.45l-1.7-7.04c-.39-1.6-.39-3.27,0-4.88l1.5-6.33c.48-2,1.53-3.82,3.03-5.23l4.3-4.04c.6-.56,1.26-1.05,1.98-1.46l.85-.49c-1.1-1.14-1.93-2.52-2.42-4.03l-2.09-6.39c-.3-.92-.47-1.87-.51-2.83l-.46-11.15c-.02-.49,0-.97,.04-1.46l.48-4.85c.29-2.91,1.77-5.57,4.11-7.34l4.6-3.49c1.07-.81,2.28-1.41,3.57-1.76l5.33-1.46,1.9-1.01c.75-.4,1.54-.71,2.37-.92l6.2-1.57c.84-.21,1.71-.32,2.57-.32h4.37c1.61,0,3.2,.37,4.64,1.08l4.63,2.28c1.63,.8,3.03,2.02,4.05,3.53l2.61,3.85c.1,.14,.19,.29,.28,.44l2.02,3.33c.49,.8,.87,1.67,1.12,2.57l.91,3.2c.27,.94,.4,1.91,.4,2.88v6c0,.68-.07,1.37-.2,2.04l-1.24,6.26c-.45,2.29-1.66,4.37-3.43,5.9l-7.76,6.72c-.58,.5-1.21,.94-1.88,1.3l-1.16,.63,4.84,5.72c1.6,1.9,2.48,4.3,2.48,6.78v4.57c0,.62-.06,1.24-.16,1.85l-1.89,10.56c-.37,2.09-1.37,4.01-2.86,5.52l-4.5,4.57c-1.68,1.71-3.9,2.79-6.28,3.06l-9.06,1.04c-.4,.05-.8,.07-1.2,.07Zm-4.79-22.09l5.18,.98,3.48-.4,1.06-5.92-3.41-4.03-1.23-1.07-6.06,3.46-1.1,1.04-.19,.82,.66,2.74,1.62,2.38Zm5.01-38.35l1.96,1.72,6.63-3.58,4.16-3.6,.34-1.71v-3.5l-.12-.42-1.15-1.89-.89-1.31h-.58l-3.69,.93-1.81,.96c-.69,.37-1.42,.66-2.17,.86l-3.77,1.03,.34,8.22,.75,2.28Z"/>
        <path id="u7" class="cls-1" d="M151.27,106.42c0-.07,.03-.14,.04-.21l.88-7.53c.13-1.08,.08-2.16-.12-3.23l-1.47-7.53c-.07-.36-.16-.73-.27-1.08l-1.17-3.81c-1.2-3.9-4.55-6.75-8.59-7.31l-7.73-1.08c-.12-.02-.25-.03-.37-.04l-27.37-2.83c-5.77-.61-10.93,3.58-11.54,9.35-.6,5.77,3.58,10.93,9.35,11.54l27.22,2.82,.56,.08,.45,2.32-.53,4.52-1.01,2.52-.66,.02-6.13-1.01c-.77-.13-1.55-.17-2.34-.12l-9.69,.59c-5.79,.35-10.2,5.33-9.85,11.12,.2,3.33,1.94,6.2,4.48,7.97-3.5,2.89-4.85,7.84-2.97,12.23,1.71,3.98,5.58,6.37,9.66,6.37,1.38,0,2.78-.27,4.13-.85l4.5-1.93c.19-.08,.38-.17,.56-.26l9.78-4.89c.92-.46,1.77-1.05,2.51-1.76l3.52-3.33c.11-.1,.21-.2,.31-.31l3.12-3.2,4.89-.16c5.8-.19,10.34-5.05,10.14-10.85-.11-3.36-1.8-6.29-4.32-8.13Z"/>
        <path id="u6" class="cls-1" d="M133.02,158.51c-.22,0-.45,0-.67-.02l-5.61-.36c-.29-.02-.59-.05-.88-.09l-4.48-.67-6.07-.27c-.77-.03-1.53-.15-2.27-.35l-3.39-.91c-2.61-.7-4.85-2.39-6.25-4.7l-1.41-2.33-1.73-2.66c-.93-1.43-1.5-3.06-1.66-4.76l-.52-5.61c-.07-.71-.06-1.42,.02-2.13l1.17-10.56c.01-.13,.03-.26,.05-.39l1.37-9.2,1.51-9.66c.14-.92,.41-1.82,.79-2.68l4.56-10.17c.05-.12,.11-.23,.16-.35l2.35-4.76c2.56-5.2,8.86-7.34,14.06-4.77,5.2,2.56,7.34,8.86,4.77,14.06l-2.26,4.59-3.91,8.72-.35,2.23,3.6-.05c1.42-.04,2.87,.25,4.2,.81l3.52,1.47c.77,.32,1.5,.73,2.17,1.23l2.45,1.79c1.78,1.31,3.1,3.14,3.78,5.24l1.04,3.23c.06,.18,.11,.36,.16,.55l1.66,6.29c.17,.65,.28,1.31,.32,1.97l.81,11.46c.19,2.53-.55,5.04-2.07,7.07l-1.37,1.83c-.81,1.08-1.81,1.99-2.96,2.68l-1.24,.75c-1.64,.99-3.52,1.52-5.44,1.52Zm-13.81-22.26l3.64,.16c.36,.02,.73,.05,1.09,.1l.53,.08-.06-.96-1.04-3.95-3.93,.06-.35,3.15,.13,1.35Z"/>
        <path id="u5" class="cls-1" d="M133.2,161.28h-5.43c-5.8,0-10.5-4.7-10.5-10.5s4.7-10.5,10.5-10.5h5.04l4.16-.31,2.2-.48,.36-.98-.2-2.45-.31-1.32-2.49-.91-4.16-.82h-9.93c-5.7,0-10.36-4.55-10.5-10.24l-.29-12.03c0-.21,0-.41,0-.62l.64-18.49c.19-5.49,4.57-9.9,10.06-10.13l19.86-.83,5.73-1.72c.81-.25,1.66-.39,2.51-.43l8.9-.44c5.78-.3,10.72,4.18,11.01,9.97,.29,5.79-4.18,10.72-9.97,11.01l-7.62,.38-5.77,1.73c-.84,.25-1.71,.4-2.59,.44l-11.46,.48-.29,8.45,.04,1.48h.71c.68,0,1.36,.07,2.03,.2l5.24,1.03c1.02,.2,2.04,.48,3.02,.84l2.86,1.05c2.68,.98,5.07,2.49,7.11,4.49l.27,.26c2.72,2.66,4.61,6.03,5.47,9.73l.41,1.76c.23,.97,.38,1.96,.46,2.95l.22,2.76c.23,2.85-.17,5.77-1.16,8.46l-.63,1.72c-1.38,3.78-3.85,7.02-7.12,9.37-2.22,1.59-4.7,2.69-7.37,3.27l-3.48,.76c-.48,.1-.97,.18-1.46,.21l-5.28,.39c-.26,.02-.52,.03-.78,.03Z"/>
        <path id="u4" class="cls-1" d="M152.84,124.55v-19.55c0-5.8-4.7-10.5-10.5-10.5s-10.5,4.7-10.5,10.5v16.94l-1.82-.19c-.36-.04-.72-.06-1.08-.06h-10.28l.21-1.33,3.94-13.87c.1-.34,.18-.69,.24-1.03l2.74-15.46c1.01-5.71-2.8-11.16-8.51-12.17-5.71-1.01-11.16,2.8-12.17,8.51l-2.65,14.93-3.96,13.97c-.11,.4-.21,.81-.27,1.23l-2,12.67c-.9,5.72,3,11.09,8.72,12.01l8.85,1.41c.55,.09,1.1,.13,1.66,.13h12.96l2.31,.24-1.5,7.57c-.1,.52-.17,1.04-.19,1.56l-.59,12.91c-.26,5.79,4.22,10.7,10.01,10.97,.16,0,.32,.01,.48,.01,5.58,0,10.23-4.39,10.48-10.02l.55-12.12,1.8-9.11c.03-.13,.03-.26,.05-.39,3.96-1.17,7.01-4.63,7.46-8.99,.49-4.73-2.25-9.05-6.43-10.78Z"/>
        <path id="u3" class="cls-1" d="M113.49,173.87c-4.17,0-8.11-2.5-9.75-6.6-2.15-5.38,.47-11.5,5.85-13.65l8.57-3.43,6.57-4.14,3.99-4.19,1.03-1.45-9.01-2.93c-3.69-1.2-6.41-4.33-7.09-8.15s.8-7.7,3.85-10.09l1.56-1.23,4.7-6.56,3.4-5.36,.64-4.42-.39-4.4-2.32-.28-1.85,.56-6.42,3.84c-4.98,2.97-11.42,1.35-14.4-3.63-2.97-4.98-1.35-11.42,3.63-14.4l7.53-4.5c.74-.44,1.53-.79,2.35-1.04l5.18-1.56c1.38-.42,2.84-.55,4.27-.37l8.22,.98c1.49,.18,2.93,.67,4.22,1.46l4.5,2.74c2.51,1.53,4.26,4.03,4.84,6.91l.78,3.91c.07,.37,.13,.75,.16,1.12l.72,8.02c.07,.81,.05,1.64-.07,2.45l-1.14,7.86c-.21,1.46-.73,2.87-1.53,4.12l-4.62,7.28c.13,.09,.25,.19,.38,.29l5.35,4.37c1.46,1.19,2.57,2.75,3.21,4.51l1.89,5.15c1.19,3.25,.71,6.88-1.3,9.7l-5.61,7.89c-.29,.41-.61,.8-.96,1.17l-5.41,5.67c-.6,.62-1.27,1.17-2,1.63l-8.48,5.35c-.54,.34-1.11,.63-1.7,.87l-9.46,3.78c-1.28,.51-2.6,.75-3.9,.75Z"/>
        <path id="u2" class="cls-1" d="M144.6,155.89c-.6,0-1.21-.05-1.82-.17l-17.02-3.13s-.08-.01-.12-.02l-19.6-3.85c-4.77-.94-8.18-5.18-8.07-10.04,.11-4.86,3.71-8.94,8.52-9.66l4.23-.63,9.03-1.56c.23-.04,.44-.12,.64-.24l6.89-4.18c.22-.13,.41-.31,.55-.52l4.27-6.16c.1-.14,.17-.29,.23-.45l2.16-6.36c.06-.19,.1-.39,.1-.59v-10.25c0-.09,0-.18-.02-.27l-.74-4.8c-.04-.27-.14-.51-.29-.74l-.49-.74c-.22-.32-.53-.57-.9-.7-.23-.08-.47-.12-.72-.11l-5.88,.31c-.1,0-.2,.02-.3,.04l-6.36,1.42c-.23,.05-.44,.14-.63,.27l-4.38,2.96c-.2,.13-.37,.31-.5,.51l-2.13,3.23c-3.04,4.61-9.25,5.88-13.86,2.83-4.61-3.04-5.88-9.25-2.83-13.86l2.13-3.23c1.58-2.4,3.59-4.43,5.97-6.04l4.38-2.96c2.28-1.55,4.81-2.63,7.5-3.23l6.36-1.42c1.18-.26,2.38-.43,3.59-.49l5.88-.31c2.93-.16,5.82,.27,8.59,1.27,4.4,1.59,8.11,4.5,10.71,8.39l.49,.74c1.76,2.63,2.95,5.68,3.43,8.82l.74,4.79c.17,1.09,.25,2.21,.25,3.31v10.25c0,2.39-.39,4.76-1.16,7.02l-2.16,6.36c-.65,1.93-1.57,3.75-2.73,5.42l-4.27,6.16c-.5,.73-1.05,1.42-1.63,2.07l3.77,.69c5.43,1,9.03,6.21,8.03,11.64-.89,4.82-5.09,8.19-9.82,8.19Z"/>
        <path id="u1" class="cls-1" d="M128.75,181.52c-.22,0-.44,0-.66-.02-5.51-.36-9.69-5.12-9.32-10.63l.58-8.92,.78-15.77c0-.16,.02-.33,.04-.49l1.37-13.89c.02-.21,.05-.42,.08-.62l2.54-15.65c.07-.44,.17-.88,.3-1.3l3.37-11.1-8.9,9.54c-3.77,4.04-10.1,4.26-14.13,.49-4.04-3.77-4.26-10.1-.49-14.13l9.54-10.22c.25-.27,.52-.53,.81-.77l7.14-6.11c.32-.27,.66-.53,1.01-.76l15.11-9.93c3.37-2.22,7.75-2.19,11.09,.07,3.34,2.26,5,6.31,4.2,10.26l-4.01,19.86c-.06,.31-.14,.62-.23,.93l-5.19,17.06-2.39,14.68-1.31,13.33-.77,15.6c0,.05,0,.11,0,.16l-.59,9c-.35,5.29-4.74,9.35-9.97,9.35Z"/>
        <path id="u0" class="cls-1" d="M136.43,176.06h-2.93l-4.65-.72-5.02-2.97-3.78-3.11-4.12-3.89-3.25-4.24-2.77-5.72-2.57-6.18-1.91-5.52-1.71-4.67-3.41-7.94-1.14-6.97-1.6-5.43-.75-4.77-.42-3.53v-12.88l2.09-5.12,3.15-4.86,3.83-4.89,4.66-3.22,9.82-4.64,17.85-1.48h4.08l5.3,.95,5,1.46,5.14,5.03,3.35,5.79,1.69,4.79,1.44,25.83,.25,19.41v14.86l-2.07,5.22-2.92,5.46-3.57,3.57-3.27,3.71-5.56,3.66-4.6,2.3-5.63,.68Zm-.95-20.4l.08,.05,.57-.07,.37-.19,2.29-1.5,2.12-2.38,1.67-1.67,.96-1.79,.22-.54v-10.91l-.24-18.99-1.25-22.28-.1-.28-.71-1.22-1.37-.25h-1.84l-12.98,1.1-4.89,2.32-.81,.56-1.62,2.07-1.22,1.92v7.6l.25,2.13,.46,2.88,1.58,5.4,.94,5.75,2.75,6.43,1.9,5.2,1.83,5.3,2.09,4.99,1.51,3.09,1.02,1.33,2.66,2.51,1.76,1.43Z"/>
      </g>
    </g>
    <g id="big">
      <g id="sw">
        <path id="arrow_2-3" data-name="arrow 2" class="cls-3" d="M275.79,353.06c0-.17-.02-.33-.04-.5l-1.37-12.91c-.61-5.77-5.77-9.95-11.55-9.33-5.77,.61-9.95,5.78-9.33,11.55l1.34,12.66,.75,12.86-.17,9.55-4.98,5.1-6.6,5.21-8.63,5.87-7.94,3.38c-.46,.19-.91,.41-1.34,.63l-9.2,4.79-15.88,7.1-9.36,3.12v-3.09c0-2.96-1.08-5.81-3.06-8.04l-.85-.96c-1.53-1.72-3.51-2.96-5.72-3.59l-.31-.09c-2.92-.84-6.02-.55-8.75,.81-2.97,1.49-5.21,4.16-6.17,7.34l-.71,2.38-2.48,4.96-6.88,9.06-5.78,7.7c-.21,.28-.42,.57-.58,.83l-1.23,1.9c-.31,.48-.6,.99-.86,1.52l-.63,1.29c-1.4,2.87-1.8,6.17-1.11,9.3,.44,2,1.33,3.93,2.57,5.57l.96,1.27c.4,.53,.84,1.03,1.29,1.49l.62,.62c1.56,1.56,3.49,2.75,5.57,3.45l1.96,.65c3.18,1.06,6.5,1.55,9.85,1.49l5.95-.12,17.24,.3c.33,0,.66,0,.99,0,.92,0,1.84-.02,2.76-.06l9.61-.45c4.77-.22,8.79-3.64,9.78-8.32,.99-4.67-1.3-9.43-5.58-11.56l-8.5-4.25-2.36-1.8,8.49-2.83c.6-.2,1.2-.43,1.76-.68l15.96-7.14c.36-.16,.71-.33,1.06-.51l9.19-4.78,8.03-3.42c1.14-.49,2.25-1.09,3.29-1.79l8.82-6c.38-.26,.74-.52,1.1-.81l6.76-5.33c.65-.51,1.27-1.07,1.84-1.66l5.56-5.69c2.71-2.78,4.49-6.26,5.17-10.09,.17-.99,.27-2,.29-3l.18-10.33c0-.49,0-.97-.03-1.45l-.76-13.17Z"/>
        <path id="arrow_1-3" data-name="arrow 1" class="cls-3" d="M321.28,277.22c-1.32-3.61-4.5-6.2-8.29-6.78l-23.29-3.52-12.74-4.29-4-2.23c-2.99-1.67-6.47-2.14-9.8-1.32l-2.45,.6c-4.91,1.2-8.27,5.72-7.99,10.77l.25,4.55c.14,2.57,1,5.03,2.49,7.12l4.22,5.92-3.89,2.2c-.47,.27-.94,.55-1.38,.84l-7.96,5.23c-.06,.04-.13,.08-.19,.13l-8.25,5.67-4.99,3.26c-1.97,1.29-3.75,2.86-5.27,4.66l-5.12,6.12c-.07,.08-.14,.16-.21,.23l-11.41,11.41c-.78,.78-1.51,1.62-2.17,2.49l-3.66,4.82c-.85,1.11-1.6,2.31-2.24,3.55l-2.72,5.26c-.74,1.43-1.34,2.95-1.79,4.51l-1.24,4.33c-.55,1.92-.86,3.9-.92,5.89l-.13,4c-.08,2.47,.21,4.93,.87,7.31,.94,3.4,2.56,6.49,4.83,9.18l1.12,1.34c2.08,2.48,5.05,3.75,8.05,3.75,2.38,0,4.78-.81,6.74-2.46,4.44-3.73,5.02-10.35,1.3-14.79l-1.12-1.34c-.31-.37-.54-.8-.67-1.27-.09-.33-.13-.67-.12-1.02l.13-4c0-.28,.05-.55,.13-.82l1.24-4.33c.06-.22,.15-.43,.25-.63l2.72-5.27c.09-.17,.19-.34,.31-.49l3.66-4.82c.09-.12,.19-.24,.3-.34l11.42-11.42c.52-.52,1.02-1.06,1.48-1.63l5.02-6c.21-.25,.46-.47,.73-.65l5.09-3.33c.07-.04,.14-.09,.2-.14l8.25-5.67,7.88-5.17c.06-.04,.12-.08,.18-.11l5.11-2.89,3.62,6.16s.05,.09,.08,.14l1.7,2.79c1.59,2.61,4.24,4.4,7.25,4.9,.57,.1,1.15,.14,1.72,.14,2.44,0,4.82-.85,6.72-2.44l5.69-4.74c.14-.11,.27-.23,.4-.35l2.34-2.17c1.93-1.78,3.76-3.71,5.44-5.72l2.96-3.56c1.16-1.4,2.28-2.87,3.33-4.39l1.48-2.14c.87-1.26,1.83-2.49,2.84-3.64l2.51-2.86c2.53-2.89,3.29-6.92,1.97-10.53Z"/>
      </g>
      <g id="rd">
        <path id="arrow_2-4" data-name="arrow 2" class="cls-3" d="M227.59,465.46l-7.14,1.5-8.55,1.4c-.6,.1-1.22,.18-1.82,.23l-4.73,.43c-1.51,.13-3.04,.14-4.55,0-1.98-.18-3.95-.59-5.84-1.22l-5.06-1.7c-.79-.27-1.59-.58-2.35-.92l-7.41-3.34c-.07-.03-.13-.06-.2-.09l-7.61-3.21c-1.61-.68-3.15-1.53-4.58-2.52l-4.18-2.89c-.61-.42-1.22-.88-1.79-1.36l-10.09-8.4c-.57-.47-1.12-.97-1.64-1.49l-6.87-6.8c-.87-.86-1.69-1.8-2.42-2.78l-3.18-4.22c-1.09-1.45-2.03-3.02-2.79-4.67l-6.62-14.39c3.44,1.19,7.4,.16,9.79-2.86,3.01-3.81,2.35-9.34-1.46-12.35l-6.72-5.3c-2.48-1.95-5.22-3.52-8.17-4.66l-9.52-3.69c-3.09-1.2-6.52-.98-9.43,.61-2.91,1.59-4.95,4.36-5.61,7.6l-.68,3.35c-.37,1.8-.64,3.64-.82,5.47l-1.22,12.55c-.47,4.83,3.06,9.13,7.9,9.61,.29,.03,.58,.04,.86,.04,3.52,0,6.63-2.11,8.02-5.22l.98,1.95,6.73,14.64c1.28,2.78,2.86,5.44,4.71,7.89l3.18,4.22c1.25,1.66,2.63,3.24,4.1,4.7l6.87,6.8c.88,.87,1.8,1.71,2.76,2.51l10.1,8.4c.98,.81,2,1.59,3.04,2.31l4.17,2.89c2.42,1.68,5.03,3.11,7.75,4.26l7.51,3.17,7.32,3.3c1.3,.59,2.64,1.11,3.98,1.56l5.06,1.7c3.2,1.08,6.53,1.77,9.88,2.07,1.27,.11,2.55,.17,3.83,.17s2.59-.06,3.87-.17l4.73-.43c1.02-.09,2.06-.22,3.08-.39l8.74-1.43c.13-.02,.26-.05,.39-.07l7.33-1.54c4.75-1,7.8-5.66,6.8-10.41-1-4.75-5.66-7.79-10.41-6.8Z"/>
        <path id="arrow_1-4" data-name="arrow 1" class="cls-3" d="M381.31,322.41l-.28-4.02-.06-7.03s0-.07,0-.11c0-.22-.02-.45-.03-.66l-.36-4.4c-.28-3.47-2.58-6.44-5.86-7.59-3.29-1.15-6.94-.25-9.32,2.28l-1.55,1.65-1.9-4.35-3.6-8.13c-1.62-3.66-3.55-7.22-5.74-10.56l-2.66-4.06c-1.84-2.82-3.9-5.55-6.11-8.1l-2.75-3.16c-2.71-3.12-5.7-6.03-8.88-8.65l-3.14-2.58c-3.11-2.56-6.45-4.88-9.93-6.89l-7.18-4.17c-1.75-1.01-3.56-1.97-5.39-2.84l-4.93-2.34c-4.14-1.97-8.49-3.56-12.92-4.73-4.6-1.21-9.33-1.99-14.08-2.3l-3.25-.21c-4.16-.27-8.37-.2-12.53,.23l-.74,.08c-3.88,.4-7.75,1.11-11.52,2.12l-3.82,1.02c-4.69,1.25-7.48,6.07-6.23,10.76,1.25,4.69,6.07,7.48,10.76,6.23l3.82-1.02c2.88-.77,5.84-1.31,8.8-1.62l.74-.08c3.17-.33,6.38-.39,9.56-.18l3.25,.21c3.62,.24,7.23,.83,10.74,1.76,3.39,.89,6.7,2.11,9.86,3.61l4.93,2.34c1.39,.66,2.78,1.39,4.11,2.17l7.18,4.17c2.66,1.54,5.21,3.31,7.58,5.26l3.14,2.58c2.43,2,4.71,4.22,6.78,6.6l2.74,3.16c1.69,1.95,3.26,4.03,4.67,6.18l2.66,4.07c1.67,2.56,3.14,5.27,4.38,8.06l3.58,8.09,.36,.82-4.24,.42c-3.68,.36-6.72,2.88-7.76,6.43-1.03,3.55,.18,7.31,3.09,9.58l3.14,2.46c.3,.24,.62,.46,.95,.67l3.78,2.36c.08,.05,.16,.1,.24,.15l7.06,4.11s.06,.04,.09,.05l4.93,2.79c.78,.44,1.62,.78,2.49,1.01l3.41,.91c.83,.22,1.68,.34,2.53,.36l2.67,.05c.07,0,.14,0,.21,0,.89,0,1.78-.11,2.64-.33l1.24-.32c2.4-.62,4.51-2.06,5.96-4.07l.49-.68c.87-1.21,1.46-2.57,1.77-4.02l.19-.89c.15-.71,.22-1.44,.22-2.17v-1.8c0-.23,0-.46-.03-.73Z"/>
        <path id="cube" class="cls-3" d="M326.19,349.11l-.53-10.5-.36-12.05c-.07-2.47-1.19-4.8-3.07-6.41l-2.53-2.17c-.44-.38-.92-.71-1.42-.99l-10.02-5.62-11.3-7.59c-.06-.04-.13-.08-.19-.12l-11.41-7.24c-.54-.34-1.1-.62-1.7-.84l-12.5-4.56-13.07-8.32-12.25-8.11c-3.03-2.01-6.99-1.94-9.95,.17l-7.73,5.49c-.07,.05-.13,.1-.2,.15l-7.7,5.8-6.68,4.61-7.79,4.85-8.42,4.15c-.29,.14-.57,.3-.85,.48l-12.66,8.09-9.19,3.54s-.07,.03-.1,.04l-7.85,3.14c-.21,.08-.42,.18-.62,.28l-8.09,3.98c-1.27,.63-2.37,1.55-3.21,2.69l-4.95,6.76c-1,1.36-1.58,2.98-1.68,4.67l-.85,14.13c-.01,.17-.02,.35-.02,.53v15.63s-.24,32.73-.24,32.73c0,.58,.05,1.16,.16,1.72l1.21,6.28c.34,1.76,1.2,3.37,2.48,4.62l5.92,5.8c.54,.53,1.16,.99,1.82,1.37l10.62,6.02,11.96,7.82c.38,.25,.78,.47,1.19,.65l14.42,6.51,12.41,7.81,10.27,6.92c1.01,.68,2.16,1.15,3.36,1.37l9.42,1.69c.8,.14,1.59,.17,2.36,.1,.35,.04,.71,.07,1.07,.07,.53,0,1.06-.05,1.58-.14l13.85-2.54c1.25-.23,2.44-.73,3.48-1.46l7.14-5.02,8.56-5.35,8.7-3.52c.1-.04,.2-.08,.29-.12l10.14-4.53c.42-.19,.82-.41,1.21-.66l8.78-5.71c.12-.08,.24-.16,.35-.24l8.82-6.36,12.74-6.29c3.02-1.49,4.93-4.58,4.9-7.95l-.09-12.13c0-.25-.02-.51-.04-.76l-.82-8.73,1-9.64s0-.08,.01-.12l1.09-12.13c.05-.59,.05-1.18-.02-1.77l-1.24-10.96Zm-99.9,47.47l-1.41,12.77c-.02,.18-.03,.37-.04,.56l-.6,13.04c-.02,.39,0,.79,.02,1.18l.93,10.49-6.21-4.18c-.08-.05-.15-.1-.23-.15l-13.04-8.21c-.34-.22-.7-.41-1.07-.57l-14.35-6.48-11.62-7.6c-.16-.1-.31-.2-.48-.29l-9.87-5.59-3.13-3.07-.52-2.73,.24-31.91v-15.43l.02-.31,12.08,5.9c.28,.14,.56,.26,.85,.36l12.3,4.47,11.68,7.75c.33,.22,.67,.42,1.03,.59l11.23,5.43c.06,.03,.12,.06,.18,.08l12,5.48,.24,7.7-.23,10.73Zm7.09-34.52l-11.71-5.35-10.6-5.13-12.06-8c-.58-.38-1.2-.7-1.86-.94l-12.85-4.67-12.2-5.95,1.47-.72,7.48-2.99,9.97-3.84c.55-.21,1.08-.48,1.57-.8l12.99-8.31,8.38-4.13c.26-.13,.51-.27,.76-.42l8.33-5.19c.12-.07,.23-.15,.34-.22l7-4.83c.1-.07,.2-.14,.3-.22l7.75-5.84,2.71-1.93,7.28,4.82s.09,.06,.13,.09l13.95,8.87c.54,.34,1.11,.62,1.71,.84l12.51,4.56,10.51,6.67,11.5,7.72c.19,.13,.4,.25,.6,.37l3.23,1.82-10.66,5.91-11.06,4.38c-.08,.03-.16,.06-.24,.1l-10.38,4.47c-.08,.04-.16,.07-.24,.11l-10.87,5.07c-.07,.03-.14,.07-.21,.1l-11.83,5.92c-.12,.06-.25,.13-.37,.19l-13.33,7.47Zm75.47,10.28l-1.08,10.44c-.06,.57-.06,1.16,0,1.73l.87,9.22,.05,6.24-2.61,1.29c.23-.36,.43-.73,.59-1.13,1.43-3.56-.3-7.6-3.86-9.03l-.45-.18c-3.56-1.43-7.6,.3-9.03,3.86s.3,7.6,3.86,9.03l.45,.18c.66,.26,1.34,.42,2.01,.47-.23,.14-.46,.28-.68,.44l-9.24,6.67-8.03,5.21-9.37,4.18-9.27,3.74c-.48,.19-.93,.42-1.37,.7l-9.42,5.89c-.14,.08-.27,.17-.4,.26l-5.76,4.05-3.03,.56-.23-1.54-1.01-11.45,.56-12.17,1.42-12.88c.03-.26,.05-.52,.05-.77l.24-11.35c0-.15,0-.31,0-.46l-.29-9.15,11.31-6.34,11.54-5.77,10.64-4.96,10.14-4.36,11.47-4.54c.35-.14,.7-.3,1.03-.49l8.44-4.68,.25,5.03c0,.18,.02,.37,.04,.55l1.17,10.34-1,11.19Z"/>
        <path id="dot_10" data-name="dot 10" class="cls-3" d="M256.97,391.27c2.76,0,5.37-1.65,6.45-4.37,1.42-3.56-.31-7.6-3.87-9.02l-.45-.18c-3.56-1.42-7.6,.31-9.02,3.87-1.42,3.56,.31,7.6,3.87,9.02l.45,.18c.84,.34,1.71,.5,2.57,.5Z"/>
        <path id="dot_9" data-name="dot 9" class="cls-3" d="M212.42,381.15l-.45-.18c-3.56-1.43-7.6,.3-9.03,3.86-1.43,3.56,.3,7.6,3.86,9.03l.45,.18c.85,.34,1.72,.5,2.58,.5,2.75,0,5.36-1.65,6.45-4.36,1.43-3.56-.3-7.6-3.86-9.03Z"/>
        <path id="dot_8" data-name="dot 8" class="cls-3" d="M179.99,386.21l-.45-.18c-3.56-1.42-7.6,.31-9.02,3.87-1.42,3.56,.31,7.6,3.87,9.02l.45,.18c.84,.34,1.72,.5,2.57,.5,2.76,0,5.37-1.65,6.45-4.37,1.42-3.56-.31-7.6-3.87-9.02Z"/>
        <path id="dot_7" data-name="dot 7" class="cls-3" d="M203.81,326.31l-.45-.18c-3.56-1.42-7.6,.31-9.03,3.87-1.42,3.56,.31,7.6,3.87,9.03l.45,.18c.85,.34,1.72,.5,2.58,.5,2.75,0,5.36-1.65,6.45-4.36,1.42-3.56-.31-7.6-3.87-9.03Z"/>
        <path id="dot_6" data-name="dot 6" class="cls-3" d="M237.86,336.77l-.45-.18c-3.56-1.43-7.6,.31-9.03,3.87-1.42,3.56,.31,7.6,3.87,9.03l.45,.18c.85,.34,1.72,.5,2.58,.5,2.75,0,5.36-1.65,6.45-4.36,1.42-3.56-.31-7.6-3.87-9.03Z"/>
        <path id="dot_5" data-name="dot 5" class="cls-3" d="M240.99,304.26l-.45-.18c-3.56-1.42-7.6,.31-9.03,3.87-1.42,3.56,.31,7.6,3.87,9.03l.45,.18c.85,.34,1.72,.5,2.58,.5,2.76,0,5.36-1.65,6.45-4.36,1.42-3.56-.31-7.6-3.87-9.03Z"/>
        <path id="dot_4" data-name="dot 4" class="cls-3" d="M263.05,332.73l.45,.18c.84,.34,1.71,.5,2.57,.5,2.76,0,5.37-1.65,6.45-4.37,1.42-3.56-.31-7.6-3.87-9.02l-.45-.18c-3.56-1.42-7.6,.31-9.02,3.87-1.42,3.56,.31,7.6,3.87,9.02Z"/>
        <path id="dot_3" data-name="dot 3" class="cls-3" d="M297.05,358.24l-.45-.18c-3.56-1.43-7.6,.3-9.03,3.86-1.43,3.56,.3,7.6,3.86,9.03l.45,.18c.85,.34,1.72,.5,2.58,.5,2.75,0,5.36-1.65,6.45-4.36,1.43-3.56-.3-7.6-3.86-9.03Z"/>
        <path id="dot_2" data-name="dot 2" class="cls-3" d="M281.46,382.86l-.45-.18c-3.56-1.42-7.6,.31-9.02,3.87-1.42,3.56,.31,7.6,3.87,9.02l.45,.18c.84,.34,1.71,.5,2.57,.5,2.76,0,5.37-1.65,6.45-4.37,1.42-3.56-.31-7.6-3.87-9.02Z"/>
        <path id="dot_1" data-name="dot 1" class="cls-3" d="M264.3,406.8l-.45-.18c-3.56-1.42-7.6,.31-9.02,3.87-1.42,3.56,.31,7.6,3.87,9.02l.45,.18c.84,.34,1.71,.5,2.57,.5,2.76,0,5.37-1.65,6.45-4.37,1.42-3.56-.31-7.6-3.87-9.02Z"/>
      </g>
      <path id="sk" class="cls-3" d="M302.02,319.73l-.97-14.48c-.1-1.57-.52-3.11-1.21-4.53l-4.2-8.59c-.59-1.2-1.37-2.3-2.32-3.24l-6.7-6.7-.5-.47-6.76-6.04c-.57-.51-1.19-.97-1.85-1.36l-9.67-5.8c-.6-.36-1.23-.67-1.88-.92l-12.46-4.79c-1.39-.53-2.87-.81-4.36-.81h-16.32c-1.06,0-2.11,.14-3.13,.41l-14.38,3.84c-1.28,.34-2.5,.89-3.61,1.63l-11.4,7.6c-1.14,.76-2.15,1.72-2.98,2.82l-8.74,11.66-9.93,12.91-10.75,13.69c-.81,1.03-1.45,2.18-1.89,3.42l-4.76,13.32c-.47,1.31-.71,2.69-.71,4.08v15.5c0,.47,.03,.95,.08,1.42l1.98,16.79,.15,.96,2.96,14.81c.08,.4,.18,.8,.3,1.19l3.86,12.54c.41,1.34,1.05,2.59,1.89,3.71l8.53,11.38c.92,1.22,2.05,2.26,3.35,3.06l12.39,7.62c1,.62,2.09,1.09,3.23,1.39l14.43,3.85c1.02,.27,2.07,.41,3.13,.41h25.37c1.3,0,2.6-.21,3.84-.62l14.25-4.75c1.58-.53,3.04-1.38,4.28-2.49l9.67-8.7c.45-.41,.87-.85,1.24-1.34l9.9-12.87c.39-.5,.74-1.04,1.04-1.6l5.78-10.6c.49-.9,.87-1.87,1.12-2.87l2.92-11.67,.16-.72,2.97-15.82,.14-.91,1.98-17.83,.07-1.01,.49-17.29c.01-.39,0-.78-.02-1.16Zm-121.35,18.65l3.63-10.16c.08-.22,.19-.42,.33-.6l9.78-12.45s.04-.05,.06-.08l10-13s.05-.06,.07-.1l7.75-10.34c.15-.19,.32-.36,.53-.5l8.6-5.73c.19-.13,.41-.23,.64-.29l11.53-3.07c.18-.05,.37-.07,.55-.07h13.15c.26,0,.52,.05,.77,.14l7.54,2.9c1.15,.44,1.69,1.76,1.18,2.88l-6.3,13.86-8.71,18.39c-.03,.06-.06,.13-.1,.19l-13.76,22.93c-.11,.18-.25,.35-.4,.49l-8.41,7.57c-.9,.81-1.67,1.74-2.29,2.78l-8.79,14.66-.45,.82-5.51,11.02c-.05,.11-.11,.21-.18,.3l-7.15,9.83s-.06,.08-.1,.12l-2.46,2.91c-.89,1.05-2.52,1-3.35-.1h0c-.15-.2-.26-.42-.33-.65l-3.2-10.39c-.02-.07-.04-.14-.05-.21l-2.78-13.92c-.01-.06-.02-.11-.03-.17l-1.86-15.81c0-.08-.01-.17-.01-.25v-13.19c0-.25,.04-.49,.12-.72Zm100.88-.99l-1.89,17.05c0,.05-.01,.11-.02,.16l-2.85,15.2s-.02,.08-.03,.12l-2.54,10.14c-.04,.18-.11,.35-.2,.51l-4.8,8.8c-.05,.1-.11,.19-.18,.28l-8.74,11.37c-.08,.1-.17,.2-.26,.29l-7.29,6.56c-.22,.2-.48,.35-.76,.44l-10.73,3.58c-.22,.07-.45,.11-.68,.11h-22.44c-.19,0-.37-.02-.55-.07l-8.62-2.3c-1.52-.4-2.1-2.25-1.08-3.45l2.25-2.66,.56-.71,7.84-10.78c.39-.54,.74-1.11,1.04-1.71l5.71-11.43s.05-.1,.08-.14l7.82-13.04c.11-.18,.25-.35,.4-.49l8.65-7.78c.74-.67,1.37-1.44,1.89-2.29l14.95-24.91c.2-.34,.39-.68,.56-1.04l8.96-18.92s.04-.09,.07-.14l4.23-9.31c.62-1.36,2.41-1.69,3.46-.63l1.66,1.66c.17,.17,.31,.36,.41,.57l2.6,5.32c.12,.25,.19,.52,.21,.8l.8,12.04c0,.07,0,.14,0,.2l-.47,16.42c0,.06,0,.12-.01,.18Z"/>
      <g id="cy">
        <path id="big_arrow_down" data-name="big arrow down" class="cls-3" d="M257.25,431.38l-6.44,2.39-5.03,1.42-5.74,.65-5.01-.64-10.11-2.66-1.18-.51c1.68-3.39,1.78-7.51-.12-11.18-2.46-4.75-7.87-7.37-13.13-6.42-.78,.14-1.56,.36-2.35,.67l-5.99,2.38c-.13,.05-.25,.1-.37,.16l-4.86,2.15c-1.03,.46-1.99,1.05-2.85,1.76l-.8,.66c-2.85,2.34-4.49,5.83-4.49,9.52v2.71c0,.66,.05,1.31,.16,1.96l1.03,6.35c.14,.82,.35,1.63,.65,2.4l3.9,10.23c1.6,4.19,5.58,6.76,9.81,6.76,1.24,0,2.51-.22,3.74-.69,4.38-1.67,7-5.95,6.75-10.39l2.39,1.03c.57,.25,1.16,.45,1.76,.61l11.26,2.96c.54,.14,1.09,.25,1.61,.31l6.66,.84c.97,.12,1.94,.12,2.88,.01l7.43-.84c.69-.08,1.38-.21,2-.39l6.03-1.7c.28-.08,.55-.17,.82-.26,.05-.02,.1-.04,.15-.05l6.5-2.42c4.87-1.81,7.96-6.85,6.93-11.94-1.31-6.51-8.01-10.06-13.97-7.84Z"/>
        <path id="big_arrow_right" data-name="big arrow right" class="cls-3" d="M198.54,319.25l.2-.06c3.54-1.03,6.44-3.59,7.89-6.98l1.58-3.67c.19-.45,.36-.92,.5-1.38l1.83-6.25c.15-.5,.26-1.01,.34-1.53l.94-5.95c.1-.64,.15-1.28,.15-1.93v-1.6c0-2.11-.54-4.18-1.57-6.02l-.82-1.46c-.85-1.51-2-2.83-3.39-3.86l-3.37-2.51c-.8-.6-1.68-1.09-2.58-1.47l-5.08-2.13c-.12-.05-.24-.1-.36-.15l-5.25-1.98c-1.27-.48-2.61-.74-3.98-.79l-1.02-.03c-4.58-.15-8.86,2.72-10.36,7.39-.62,1.92-.58,4-.06,5.96l.79,3c.12,.45,.26,.89,.4,1.26l1.04,2.74c-.28,.16-.54,.33-.77,.49l-5.97,4.06c-.31,.21-.61,.44-.93,.7l-3.63,3.01c-.31,.26-.61,.53-.9,.82l-7.44,7.44-2.98,2.92c-.78,.76-1.46,1.63-2.01,2.57l-2.86,4.87c-.35,.6-.65,1.23-.9,1.88l-1.51,3.97c-.32,.84-.54,1.71-.67,2.6l-.51,3.52c-.79,5.45,2.57,10.81,7.93,12.05,.82,.19,1.63,.28,2.42,.28,5.13,0,9.62-3.77,10.38-8.99l.42-2.91,.91-2.4,1.91-3.25,2.2-2.15,.08-.08,7.21-7.21,3.02-2.5,1.31-.89c.2,.62,.45,1.22,.75,1.8l.31,.6c2.69,5.23,8.74,7.85,14.41,6.21Z"/>
        <path id="big_arrow_left" data-name="big arrow left" class="cls-3" d="M291.58,343.92c-1.75,3.48-1.6,7.62,.09,11.13l1.66,3.44c.66,1.37,1.57,2.61,2.67,3.65l5.97,5.6c.63,.6,1.33,1.13,2.08,1.59l7.25,4.39c1.97,1.19,4.18,1.78,6.38,1.78,3.08,0,6.14-1.15,8.48-3.36l5-4.72c.25-.24,.5-.5,.78-.81l6.21-7.09c.52-.6,.98-1.24,1.36-1.9l3.67-6.29c1.08-1.85,1.53-3.89,1.41-5.88,.13-2.3-.49-4.68-1.98-6.75-3.18-4.42-9.35-5.48-14.06-2.75l-2.09,1.21-.56-1.74-1.52-5.31c-.02-.07-.04-.15-.07-.22l-1.69-5.47c-.1-.32-.21-.63-.33-.91l-2.19-5.41c-.07-.17-.14-.33-.21-.49l-2.18-4.68c-.22-.47-.47-.93-.77-1.39l-2.75-4.31c-.36-.56-.77-1.1-1.21-1.58l-4.02-4.46c-.64-.72-1.37-1.35-2.16-1.9l-5.12-3.55c-4.33-3-10.32-2.61-13.9,1.25-4.46,4.8-3.52,12.23,1.67,15.83l4.57,3.17,2.87,3.19,2.03,3.18,1.81,3.89,1.95,4.81,1.53,4.95,.32,1.12-1.55-.04c-4.83-.13-9.2,2.45-11.42,6.85Z"/>
        <path id="big_person_up" data-name="big person up" class="cls-3" d="M285.5,281.37c0-.61-.04-1.22-.14-1.88l-.47-3.04c-.03-.18-.06-.36-.1-.54l-.75-3.64c-.1-.46-.22-.94-.38-1.42l-1-2.99s0-.01,0-.02c-.21-.62-.47-1.24-.77-1.81l-.88-1.69c-.56-1.06-1.26-2.04-2.1-2.89l-1.89-1.93c-.55-.56-1.15-1.06-1.79-1.51l-2.4-1.67c.05-.23,.11-.47,.15-.71l.54-3.27c.29-1.74,.21-3.49-.26-5.22l-.93-3.47c-.79-2.96-2.64-5.5-5.21-7.16l-2.64-1.71c-2.31-1.5-5.08-2.19-7.83-1.94l-3.92,.36c-2.54,.23-4.95,1.25-6.89,2.9l-3.3,2.81c-2.17,1.85-3.65,4.42-4.15,7.25l-.56,3.16c-.31,1.79-.23,3.63,.25,5.39l.77,2.81c.05,.2,.12,.4,.19,.59-1.1,.78-2.07,1.71-2.87,2.81l-2.48,3.41c-.82,1.12-1.44,2.38-1.84,3.71l-1.33,4.43c-.17,.58-.31,1.17-.39,1.73l-.88,5.88c-.19,1.29-.18,2.59,.04,3.86l.7,4.14c.47,2.76,1.86,5.28,3.95,7.15l1.3,1.16c.51,.45,1.05,.86,1.63,1.23l1.41,.89c1.42,.9,3.01,1.5,4.67,1.76l3.23,.51c.61,.1,1.23,.15,1.86,.15h20.69c.85,0,1.69-.09,2.52-.26l1.72-.36c.88-.18,1.74-.47,2.6-.86l1.28-.58c1.03-.47,1.99-1.08,2.85-1.8l.45-.38c1.21-1.02,2.21-2.25,2.94-3.63l.59-1.1c.25-.47,.46-.95,.68-1.54l.43-1.2c.49-1.35,.74-2.77,.74-4.2v-3.69Z"/>
        <path id="big_person_right" data-name="big person right" class="cls-3" d="M307.69,449.61c.61,.1,1.23,.15,1.85,.15h20.69c.86,0,1.72-.09,2.53-.26l1.75-.37c.87-.18,1.72-.46,2.53-.83l1.29-.59c1.02-.46,1.98-1.06,2.86-1.8l.49-.42c1.2-1.02,2.19-2.24,2.91-3.61l.59-1.1c.26-.5,.49-1.02,.68-1.53l.43-1.19c.49-1.35,.74-2.78,.74-4.22v-3.69c0-.64-.05-1.29-.14-1.88l-.47-3.04c-.03-.18-.06-.36-.1-.54l-.76-3.67c-.1-.47-.22-.93-.37-1.39l-.99-2.98s0,0,0,0c-.2-.59-.44-1.17-.73-1.73-.02-.03-.03-.06-.05-.1l-.88-1.69c-.56-1.06-1.26-2.04-2.1-2.89l-1.89-1.93c-.55-.56-1.16-1.07-1.81-1.52l-2.39-1.66c.05-.23,.11-.47,.15-.7l.55-3.31c.28-1.75,.19-3.49-.26-5.18l-.93-3.48c-.79-2.95-2.63-5.48-5.21-7.16l-2.64-1.71c-2.31-1.5-5.08-2.19-7.83-1.94l-3.92,.36c-2.55,.23-4.93,1.23-6.9,2.9l-3.29,2.81c-2.17,1.85-3.65,4.43-4.15,7.25l-.56,3.17c-.31,1.79-.23,3.63,.25,5.38l.77,2.82c.05,.2,.12,.4,.19,.59-1.1,.78-2.07,1.71-2.86,2.81l-2.47,3.4c-.82,1.13-1.45,2.38-1.85,3.73l-1.33,4.41c-.18,.59-.31,1.19-.39,1.75l-.88,5.88c-.19,1.28-.18,2.59,.04,3.87l.7,4.12c.46,2.76,1.86,5.31,3.95,7.17l1.28,1.14c.52,.47,1.09,.9,1.64,1.24l1.42,.9c1.41,.89,2.98,1.48,4.63,1.74l3.26,.52Z"/>
        <path id="big_person_left" data-name="big person left" class="cls-3" d="M177.17,404.79c-.03-.18-.06-.36-.1-.54l-.75-3.6c-.1-.5-.23-.99-.39-1.45l-1-2.99s0-.02-.01-.03c-.21-.61-.46-1.21-.77-1.79l-.88-1.69c-.56-1.06-1.27-2.04-2.11-2.9l-1.91-1.95c-.53-.55-1.12-1.04-1.75-1.48l-2.43-1.68c.05-.23,.11-.47,.15-.71l.54-3.28c.29-1.74,.2-3.52-.26-5.22l-.94-3.49c-.79-2.94-2.64-5.48-5.2-7.15l-2.64-1.71c-2.32-1.5-5.11-2.19-7.83-1.94l-3.92,.36c-2.56,.23-4.95,1.24-6.89,2.9l-3.31,2.83c-2.17,1.85-3.63,4.42-4.13,7.24l-.56,3.16c-.31,1.79-.23,3.63,.25,5.38l.77,2.83c.05,.2,.12,.39,.18,.58-1.1,.77-2.06,1.71-2.87,2.81l-2.49,3.42c-.81,1.12-1.43,2.37-1.83,3.69l-1.36,4.51c-.16,.56-.29,1.13-.37,1.66l-.88,5.88c-.19,1.28-.18,2.57,.04,3.86l.7,4.15c.47,2.76,1.86,5.28,3.95,7.15l1.31,1.17c.52,.46,1.08,.88,1.62,1.22l1.39,.88c1.43,.9,3.03,1.51,4.71,1.77l3.21,.51c.61,.1,1.24,.15,1.86,.15h20.68c.86,0,1.73-.09,2.53-.26l1.68-.35c.91-.19,1.79-.48,2.65-.87l1.26-.58c1.02-.46,1.97-1.06,2.85-1.79l.47-.39c1.2-1.01,2.2-2.25,2.94-3.63l.56-1.05c.27-.52,.51-1.05,.7-1.58l.43-1.19c.49-1.35,.74-2.77,.74-4.21v-3.7c0-.63-.05-1.25-.14-1.87l-.47-3.05Z"/>
      </g>
      <g id="_9" data-name="9">
        <path id="big_line" data-name="big line" class="cls-3" d="M200.28,482.28c-4.59,0-8.81-3.04-10.11-7.67-1.56-5.58,1.7-11.38,7.28-12.94l5.37-1.5c1.29-.36,2.61-.62,3.93-.78l6.03-.72c.55-.06,1.08-.11,1.61-.14l9.22-.51c.9-.05,1.8-.05,2.69-.01l11.34,.55c.18,0,.35,.02,.53,.04l10.73,1.07c.11,.01,.19,.02,.28,.02l20.24,.89c5.79,.26,10.28,5.16,10.03,10.95s-5.17,10.29-10.95,10.03l-20.25-.89c-.49-.02-.96-.06-1.44-.1l-10.45-1.04-11.07-.54c-.17,0-.34,0-.52,0l-9.21,.51c-.11,0-.21,.02-.32,.03l-6.02,.71c-.25,.03-.5,.08-.74,.15l-5.37,1.5c-.95,.26-1.9,.39-2.84,.39Z"/>
        <path id="big_number" data-name="big number" class="cls-3" d="M275.9,401.94l-1.44-16.04c-.01-.15-.02-.29-.02-.43l.02-17.5c0-.18,0-.35-.01-.53l-1.58-32.09s0-.08,0-.12l-1.13-18.68c0-.15-.01-.29,0-.43l.67-22.38c.17-5.67-4.18-10.41-9.8-10.78,.32-1.09,.47-2.25,.41-3.46-.3-5.79-5.2-10.25-11.02-9.95l-7.77,.4c-2.75,.14-5.44,.71-8.01,1.71l-6.17,2.39c-1.47,.57-2.89,1.27-4.23,2.1l-8.41,5.17c-.63,.39-1.26,.81-1.85,1.25l-9.01,6.68c-2.31,1.71-4.3,3.78-5.92,6.14l-5.44,7.94c-.89,1.3-1.67,2.69-2.31,4.13l-3.85,8.66c-.89,1.99-1.52,4.1-1.88,6.25l-1.31,7.85c-.58,3.5-.45,7.02,.41,10.47l1.34,5.4c1.33,5.38,4.42,10.27,8.7,13.78l1.09,.9c1.66,1.36,3.48,2.51,5.43,3.42l8.04,3.77c1.31,.62,2.69,1.12,4.08,1.51l7.78,2.15c1.86,.51,3.78,.82,5.7,.91l5.84,.27c.39,.02,.79,.03,1.18,.03,3.92,0,7.81-.89,11.34-2.61l1.2-.58c1.95-.95,3.76-2.15,5.39-3.53l.1,2.12-.02,17.24c0,.78,.04,1.57,.1,2.33l1.44,16.03c.01,.15,.02,.29,.02,.44v2.7c0,.84-.22,1.67-.63,2.4l-.58,1.03c-.16,.28-.34,.54-.55,.78l-2.18,2.53c-.36,.42-.79,.77-1.27,1.05l-4.22,2.41c-.36,.21-.74,.36-1.14,.47l-8.42,2.29c-.26,.07-.52,.12-.78,.15l-9.35,.96c-.16,.02-.33,.03-.49,.03h-29.73c-5.8,0-10.5,4.7-10.5,10.5s4.7,10.5,10.5,10.5h29.73c.89,0,1.79-.05,2.66-.14l9.35-.96c1.39-.14,2.77-.4,4.12-.77l8.42-2.29c2.11-.57,4.15-1.42,6.05-2.5l4.22-2.41c2.56-1.46,4.83-3.33,6.76-5.57l2.18-2.52c1.1-1.27,2.08-2.67,2.92-4.15l.58-1.03c2.2-3.88,3.36-8.29,3.36-12.75v-2.7c0-.77-.04-1.55-.1-2.31Zm-29.84-82.1c-.5,1.76-.81,3.57-.92,5.38l-1.01,15.74c-.04,.6-.19,1.18-.44,1.72l-2.64,5.74c-.47,1.02-1.28,1.84-2.29,2.33l-1.2,.58c-.73,.36-1.55,.52-2.35,.49l-5.84-.27c-.36-.02-.72-.07-1.07-.17l-7.79-2.15c-.26-.07-.51-.17-.76-.28l-8.04-3.77c-.37-.17-.71-.39-1.02-.64l-1.09-.9c-.8-.66-1.39-1.58-1.64-2.59l-1.34-5.4c-.16-.65-.19-1.31-.08-1.97l1.31-7.85c.07-.41,.19-.8,.35-1.18l3.85-8.66c.12-.27,.27-.53,.43-.78l5.45-7.94c.3-.44,.68-.83,1.11-1.15l9.01-6.68c.11-.08,.23-.16,.35-.23l8.41-5.18c.25-.15,.52-.29,.79-.39l6.17-2.39c.48-.19,.99-.29,1.51-.32l6.52-.33c-.23,.8-.37,1.64-.4,2.52l-.27,8.81-5.07,17.92Z"/>
      </g>
      <g id="_8" data-name="8">
        <path id="big_number-2" data-name="big number" class="cls-3" d="M242.03,442.37c-.24,0-.48,0-.72-.02l-11.35-.78c-.75-.05-1.49-.18-2.21-.39l-16.48-4.84c-.24-.07-.49-.15-.72-.24l-9-3.39c-.91-.34-1.76-.81-2.54-1.38l-6.52-4.83c-.46-.34-.9-.72-1.3-1.14l-4.04-4.17c-.34-.35-.65-.72-.94-1.12l-4.56-6.26c-1.2-1.65-1.9-3.62-2-5.66l-.52-10.3c-.05-1.04,.05-2.09,.31-3.11l2.55-10.09,.83-8.11c.08-.8,.26-1.59,.52-2.35l1.3-3.78c.6-1.75,1.66-3.31,3.06-4.52l4.68-4.05,7.42-6.91c.09-.08,.18-.16,.27-.24l6-5.22c.15-.13,.3-.26,.46-.38-.46-.4-.88-.85-1.26-1.32l-8.22-10.3c-.92-1.15-1.59-2.49-1.96-3.92l-3-11.61c-.04-.14-.07-.29-.1-.43l-2.48-11.61c-.22-1.04-.28-2.1-.19-3.16l1.17-12.65c.12-1.3,.48-2.56,1.06-3.73l3.39-6.78c.25-.5,.54-.98,.87-1.43l6-8.35c.54-.76,1.19-1.44,1.91-2.03l6.91-5.61c.5-.4,1.03-.76,1.59-1.06l8.61-4.7c.98-.54,2.05-.91,3.15-1.11l4.3-.78c.62-.11,1.25-.17,1.88-.17h5.22c3.03,0,5.91,1.31,7.9,3.59,.2-.04,.39-.07,.59-.1l5.74-.78c.83-.11,1.66-.13,2.49-.04l5.09,.52c1.46,.15,2.87,.6,4.14,1.33l4.57,2.61c.44,.25,.87,.54,1.27,.86l5.74,4.5s.06,.05,.09,.07l7.08,5.7c.1,.08,.21,.17,.31,.26l3.13,2.74c.93,.82,1.71,1.79,2.31,2.88l1.56,2.87c.41,.76,.73,1.56,.95,2.39l.91,3.52c.1,.38,.17,.76,.23,1.15l.78,5.48c.07,.49,.11,.99,.11,1.49v10.96c0,.62-.06,1.24-.17,1.85l-.91,5.09c-.17,.95-.47,1.88-.9,2.75l-2.46,5.05-1.7,4.13c-.42,1.03-1.01,1.99-1.74,2.83l-3.91,4.57c-.18,.2-.36,.4-.55,.59l-2.87,2.87c-.59,.59-1.24,1.1-1.95,1.53l-4.7,2.87c-.12,.07-.23,.14-.35,.21l-4.43,2.48c-.4,.22-.8,.42-1.22,.58l-11.09,4.44c-.06,.03-.13,.05-.2,.08l-5.63,2.12,6.38,5.25c.17,.14,.33,.28,.49,.43l5.87,5.48c.26,.24,.5,.5,.74,.76l4.57,5.22c.13,.15,.25,.3,.37,.45l4.61,5.91c.5,.64,.92,1.33,1.26,2.06l3.47,7.53c.51,1.1,.82,2.28,.93,3.48l.65,7.43c.05,.55,.05,1.11,.01,1.67l-.52,7.3c-.04,.54-.12,1.07-.24,1.59l-2.09,9.13c-.14,.6-.33,1.18-.56,1.74l-2.48,5.87c-.05,.12-.11,.25-.16,.37l-2.87,6.13c-.92,1.96-2.42,3.59-4.3,4.66l-6.39,3.65c-1.39,.79-2.94,1.26-4.53,1.36l-8.09,.52c-.22,.01-.45,.02-.68,.02Zm-9.5-21.68l9.52,.66,4.96-.32,1.39-.8,1.37-2.93,2.04-4.84,1.7-7.45,.4-5.67-.42-4.78-2.2-4.76-3.68-4.72-4.02-4.6-5.24-4.89-14.34-11.85-5.28,2.51-4.78,4.16-7.43,6.92c-.09,.09-.19,.17-.29,.26l-2.68,2.32-.79,7.64c-.05,.51-.14,1.01-.27,1.5l-2.35,9.3,.28,5.6,2.29,3.14,2.93,3.03,4.65,3.44,7.27,2.74,14.94,4.39Zm-11.52-86.85l6.38,5.34,6.9-3.02c.17-.07,.34-.14,.51-.21l8.9-3.35,10.36-4.14,3.67-2.05,3.45-2.11,1.7-1.7,2.55-2.98,1.19-2.88c.08-.21,.17-.41,.27-.61l1.97-4.04,.49-2.73v-9.27l-.59-4.16-.49-1.79-1.57-1.37-6.81-5.48-5.09-3.99-1.97-1.13-1.63-.17-2.32,.32-2.83,1.73c-4.44,2.71-10.21,1.76-13.54-2.25l-1.98-2.38-1.14,.21-6.28,3.43-5.08,4.12-4.69,6.53-2.13,4.27-.84,9.09,2.1,9.82,2.38,9.22,6.16,7.73Z"/>
      </g>
      <g id="_7" data-name="7">
        <path id="big_number-3" data-name="big number" class="cls-3" d="M277.37,349.52l5.75-8.62,6.72-9.21c.09-.13,.18-.26,.27-.39l8.68-13.12c.19-.28,.37-.57,.54-.87l7.12-12.19c.31-.52,.59-1.07,.85-1.64l6.1-13.33c1.25-2.74,1.27-5.89,.04-8.64-1.23-2.75-3.58-4.85-6.46-5.74l-8.58-2.68c-1.24-.39-2.53-.65-3.83-.76l-13.87-1.26c-.55-.05-1.11-.08-1.66-.08h-29.38c-.6,0-1.21,.03-1.8,.09l-9.59,.94c-.09,0-.19,.02-.28,.03l-13.44,1.68h-9.33c-5.8,0-10.5,4.7-10.5,10.5s4.7,10.5,10.5,10.5h9.48c.76,0,1.52-.05,2.29-.14l13.46-1.68,9.33-.92h29.14l10.14,.92-.79,1.73-7.03,12.02-8.51,12.86-6.71,9.2c-.09,.12-.17,.24-.25,.36l-5.8,8.69-7.19,10.22c-.26,.36-.5,.74-.72,1.1l-4.08,6.78-17.84-.6-8.84-1.23c-5.74-.8-11.05,3.21-11.85,8.95-.8,5.74,3.21,11.05,8.95,11.85l9.01,1.25c.64,.09,1.28,.14,1.88,.16l7.06,.24-3.77,7.21c-.15,.29-.29,.58-.4,.83l-7.17,15.69-5.53,12.21-3.13,5.88c-.77,1.44-1.34,2.98-1.7,4.57l-.33,1.45-4.4,6.78c-3.15,4.87-1.77,11.37,3.1,14.52,1.76,1.14,3.74,1.69,5.7,1.69,3.44,0,6.81-1.69,8.82-4.79l4.65-7.16c1.18-1.82,2.03-3.82,2.51-5.94l.36-1.56,3-5.64c.18-.34,.35-.69,.52-1.06l12.69-27.87,8.58-16.41h9.62c.71,0,1.44-.04,2.16-.13l15.43-1.82c1.01-.12,2.02-.32,3.01-.61l12.8-3.73c5.57-1.62,8.77-7.45,7.14-13.02-1.62-5.57-7.45-8.77-13.02-7.14l-12.59,3.67-11.19,1.32,4.01-5.69c.05-.07,.1-.15,.15-.22Z"/>
      </g>
      <g id="_6" data-name="6">
        <path id="big_line-2" data-name="big line" class="cls-3" d="M239.44,467.04c-.09,0-.17,0-.26,0l-24.99-.61c-5.8-.14-10.38-4.96-10.24-10.75,.14-5.8,4.97-10.37,10.75-10.24l24.8,.61,30.08-.39s.09,0,.14,0c5.74,0,10.42,4.61,10.5,10.36,.08,5.8-4.56,10.56-10.36,10.63l-30.28,.39s-.09,0-.14,0Z"/>
        <path id="big_number-4" data-name="big number" class="cls-3" d="M264.14,435.49c-.22,0-.44,0-.67-.02l-10.76-.68c-.25-.02-.5-.04-.75-.07l-10.08-1.37c-.08-.01-.15-.02-.23-.03l-8.02-1.27c-.13-.02-.26-.04-.39-.07l-6.46-1.27c-.83-.16-1.63-.42-2.39-.78l-2.4-1.12-5.04-1.92c-1.33-.51-2.54-1.28-3.56-2.27l-6.36-6.16c-.1-.1-.2-.2-.3-.3l-5.77-6.07c-.67-.7-1.24-1.5-1.69-2.36l-4.11-7.83c-.79-1.51-1.2-3.18-1.2-4.88v-9.78c0-1.74,.43-3.45,1.25-4.98l.44-.82,.89-7.14,.86-13c.02-.33,.06-.65,.11-.98l1.86-11.54c.12-.71,.3-1.42,.56-2.09l5.48-14.28c.05-.14,.11-.27,.17-.41l5.67-13.11c.03-.08,.07-.15,.1-.22l5.77-12.52c.5-1.08,1.17-2.06,2-2.91l9.39-9.69c.91-.94,1.99-1.7,3.18-2.25l7.13-3.25,8.17-5.04c.19-.11,.38-.22,.57-.33l6.24-3.33c5.12-2.73,11.48-.79,14.21,4.32s.79,11.48-4.32,14.21l-5.95,3.17-8.45,5.21c-.37,.23-.76,.43-1.16,.62l-5.92,2.7-6.76,6.98-4.97,10.78-5.54,12.79-4.55,11.86,6.79-.11c.06,0,.11,0,.17,0h6.95c.25,0,.5,0,.75,.03l8.22,.59c.16,.01,.33,.03,.49,.05l8.22,.98c.59,.07,1.17,.19,1.73,.36l10.27,3.03c.9,.26,1.75,.65,2.55,1.14l8.71,5.38c.88,.55,1.68,1.22,2.37,2l5.67,6.46c.61,.69,1.12,1.46,1.53,2.29l3.52,7.14c.71,1.45,1.08,3.03,1.08,4.64v16.83c0,.61-.05,1.22-.16,1.82l-1.27,7.24c-.05,.29-.11,.58-.19,.86l-1.37,5.18c-.1,.37-.21,.73-.35,1.09l-1.96,5.09c-.67,1.75-1.8,3.28-3.26,4.45l-4.3,3.42c-1.26,1-2.74,1.7-4.31,2.04l-5.87,1.27c-.73,.16-1.48,.24-2.22,.24Zm-9.72-21.64l8.93,.57,2.04-.44,.15-.12,.72-1.88,1.11-4.2,1.04-5.9v-13.46l-1.83-3.7-3.72-4.24-6.18-3.82-8.07-2.38-7.09-.84-7.6-.54h-6.49l-9.76,.16-.2,2.95c-.01,.2-.03,.41-.06,.61l-1.17,9.39c-.16,1.29-.56,2.53-1.17,3.67l-.11,.21v4.55l2.23,4.24,4.62,4.85,4.66,4.51,3.37,1.29c.23,.09,.46,.18,.68,.29l1.59,.74,5.02,.99,7.72,1.22,9.59,1.3Z"/>
      </g>
      <g id="_5" data-name="5">
        <path id="big_number-5" data-name="big number" class="cls-3" d="M196.68,434.42c-5.46,0-10.07-4.22-10.46-9.75-.42-5.78,3.94-10.81,9.72-11.22l18.01-1.29,21.09-2.58c1.47-.18,2.87-.64,4.16-1.36l6.45-3.62,9.26-5.84,1.45-1.03c1.59-1.12,2.8-2.67,3.52-4.47,.45-1.14,.69-2.35,.7-3.58l.06-5.7c0-.98-.1-1.97-.32-2.93l-.85-3.61c-.25-1.08-.78-2.1-1.53-2.93l-.17-.19c-1-1.11-2.26-2.01-3.64-2.6l-3.41-1.44c-2.09-.88-4.26-1.64-6.45-2.24l-7.24-1.99-11.14-2.26h-13.62c-3.35,0-6.5-1.6-8.48-4.3-1.98-2.7-2.55-6.19-1.53-9.38l2.49-7.83,1.83-11.91,2.52-15.73,.95-7.62c.93-7.44,6.76-13.4,14.18-14.49l4.57-.67c1.26-.19,2.54-.23,3.81-.12l16.17,1.33,17.57-1.65c.5-.05,1.04-.07,1.56-.07h9.69c.1,0,.19,0,.29,0l14.22,.39c5.8,.16,10.37,4.99,10.21,10.78-.16,5.7-4.83,10.21-10.49,10.21-.1,0-.2,0-.29,0l-14.07-.39h-9.34l-17.75,1.66c-.98,.09-1.97,.1-2.94,.02l-16.05-1.32-.89,.13-.58,4.6c-.02,.12-.03,.24-.05,.36l-2.54,15.85-1.41,9.16h.39c1.11,0,2.23,.11,3.33,.33l11.7,2.38c.38,.08,.74,.16,1.11,.26l7.38,2.03c3.07,.84,6.12,1.9,9.05,3.14l3.41,1.44c4.21,1.78,8.06,4.52,11.12,7.93l.17,.19c3.08,3.44,5.27,7.64,6.33,12.14l.85,3.61c.61,2.59,.91,5.27,.88,7.95l-.06,5.71c-.04,3.81-.77,7.55-2.18,11.1-2.22,5.6-6,10.4-10.93,13.88l-1.68,1.18c-.15,.11-.3,.21-.45,.3l-9.72,6.13c-.15,.09-.3,.18-.46,.27l-6.68,3.76c-3.7,2.08-7.71,3.39-11.92,3.91l-21.33,2.61c-.18,.02-.35,.04-.53,.05l-18.27,1.31c-.26,.02-.51,.03-.76,.03Zm71.68-122.11h-.02s.01,0,.02,0Z"/>
      </g>
      <g id="_4" data-name="4">
        <path id="big_number-6" data-name="big number" class="cls-3" d="M287.42,366.74h-15.11l-8.04-2.69,.23-1.12,3.3-9.52c.19-.55,.34-1.11,.43-1.69l1.36-8.03c.97-5.72-2.88-11.14-8.6-12.11-5.73-.97-11.14,2.88-12.11,8.6l-1.22,7.17-3.24,9.34c-.15,.43-.27,.87-.36,1.31l-.49,2.37-.37-.06c-.52-.08-1.05-.12-1.58-.12h-12.29l-10.03-1.96c-.35-.07-.7-.12-1.06-.15l-1.1-.1,2.66-12.73c.04-.21,.08-.42,.11-.63l2.05-13.95,3.83-13.07,7.8-15.59c.21-.42,.39-.84,.54-1.28l4.3-12.52c1.89-5.48-1.03-11.46-6.52-13.34-5.49-1.89-11.46,1.03-13.34,6.52l-4.08,11.86-7.91,15.81c-.28,.56-.51,1.14-.68,1.74l-4.3,14.67c-.14,.47-.24,.95-.31,1.43l-2.11,14.36-5.02,23.94c-.62,2.93,.05,5.99,1.83,8.4s4.51,3.95,7.49,4.22l12.32,1.13,10.5,2.05c.66,.13,1.34,.19,2.01,.19h11.22v9.59l-1.84,11.38-2.15,14.09c0,.05-.02,.1-.02,.15l-2.35,17.02c-.07,.48-.1,.96-.1,1.43v9c0,5.8,4.7,10.5,10.5,10.5s10.5-4.7,10.5-10.5v-8.28l2.24-16.23,2.13-13.92,1.96-12.13c.09-.55,.13-1.11,.13-1.67v-6.68l6.71,2.25c1.08,.36,2.2,.54,3.33,.54h16.83c5.8,0,10.5-4.7,10.5-10.5s-4.7-10.5-10.5-10.5Z"/>
      </g>
      <g id="_3" data-name="3">
        <path id="big_number-7" data-name="big number" class="cls-3" d="M231.91,436.95h-13.87c-.84,0-1.68-.04-2.5-.13l-8.62-.88c-5.77-.59-9.97-5.74-9.39-11.51,.59-5.77,5.73-9.97,11.51-9.38l8.63,.88c.12,.01,.24,.02,.37,.02h13.87c.15,0,.3,0,.44-.03l12.76-1.58c.11-.01,.2-.03,.29-.05l9.48-1.97c.17-.04,.34-.08,.5-.14l5.97-2.18c.21-.08,.42-.18,.61-.29l3.38-2.01c.52-.31,.96-.75,1.27-1.28l3.41-5.8c.06-.11,.13-.23,.18-.35l4.98-11.06,2.51-5.82c.09-.21,.17-.44,.21-.66l1.09-5c.06-.25,.08-.52,.08-.78v-6.27c0-.07,0-.15,0-.22l-.07-1.12c-.03-.49-.16-.95-.38-1.38l-.14-.29c-.37-.74-.98-1.33-1.71-1.68l-6.78-3.17c-.15-.07-.31-.13-.47-.18l-9.79-3.01c-.5-.15-1.04-.2-1.55-.13l-3.3,.44c-.19,.03-.38,.07-.57,.12l-5.75,1.75c-.44,.13-.89,.26-1.35,.37l-5.55,1.35c-.08,.02-.17,.04-.26,.06l-3.34,.72c-.58,.12-1.16,.23-1.74,.31l-2.95,.42c-1.78,.25-3.59,.31-5.39,.17l-.78-.06c-5.11-.4-9.19-4.43-9.64-9.54-.45-5.11,2.85-9.8,7.82-11.09l2.15-.56,10.33-2.62c.15-.04,.29-.07,.44-.1l3.68-.77c.78-.16,1.5-.59,2.01-1.19l11.65-13.57c.05-.06,.11-.14,.17-.21l4.17-5.67c.07-.09,.13-.19,.2-.3l3.95-6.63c.1-.17,.19-.35,.26-.53l.75-1.91c.17-.42,.25-.87,.25-1.33,0-.51-.11-1.01-.31-1.47l-.45-1c-.25-.55-.63-1.04-1.11-1.41l-3.56-2.72c-.17-.13-.36-.25-.55-.35l-4.46-2.29c-.41-.21-.86-.34-1.32-.38l-11.51-1.06c-.11,0-.22-.02-.33-.02h-14.59c-.1,0-.21,0-.32,.01l-9.92,.86c-.14,.01-.28,.03-.42,.06l-7.81,1.6c-5.68,1.16-11.23-2.5-12.39-8.18-1.16-5.68,2.5-11.23,8.18-12.39l7.81-1.6c.93-.19,1.88-.33,2.82-.41l9.93-.86c.71-.06,1.42-.09,2.12-.09h14.59c.75,0,1.51,.03,2.25,.1l11.51,1.06c3.14,.29,6.16,1.16,8.97,2.6l4.47,2.29c1.31,.67,2.56,1.46,3.72,2.35l3.55,2.71c3.27,2.5,5.89,5.81,7.56,9.58l.45,1c1.41,3.17,2.12,6.53,2.12,10,0,3.09-.57,6.12-1.71,9l-.75,1.92c-.49,1.24-1.08,2.45-1.76,3.59l-3.95,6.64c-.41,.68-.85,1.35-1.31,1.98l-4.18,5.68c-.36,.49-.75,.97-1.15,1.44l-1.3,1.52,5.4,1.66c1.09,.33,2.17,.75,3.21,1.23l6.78,3.17c5.01,2.34,9.12,6.35,11.59,11.3l.14,.29c1.48,2.96,2.33,6.11,2.55,9.39l.07,1.09c.04,.53,.05,1.08,.05,1.64v6.27c0,1.77-.19,3.54-.57,5.26l-1.09,5.01c-.34,1.54-.82,3.05-1.45,4.49l-2.54,5.89c-.02,.05-.04,.1-.07,.15l-5.02,11.14c-.36,.8-.77,1.59-1.21,2.34l-3.41,5.81c-2.09,3.57-5.08,6.57-8.63,8.69l-3.38,2.01c-1.31,.78-2.72,1.45-4.16,1.98l-5.96,2.17c-1.11,.41-2.27,.74-3.45,.98l-9.47,1.97c-.66,.14-1.33,.25-1.99,.33l-12.73,1.58c-.99,.12-2.01,.19-3.03,.19Z"/>
      </g>
      <g id="_2" data-name="2">
        <path id="big_number-8" data-name="big number" class="cls-3" d="M289.48,445.07c-.24,0-.49,0-.74-.03l-21.97-1.52c-1.17-.08-2.33-.29-3.45-.62l-14.69-4.31-18.06-3.91-21.1-.46-29.09,.78c-4.74,.12-8.95-2.92-10.33-7.44-1.37-4.52,.44-9.41,4.44-11.93l17.76-11.21s.08-.05,.12-.07l17.76-10.89,20.53-12.49,11.29-9.67,6.96-10.31c.32-.48,.68-.94,1.05-1.39l6.02-7.14,5.42-12.79,4.11-10.03,1.44-12.93v-9.82l-3.18-6.54-6.44-5.12-5.03-3.42-7.18-.61h-8.38l-10.12,2.07-7.88,3.77-7.07,3.67-5.39,3.59c-4.83,3.22-11.34,1.91-14.56-2.91-3.22-4.82-1.91-11.34,2.91-14.56l5.61-3.74c.5-.33,1.02-.64,1.55-.91l7.43-3.86c.1-.05,.2-.1,.3-.15l8.56-4.1c1.19-.57,2.46-1,3.76-1.26l11.16-2.28c1.07-.22,2.17-.33,3.26-.33h9.05c.46,0,.91,.02,1.37,.06l8.63,.73c2.78,.24,5.46,1.19,7.77,2.75l6.2,4.21c.33,.23,.66,.46,.97,.72l7.43,5.91c1.89,1.5,3.45,3.44,4.5,5.62l4.13,8.49c1.07,2.21,1.64,4.67,1.64,7.12v11.17c0,.6-.03,1.2-.1,1.79l-1.54,13.85c-.16,1.5-.54,2.97-1.12,4.38l-4.39,10.69s-.03,.08-.05,.11l-5.72,13.5c-.64,1.5-1.49,2.89-2.54,4.14l-6.32,7.49-7.17,10.63c-.82,1.21-1.79,2.31-2.9,3.26l-12.06,10.33c-.67,.57-1.39,1.09-2.14,1.55l-24.13,14.7,13.74,.3c1.03,.02,2.07,.14,3.09,.37l18.66,4.04c.37,.08,.75,.18,1.12,.29l14.38,4.22,21.46,1.49c5.79,.4,10.15,5.42,9.75,11.2-.38,5.54-5,9.77-10.46,9.77Zm-40.69-6.44s0,0,0,0h0Zm16.63-108.34s0,0,0,.01h0Zm-53.98-29.48h-.01s0,0,.01,0Z"/>
      </g>
      <g id="_1" data-name="1">
        <path id="big_number-9" data-name="big number" class="cls-3" d="M246.86,455.69c-.07,0-.13,0-.19,0-5.52-.11-9.91-4.67-9.81-10.19l.52-27.29v-17.65c0-.84,.11-1.68,.31-2.49l4.77-18.55,4.7-22.78,.13-40.34c0-.66,.07-1.31,.2-1.95l1.98-9.79,1.18-12.41-5.3,5.27-8.96,9.86c-.56,.61-1.19,1.16-1.88,1.61l-8.48,5.61c-.68,.45-1.4,.81-2.17,1.08l-11.05,3.93-8.23,4.36c-4.88,2.58-10.93,.72-13.52-4.16s-.72-10.93,4.16-13.52l8.87-4.7c.43-.23,.87-.42,1.33-.58l10.59-3.77,6.42-4.25,8.29-9.12c.11-.12,.23-.25,.35-.36l11.57-11.5,11.04-11.24c2.85-2.9,7.16-3.78,10.92-2.25,3.76,1.54,6.21,5.19,6.21,9.26v23.22c0,.31-.01,.63-.04,.94l-1.43,15.13c-.03,.35-.08,.7-.15,1.04l-1.89,9.34-.13,40.36c0,.67-.07,1.34-.21,1.99l-4.96,24c-.03,.16-.07,.31-.11,.47l-4.51,17.56v16.47c0,.06,0,.13,0,.19l-.52,27.39c-.1,5.46-4.56,9.81-9.99,9.81Z"/>
      </g>
      <g id="_0" data-name="0">
        <path id="big_number-10" data-name="big number" class="cls-3" d="M228.43,455.49h-8.91l-7.64-3.46-5.13-4.56-5.19-4.22-4.2-4.04-4.48-6.09-3.68-5.48-3.61-6.87-2.58-5.61-2.17-7.58-.22-11.03-.69-6.72-2.85-13.28-.5-11.3-.61-10.34-.33-27.94v-8.84l2.18-7.62,5.08-9.03,6.18-10.59,6.2-8.62,4.98-7.4,5.54-4.53,6.4-4.8,7.76-3.05,7.7-1.39,4.52-.57,4.48-.74,5.7-.43,23.05,.02,9.01,.53,8.11,6.86,3.27,5.26,1.84,3.28,1.91,4.8,1.34,4.38,.83,3.67,1.25,5.95,.68,7.85,.09,2.66,1.42,4.74,1.39,9.44,1.28,6.09-.02,33.63-.68,12.23-.72,8.3-1.08,6.14-1.73,6.08-2.7,4.8-2.06,3.28-1.36,3.53-2.32,2.81-1.03,2.38-2.18,3.29-2.48,4.28-2.58,2.92-1.28,2.03-1.09,2.06-.8,3.27-2.37,5.05-3.07,3.94-6.19,5.76-3.22,3.35-3.66,3.57-5.33,3.42-6.07,2.21-6.09,1.34-9.31,.9Zm-4.52-20.31h3.54l7.12-.69,3.58-.79,2.68-.97,1.69-1.08,2.06-2.01,3.44-3.57,5.28-4.92,.64-.83,.55-1.17,.92-3.75,2.83-5.29,2.35-3.73,2.33-2.64,1.96-3.34,1.35-2.04,1.45-3.35,2.05-2.49,.89-2.3,2.97-4.72,1.14-2.04,.79-2.79,.82-4.65,.55-6.75,.64-11.56v-30.68l-1.02-4.94-1.22-8.28-1.76-5.85-.17-5.01-.52-5.81-1.67-7.73-.88-2.79-1-2.47-1.09-1.95-1.22-1.96-.5-.43-1.95-.12h-21.74l-4.01,.33-3.83,.66-4.48,.56-4.91,.9-3.37,1.32-4.02,3.02-2.72,2.23-3.59,5.32-6,8.33-5.35,9.25-3.82,6.79-.74,2.58v5.93l.33,27.52,.59,9.86,.43,9.68,2.72,12.69,.9,9.08,.17,8.81,1.01,3.55,1.81,3.94,2.73,5.17,2.96,4.41,3.07,4.16,2.63,2.53,4.73,3.82,3.02,2.69,.84,.38Z"/>
      </g>
    </g>
  </g>
</svg>