<?xml version="1.0" encoding="utf-8"?>
<!-- Generator: Adobe Illustrator 27.0.1, SVG Export Plug-In . SVG Version: 6.00 Build 0)  -->
<svg version="1.1" id="Card" xmlns="http://www.w3.org/2000/svg" xmlns:xlink="http://www.w3.org/1999/xlink" x="0px" y="0px"
	 viewBox="0 0 480.9 718" style="enable-background:new 0 0 480.9 718;" xml:space="preserve">
<style type="text/css">
	.st0{fill:#FFFFFF;}
	.st1{fill:#111111;}
	.st2{fill:#5190FC;}
	.st3{fill:#FF002C;}
	.st4{fill:#FFAD00;}
	.st5{fill:#3CE53E;}
</style>
<path id="background" class="st0" d="M460.4,515.7c0-31.1,0.4-75.4-4.4-105.9c-0.9-30-4.5-65.7-5.4-95.6
	c2.5-64.7-8.3-136.3,1.2-200.6c4.6-20.4,3.5-53.4,4.7-74.3l-0.9-5.8c-1-1.4-2.7-4.5-3.6-6c-3.4-2.5-8.4-4.6-12.6-4.2
	c-5.2-1.5-12.8-3.3-17.8-5.4c-7.5-0.2-22.7-1.4-30.1-2.1l-17.1-0.7c-6.5-1.9-21.7-3-28.5-3.4c-29.6-2.5-73.7-1.7-103.4-1.8
	c-42.4,1-123.5-4.1-164.7,4.2c-9.6-0.3-20.4,5.5-29.9,5.7c-4.2,4.3-11.7,5.2-17.4,6c-4.9,3.9-5.9,4.4-8.5,10c-4,7.1-3,23.3-3.1,31.3
	c-0.6,24.8,1.5,66,1.4,90.9l1.6,10.6c-0.3,43.5-1,109.1-2.3,152.4c-1.2,19.9-1.1,50.6-3.2,70.4c-1.7,10-2.1,26-2.7,36.3
	c-1.6,1.5-1.9,49.2-2.1,52.2c-0.2,5.9-0.8,25.2-2.1,30.8v26.7c1.7,7,1.8,17.5,3.2,24.5c1.6,1.9,1.7,5.1,2,7.3
	c0.7,1.3,1.8,4.2,2.3,5.7l0.5,6.9l1.3,4.8l0.4,32.7c-1.5,9.8-2,29.9-1.7,39.9c0.4,1.1,3.2,4.1,4.2,5c2.4,4.5,7.1,10,10.5,13.8
	c2.8,1.1,6,2.9,8,5.2c1.5,2,5,5.2,7.1,6.6c6.4,1.7,13.5,4.4,20.1,5.3l7.3,2.4l11.3,0.5l5.5,2.1l8.4,1.1c5.9,1.3,13.2,2.6,18.8,4.6
	l5.2,1.5h18.2c6-1.1,17.7-2.8,23.8-3.3c14.6-0.7,37.6-0.9,51.9,1.4c5.4,0.3,79,0.2,81.4,1.9c2.6,1.2,9.3,1.6,12.1,1.8h52.7
	c3.5-0.9,10.7-1.7,14.3-1.8c4.3-0.6,13.9-2,18.3-2.5l16.2-0.5l11.1-2.3l8.1-0.7l3.9-1.2c4.2-1,10.7-1.1,14.7-3.1l5.1-1.9l2.9-3.1
	l2.2-4c1-4.7,1.4-15.4,1.8-20.2l0.8-12.4l2.4-5.8l0.8-5.2c1.7-5,3.2-12.4,4.4-17.5l0.9-19.2l-0.2-18c-0.6-2.6-1.3-8.1-1.9-10.7
	l-2.3-3l-0.9-6.6c-1.9-4.6-2.6-11.8-4-16.5C461.7,543.3,459.8,525,460.4,515.7L460.4,515.7z"/>
<path id="border" class="st1" d="M154.6,9.1c26.5,0,53.5,0.8,74.7,0.8c4.7,0,9.1,0,13.2-0.1c1.5,0,3.1,0,4.7,0
	c10.1,0,21.5-0.1,33.3-0.1c22.8,0,46.9,0.3,65.4,1.9c6.8,0.5,22,1.6,28.5,3.4l17.1,0.7c7.4,0.6,22.6,1.8,30.1,2
	c5,2.2,12.5,4,17.8,5.4c0.3,0,0.6,0,0.9,0c4,0,8.5,2,11.7,4.3c0.9,1.5,2.6,4.6,3.6,6l0.9,5.8c-1.2,20.9-0.1,53.9-4.7,74.3
	c-9.5,64.4,1.3,136-1.2,200.6c0.9,30,4.5,65.7,5.4,95.6c4.8,30.5,4.4,74.8,4.4,105.9c-0.6,9.3,1.2,27.6,2,36.7
	c1.4,4.8,2.1,11.9,4,16.5l0.9,6.6l2.3,3c0.7,2.6,1.4,8.1,1.9,10.7l0.2,18l-0.9,19.2c-1.2,5.1-2.7,12.5-4.4,17.5l-0.8,5.2l-2.4,5.8
	l-0.8,12.4c-0.5,4.8-0.8,15.5-1.8,20.2l-2.2,4l-2.9,3.1l-5.1,1.9c-3.9,2-10.5,2.1-14.7,3.1l-3.9,1.2l-8.1,0.7l-11.1,2.3l-16.2,0.5
	c-4.4,0.5-14,1.9-18.3,2.5c-3.6,0.1-10.8,1-14.3,1.8h-52.7c-2.8-0.2-9.5-0.7-12.1-1.8c-2.4-1.7-76-1.6-81.4-1.9
	c-8.6-1.4-20.5-1.9-31.8-1.9c-7.3,0-14.3,0.2-20.1,0.5c-6,0.5-17.7,2.2-23.8,3.3h-18.2l-5.2-1.5c-5.7-2-13-3.3-18.8-4.6l-8.4-1.1
	l-5.5-2.1l-11.3-0.5l-7.3-2.4c-6.6-0.9-13.7-3.7-20.1-5.3c-2.1-1.4-5.6-4.6-7.1-6.6c-2-2.2-5.2-4.1-8-5.2
	c-3.4-3.8-8.1-9.2-10.5-13.8c-0.9-0.8-3.8-3.8-4.2-5c-0.3-10,0.3-30.1,1.7-39.9l-0.4-32.7l-1.3-4.8l-0.5-6.9
	c-0.5-1.4-1.7-4.3-2.3-5.7c-0.4-2.2-0.4-5.4-2-7.3c-1.5-7-1.5-17.5-3.2-24.5v-26.7c1.3-5.6,1.9-24.9,2.1-30.8
	c0.3-3,0.5-50.8,2.1-52.2c0.6-10.2,1-26.2,2.7-36.3c2.1-19.7,1.9-50.5,3.2-70.4c1.3-43.3,2-108.9,2.3-152.4L20.3,158
	c0.1-24.9-2-66.1-1.4-90.9c0.1-8-0.9-24.2,3.1-31.3c2.6-5.6,3.7-6.1,8.5-10c5.6-0.8,13.2-1.7,17.4-6C57.2,19.5,67.6,14,77,14
	c0.3,0,0.5,0,0.8,0C97.3,10.1,125.6,9.1,154.6,9.1 M154.6,0L154.6,0C118.8,0,94.1,1.5,77,4.9c-6.1,0-11.9,1.6-17.5,3.2
	c-4.4,1.2-8.5,2.4-11.9,2.5l-3.8,0.1l-2.6,2.7c-1.7,1.8-7.5,2.6-11,3.1l-1.1,0.2l-2.5,0.4l-1.9,1.6c-0.5,0.4-0.9,0.7-1.3,1
	c-4.5,3.5-6.6,5.4-9.7,11.9c-4.1,7.5-4.3,18.5-4.1,31.1c0,1.6,0,3,0,4.3c-0.3,14,0.2,32.8,0.7,51.1c0.4,14.9,0.8,28.9,0.7,39.9h0.1
	c0,1.1,0.2,2.1,0.3,3.1l0.6,3.6l0.7,4.6c-0.2,30.1-0.9,103.3-2.3,151.3c-0.5,8.1-0.8,17.6-1.1,27.8c-0.4,14.9-0.9,30.3-2.1,41.8
	C6,398.2,5.5,409.2,5,419c-0.1,2.4-0.2,4.7-0.3,6.7c-0.8,3.1-1.1,8.1-1.4,17.4c-0.3,8.6-0.5,18.9-0.6,26.4c-0.1,4.2-0.2,8.6-0.2,9.5
	v0.2l0,0.2l0,1.3c-0.5,15.5-1.2,24.8-1.8,27.7L0,510.9l0.3,1c0,5.4,0,25.3,0,25.3v1.1l0.3,1.1c0.8,3,1.2,7.5,1.6,11.7
	c0.4,4.3,0.8,8.7,1.6,12.4l0.5,2.3l1,1.2c0.1,0.5,0.2,1.2,0.3,1.7c0.1,0.6,0.2,1.2,0.3,1.8L6,572l0.7,1.3c0.3,0.6,0.9,2.1,1.4,3.4
	l0.4,5.6l0.1,0.8l0.2,0.8l1,3.7l0.3,30.9c-1.5,10.8-2,30.8-1.7,40.8l0,1.3l0.4,1.3c1,2.9,3.9,6.1,5.6,7.8c2.3,3.9,5.9,8.5,11,14.2
	l1.5,1.6l2,0.8c2,0.8,3.7,1.9,4.4,2.6c2.2,2.7,6.2,6.3,9,8.2l1.3,0.8l1.5,0.4c2,0.5,4.2,1.2,6.4,1.9c4.5,1.4,9.1,2.8,13.8,3.5
	l0.4,0.1l2.5,0.8l3.7,1.2l1.2,0.4l1.3,0.1l9.8,0.4l4.1,1.6l1,0.4l1.1,0.1l8,1c0.9,0.2,1.9,0.4,2.9,0.6c4.8,1,10.3,2.2,14.4,3.6l0,0
	c0.2,0.1,0.4,0.1,0.6,0.2l0.6,0.2l1.8,0.5l2.6,0.8l1.3,0.4H143l0.8-0.2c5.9-1.1,17.1-2.6,22.7-3.2c6.1-0.3,13-0.5,19.4-0.5
	c12.7,0,23.2,0.6,30.3,1.8l0.5,0.1l0.5,0c1.6,0.1,6.9,0.1,17.7,0.2c16.5,0.1,54.5,0.4,61.3,1.3c3.1,1.2,7.4,1.7,13.4,2.2l0.8,0.1v0
	c0.4,0,0.9,0.1,1.3,0.1h7.6h18.1h27.5l1.1-0.3c2.6-0.7,9.2-1.5,12.4-1.6l0.5,0l0.5-0.1l1.4-0.2c4.4-0.6,12.3-1.8,16.3-2.2
	c2.4-0.1,15.8-0.5,15.8-0.5l0.8,0l0.8-0.2l10.6-2.2l7.6-0.7l1-0.1l1-0.3l3.5-1.1c1-0.2,2.5-0.4,4-0.7c3.9-0.5,8.2-1.2,12-3
	c1-0.4,2.5-0.9,4.5-1.7l1.9-0.7l1.4-1.5l2.9-3.1l0.8-0.9l0.6-1.1l2.2-4l0.6-1.1l0.3-1.3c0.9-3.9,1.3-10.2,1.6-15.7
	c0.1-2.2,0.3-4.2,0.4-5.5l0.5-5l-0.1-0.1c0.1-2.2,0.3-4.6,0.4-6.1l1.8-4.4l0.4-1l0.2-1.1l0.6-4.3c1.3-3.9,2.4-8.6,3.3-12.8
	c0.4-1.7,0.7-3.3,1.1-4.6l-0.1,0c0.2-0.8,0.3-1.6,0.4-2.6l0.1-2.2l0.3-6.6l0.5-9.6v-0.3v-0.3l-0.2-18v-1l-0.2-0.9
	c-0.2-0.9-0.5-2.5-0.7-4.1c-0.4-2.2-0.7-4.5-1.1-6.3c-0.4-2-1.5-3.5-2.6-5l-0.6-4.2l-0.2-1.1l-0.4-1c-0.8-1.9-1.4-5.3-2-8.2
	c-0.4-2.2-0.9-4.5-1.4-6.5c-0.1-1.4-0.2-2.9-0.4-4.6c-0.8-9.1-2-23-1.5-29.9l0-0.3v-0.3l0-5.1c0.1-30.5,0.2-72.1-4.4-101.7
	c-0.5-15-1.6-31.5-2.7-47.5c-1.1-16-2.2-32.5-2.7-47.3c1-25.8-0.1-53-1.2-79.3c-1.6-40.2-3.3-81.7,2.2-119.8
	c3.4-15.2,3.8-36.2,4.2-54.7c0.2-7.6,0.3-14.8,0.6-20.8l0.6-10.9l-2.6,0.3l-0.6-0.9c-0.5-0.7-1.6-2.7-2.3-3.9
	c-0.3-0.6-0.6-1.1-0.9-1.5l-1-1.6l-1.5-1.1c-5.1-3.8-11.4-6-16.9-6.1c-0.9-0.2-1.8-0.5-2.7-0.7c-4.4-1.2-9.4-2.5-12.6-3.9l-1.6-0.7
	l-1.8-0.1c-7.2-0.2-22-1.4-29.6-2l0,0c-0.2,0-0.4,0-0.6,0l-0.5,0l-1.9-0.1l-5.9-0.2L375.9,6c-6.8-1.7-18.5-2.7-29.1-3.5
	c-19.4-1.7-44.3-1.9-66.1-1.9c-6.1,0-12.2,0-18,0c-5.3,0-10.5,0-15.3,0c-1.6,0-3.2,0-4.7,0h-0.1h-0.1c-3.8,0.1-8.1,0.1-13,0.1
	c-9.9,0-21.2-0.2-33.1-0.4C182.7,0.2,168.7,0,154.6,0L154.6,0z"/>
<path id="bottom_color" class="st1" d="M423.5,339.1v29.6l1.6,32.4v21.4c0,2,0.3,4,0.8,6l0.5,1.8c0.3,1.3,0.6,2.6,0.7,3.9l1,11.3
	l1.3,17.2l0.7,16.1c0,0.6,0.1,1.2,0.1,1.8l1.1,8.8c0.1,0.5,0.1,1,0.2,1.5l1.1,6l1.4,8.3c0.1,0.9,0.4,1.7,0.6,2.6l1.5,5.2
	c0.2,0.6,0.3,1.2,0.5,1.8l1.7,8.1l1.8,9.6c0.1,0.7,0.2,1.5,0.3,2.2l1.2,12.3l1.7,13.9c0.2,1.4,0.2,2.8,0.1,4.1l-0.7,12.6
	c0,0.8-0.1,1.7-0.3,2.5l-1.4,8.6c-0.1,0.5-0.1,0.9-0.2,1.4l-0.9,8c-0.1,1-0.1,1.9-0.1,2.9l0.1,6.2c0,2.6-0.3,5.2-1.1,7.6l-1.2,3.7
	c-0.4,1.2-0.9,2.4-1.5,3.5l-0.3,0.6c-0.8,1.4-1.4,3-1.8,4.5l-1,3.6l-1.6,4.9c-0.2,0.6-0.4,1.1-0.6,1.7l-1.9,4.6
	c-0.3,0.7-0.6,1.4-1,2l-1.2,2.2c-0.8,1.5-1.7,2.8-2.7,4.1l-1.1,1.3c-0.9,1.1-1.9,2.1-3,3l-3,2.5c-1.5,1.2-3.1,2.2-4.8,3.1l-6.8,3.3
	l-4.6,2c-1.4,0.6-2.8,1-4.3,1.3l-7.4,1.6l-9.1,1.7l-9.9,1.3c-0.5,0.1-1,0.1-1.4,0.1l-13.3,0.9c-0.4,0-0.8,0-1.2,0l-28,0.4h-30.6
	c-1.1,0-2.1-0.1-3.2-0.2l-8.9-1.2c-1-0.1-2-0.2-3.1-0.2l-98.4-0.5c-1,0-2.1-0.1-3.1-0.2l-16.4-2.3c-0.7-0.1-1.4-0.2-2.1-0.2
	l-21.6-1.1c-0.6,0-1.1-0.1-1.7-0.1l-11.1-1.4c-1.7-0.2-3.3-0.6-4.8-1.1l-12.2-4.3l-12.2-3.6l-10.3-3.4c-0.5-0.2-1.1-0.4-1.6-0.6
	l-5.4-2.2c-1.8-0.7-3.5-1.7-5.1-2.9l-2.6-1.9c-0.7-0.5-1.4-1.1-2.1-1.8l-3.3-3.2c-0.5-0.5-1-1-1.4-1.5l-0.9-1.1
	c-1.6-1.8-2.9-3.8-3.9-6l-0.3-0.8c-0.5-1.1-0.9-2.2-1.2-3.3l0,0c-0.8-3.1-2.3-5.9-4.3-8.4l-0.6-0.7c-0.3-0.4-0.7-0.8-1-1.3l-3.3-4.7
	c-0.8-1.2-1.5-2.4-2.1-3.7l-2.9-6.5l-3.7-9l-2.2-5.9c-0.6-1.7-1.1-3.5-1.3-5.3l-1.7-14.1c0-0.4-0.1-0.8-0.1-1.2L34,548l-0.5-27
	c0-0.4,0-0.8,0-1.3l0.7-19.1c0-0.9,0.1-1.8,0.2-2.7l1.3-8.7c0.1-0.9,0.3-1.9,0.6-2.8l2.8-9.8c0.2-0.6,0.3-1.3,0.5-2l1.6-8.2l1.2-7.2
	c0.2-0.9,0.3-1.9,0.3-2.8l0.1-2.7l4.7,11.5c0.6,1.5,1.4,3,2.3,4.4l5,7.3l7.2,11.4l3.4,5.2c1.1,1.6,2.4,3.1,3.8,4.5l6.2,5.6
	c0.5,0.4,1,0.9,1.5,1.2l3.1,2.3c0.7,0.5,1.3,1,2.1,1.4l5.2,3.1l8.8,5.4c0.9,0.5,1.8,1,2.8,1.5l7.2,3.2c1.1,0.5,2.3,0.9,3.5,1.2
	l5.1,1.3c1.7,0.5,3.4,0.7,5.2,0.8l9.4,0.3l21.3,0.7l29.1,0.4l29.9-0.1c0.6,0,1.3,0,1.9-0.1l9.6-0.8c0.9-0.1,1.7-0.2,2.5-0.4l7.6-1.5
	c1.5-0.3,3-0.8,4.4-1.3l6.4-2.7c0.6-0.2,1.2-0.5,1.8-0.7l4.3-1.4c1.4-0.5,2.9-0.8,4.3-1l5.9-0.7c1-0.1,2-0.3,3-0.6l5.5-1.4l6.2-1.9
	c1.4-0.4,2.8-1,4-1.6l5.5-2.8c0.8-0.4,1.5-0.8,2.2-1.3l5.8-3.9c0.6-0.4,1.2-0.8,1.7-1.3l6.7-5.5l7.5-5.5c0.5-0.4,1.1-0.8,1.7-1.1
	l6.4-3.9l9.8-5.7c0.6-0.4,1.2-0.7,1.9-1l9.3-4.4l5.5-2.6c0.9-0.4,1.8-0.9,2.7-1.5l5-3.2c0.7-0.5,1.4-1,2-1.5l4.6-3.7
	c0.8-0.6,1.5-1.3,2.2-2.1l3.7-3.9c0.3-0.4,0.7-0.7,1-1l5.1-4.7c1-0.9,1.8-1.8,2.6-2.9l4.7-6.1c0.5-0.6,0.9-1.3,1.4-2l9.7-15.7
	c0.5-0.8,0.9-1.6,1.3-2.4l4.4-9.3l5.6-12.4l5.7-12.3l5.7-11.7l4.4-9.6l4.7-11l3.6-9.5c0.2-0.5,0.4-0.9,0.5-1.4L423.5,339.1
	L423.5,339.1z"/>
<path id="top_color" class="st1" d="M47,341l1.7-3.2c0.9-1.6,1.3-3.5,1.3-5.3v-6.6c0-1,0.1-2,0.4-2.9l1.1-3.9
	c0.2-0.7,0.5-1.5,0.8-2.1l3.6-7c0.3-0.5,0.6-1.1,1-1.6l3.1-4.2c0.6-0.8,1.2-1.4,1.9-2l4-3.2l5.1-4.2c0.2-0.2,0.4-0.4,0.7-0.6
	l4.8-4.6c0.1-0.1,0.3-0.3,0.4-0.4l5.1-5.4c0.1-0.1,0.3-0.3,0.4-0.5l5.3-6.4c0.2-0.3,0.4-0.5,0.7-0.7l6.4-6.4
	c0.2-0.2,0.4-0.4,0.7-0.6l7.3-6.2l7.2-5.9l6.8-5.6c0.2-0.2,0.4-0.3,0.6-0.5l4.1-3.9c0.2-0.2,0.5-0.5,0.7-0.8l0.4-0.5
	c1.2-1.3,2.6-2.4,4.3-3l0,0c0.3-0.1,0.6-0.2,0.8-0.4l2.2-1.1c0.3-0.2,0.6-0.3,0.9-0.5l3.4-2.1c0.6-0.4,1.2-0.7,1.8-0.9l4.1-1.6
	c0.3-0.1,0.5-0.2,0.8-0.4l7-3.4c0.4-0.2,0.8-0.4,1.2-0.7l5.3-3.5c0.4-0.3,0.8-0.5,1.3-0.7l6.7-3.2c0.2-0.1,0.5-0.2,0.7-0.4l7.3-4.2
	c0.4-0.2,0.8-0.4,1.2-0.6l5.5-2.4c0.2-0.1,0.4-0.2,0.6-0.3l5.3-2.6c0.4-0.2,0.9-0.5,1.3-0.7l4.3-2.9c0.4-0.2,0.7-0.5,1.1-0.7
	l4.5-2.3c0.4-0.2,0.8-0.4,1.2-0.7l2.5-1.7c0.4-0.3,0.9-0.5,1.3-0.8l3.6-1.8l2.5-1.4c1.2-0.6,2.4-1.1,3.8-1.2l14.6-2.1l10.7-1.2
	c1.1-0.1,2.2-0.4,3.2-0.9l1.2-0.5c1.2-0.5,2.5-0.8,3.8-0.9l10.8-0.6c0.2,0,0.4,0,0.7-0.1l5.8-0.7c0.2,0,0.5-0.1,0.7-0.1l5.3-1
	c0.2,0,0.5-0.1,0.7-0.1l12.1-1.5l12.8-1.6c0.4,0,0.7-0.1,1.1-0.1l34.8-0.7c0.5,0,1,0,1.5,0.1l8.3,1l7.6,0.8c0.8,0.1,1.5,0.2,2.3,0.5
	l4.2,1.4c0.2,0.1,0.4,0.1,0.6,0.2l5.1,1.3c0.3,0.1,0.6,0.2,0.9,0.3l6.6,2.3l7.6,2.8c0.3,0.1,0.5,0.2,0.8,0.3l6.7,3.1
	c0.2,0.1,0.5,0.2,0.7,0.4l7.6,4.2c0.3,0.1,0.5,0.3,0.8,0.5l4.4,2.9c0.2,0.1,0.3,0.2,0.5,0.4l7.7,5.8l5,4.1c0.2,0.2,0.4,0.4,0.6,0.6
	l4.5,4.2c0.3,0.3,0.6,0.6,0.9,0.9l3.3,4c0.2,0.2,0.4,0.5,0.6,0.8l3.6,5.2l3,4.3c0.4,0.6,0.8,1.3,1.1,2l0.8,2
	c0.1,0.4,0.3,0.7,0.4,1.1l1.1,3.6c0.1,0.3,0.2,0.6,0.2,0.9l1.4,6.6l0.6-15.6c0-0.2,0-0.4,0-0.6l-0.5-23c0-0.4,0-0.8-0.1-1.3
	l-1.5-11.3c-0.1-0.5-0.1-0.9-0.1-1.4l-0.1-18.4l0-7.8c0-0.5,0-1.1,0.1-1.6l0.9-6.5c0.1-0.5,0.1-1,0.1-1.5l0-7.5c0-0.2,0-0.4,0-0.6
	l-0.4-8.3c0-0.8-0.2-1.5-0.4-2.3l-1-3.8c-0.1-0.3-0.2-0.6-0.3-0.9l-1.2-3.4c-0.1-0.3-0.2-0.6-0.4-0.9c-0.6-1.3-2.4-5.1-2.4-5.2
	s0-4.1,0.1-5.4c0-0.3,0-0.6,0.1-0.9l0.7-6.3c0-0.4,0.1-0.9,0.1-1.3l-0.4-24.3c0-1.2-0.2-2.3-0.6-3.4l-0.2-0.7
	c-0.2-0.5-0.4-0.9-0.6-1.4l-1.5-3c-0.4-0.7-0.8-1.4-1.3-2l-1.6-2c-0.3-0.4-0.7-0.8-1.1-1.2l-2.8-2.7c-0.3-0.2-0.5-0.5-0.8-0.7
	l-3.8-3l-2.9-2.3c-0.6-0.5-1.3-0.9-2-1.2l-2.9-1.4c-0.9-0.4-1.7-1-2.4-1.6l-1.9-1.7c-0.2-0.2-0.4-0.4-0.6-0.5l-4.5-3.4
	c-0.2-0.2-0.5-0.4-0.8-0.5l-5.1-3.3c-0.2-0.1-0.5-0.3-0.7-0.4l-5.4-2.9l-7.3-3.8c-0.4-0.2-0.8-0.4-1.2-0.5l-5-1.9
	c-0.2-0.1-0.4-0.1-0.6-0.2l-7.9-2.5l-7.2-2c-0.4-0.1-0.8-0.2-1.1-0.2l-7.8-1.3c-0.2,0-0.5-0.1-0.7-0.1l-9.5-0.9l-16.7-0.8l-25.6-0.4
	l-40.1,0.4c-0.4,0-0.7,0-1.1,0.1l-8.6,1c-0.4,0-0.8,0.1-1.2,0.1l-37.2,0.2c-0.4,0-0.7,0-1.1,0l-13.5-1.2c-0.2,0-0.5-0.1-0.8-0.1
	l-7.2-1.2c-0.2,0-0.4-0.1-0.6-0.1l-6.9-1.5c-0.4-0.1-0.8-0.2-1.2-0.2l-8.8-0.9c-0.4,0-0.8-0.1-1.2-0.2l-7.5-1.6L144,35
	c-0.2,0-0.5-0.1-0.7-0.1l-8.2-1.2c-0.7-0.1-1.5-0.1-2.2-0.1l-4.7,0.3c-0.7,0-1.4,0.2-2.1,0.3l-7.8,2c-0.4,0.1-0.7,0.2-1.1,0.2
	l-5.8,0.9c-0.4,0.1-0.8,0.1-1.2,0.2l-6.4,1.7l-5.5,1.6c-0.7,0.2-1.5,0.4-2.2,0.4L87,42c-0.8,0.1-1.7,0.2-2.5,0.5l-5.3,1.7
	c-0.5,0.2-1,0.4-1.5,0.6l-3.9,1.9c-1.2,0.6-2.2,1.3-3.1,2.2l-2.4,2.5L64.7,55c-0.4,0.4-0.8,0.8-1.1,1.2l-2.8,3.6
	c-0.2,0.3-0.4,0.6-0.6,0.9L57.5,65c-0.4,0.6-0.7,1.2-1,1.9l-1.3,3.4c-0.3,0.9-0.5,1.8-0.7,2.7l-1,9.1c-0.1,0.6-0.1,1.2-0.1,1.7
	l1.9,43.8c0,0.2,0,0.4,0,0.6l-0.7,50.1c0,0.3,0,0.5,0,0.8l-3,34.7l-3.3,23.7c0,0.3-0.1,0.6-0.1,0.9l-1.5,28l-0.6,24.6l-0.2,32.3
	l0.2,17.3C46.3,341.1,46.8,341.3,47,341L47,341z"/>
<g id="colors">
	<path id="blue" class="st2" d="M229.5,341.4c0.8,0,1.6,0,2.4-0.1c3.1-0.1,5.7-0.4,7.9-0.6c1.5-0.1,3-0.3,4.4-0.4l0.9,0l0.1-0.9
		c1-15.5,3-32.8,13.8-42.2c4-3.4,8.8-5.4,14.3-6l0.9-0.1v-0.9c0.2-24.4-4.1-38.7-27.3-39.7c-18.7-1.1-33.6,3.7-41.9,13.5
		c-7.9,9.3-10,23-6.2,39.8c0.1,0.3,0.1,0.5,0.1,0.9c0,0.5,0.9,12.5,1,14.4c0.3,1.9,0.4,4.9,0.6,10.1c0.2,4.1,0.5,12.7,1.3,20.6
		l0.3,2.9l1.6-2.4c1.9-2.9,4.7-5.1,8.2-6.5C217.5,341.6,223.8,341.5,229.5,341.4L229.5,341.4z"/>
	<path id="red" class="st3" d="M189.6,329.7c-0.2-4-0.3-7.8-0.5-9.1c0-0.2,0-0.3-0.1-0.5l-0.7-9.9h-1.1c-10.8,0-20.4,4.3-26.6,11.8
		l-0.1,0.2l-0.1,0.2c-4.1,17.8-5.2,37.5-6.2,56.5c-0.6,10.2-1.1,20.8-2.2,31v0.1v0.1c0.8,6.6,2.4,10.9,4.7,12.7
		c0.4,0.4,1.6,1.3,4.4,1.3c0.7,0,1.4,0,2.3-0.2c0.2,0,0.3,0,0.5,0c4.3-0.3,8.8-0.5,13.6-0.7c6.3-0.3,13.4-0.6,19.7-1.1l0.9-0.1l0-1
		c-0.4-9.9,0.5-20.4,1.5-30.6c0.4-4.6,0.8-8.8,1.1-13l0-0.6l-0.6-0.3C192.7,372.2,190.8,358,189.6,329.7L189.6,329.7z"/>
	<path id="yellow" class="st4" d="M261.6,427c0.1-3.4,0.2-10.4-0.2-13l-0.2-0.5l-0.4-0.2c-2.1-1.2-5.6-3.2-10.2-9.4
		c-0.5-0.7-0.9-1.5-1-2.4c-1-6.3-1.3-13.6-1.6-20.6c-0.3-6.8-0.6-13.8-1.5-19.6c-0.1-0.3-0.1-0.6-0.1-0.8c0-3.9-0.2-6.7-0.6-8.3
		l-0.2-0.8l-0.8,0c-1.1,0-2.6,0.2-3.8,0.3c-2.4,0.2-5.3,0.5-8.8,0.6c-0.8,0-1.6,0-2.5,0.1c-14.3,0.3-17.8,2-17.7,8.4
		c0.5,9.9-0.5,20.4-1.5,30.6c-0.9,10-1.9,20.2-1.4,29.5c0,0.2,0,0.4,0,0.7c-1,14.4,0.2,38.9,19.8,40.8l0.2,0
		c3.2,0.4,6.2,0.6,8.9,0.6c7.6,0,13.2-1.7,16.9-5.1c5.4-5.1,7.6-15,6.7-30.4C261.6,427.3,261.6,427.2,261.6,427L261.6,427z"/>
	<path id="green" class="st5" d="M322.6,305.9l-0.2-0.1l-0.3,0c-5.1-0.4-10.3-1.1-15.3-1.8c-9-1.3-18.2-2.6-26.6-1.7h-0.1
		c-0.2,0-0.3,0-0.5,0h-0.1c-0.1,0-0.2,0-0.3,0c-5.4-0.5-9.6,0.6-12.9,3.4c-8.4,7.2-9.5,24.9-10.2,37.8l-0.2,2.8c0,0.2,0,0.4-0.1,0.6
		l-0.1,0.3l0.1,0.2c1,2.8,1.5,6.4,1.6,12.6v0.1c1,6.3,1.3,13.5,1.6,20.4c0.2,6.1,0.5,12.4,1.2,17.7l0,0.3l0.2,0.2
		c2.2,2.8,3.8,3.9,5.1,4.7l0.2,0.1h0.3c0.1,0,0.3,0,0.4,0c4.4,0.4,8.5,0.5,12.4,0.5c19.2,0,32.6-4.3,40-12.7l0.1-0.2l0.1-0.2
		c1.6-5.4,2.4-11.4,3.1-17.8c0.8-6.8,1.6-13.8,3.7-20.4l0-0.1C332,328.3,330.8,311.3,322.6,305.9L322.6,305.9z"/>
</g>
<path id="white_outline" class="st0" d="M326.8,294.6c-0.8-0.4-1.6-0.6-2.5-0.7c-5-0.3-10.2-1-15.8-1.8c-7.3-1-14.8-2.1-22.2-2.2
	c0.3-20.4-2.6-49.8-38.7-51.3c-22.5-1.3-40.9,5-51.7,17.7c-9,10.6-12.4,25-10.2,41.9c-14.4,0.4-27.2,6.7-35.4,17.6
	c-0.5,0.7-0.9,1.5-1.1,2.4c-4.6,19.2-5.8,40-6.8,60c-0.6,10.3-1.1,21-2.2,31c-0.1,0.5-0.1,0.9,0,1.4c0.8,7.3,2.6,16.4,9.4,21.6
	c3.2,2.5,7.1,3.8,11.7,3.8c1.2,0,2.5-0.1,3.8-0.3c4.1-0.3,8.4-0.4,13.1-0.6c6.4-0.3,12.9-0.5,19-1c1.4,24,12.2,38.4,30.7,40.3
	c3.6,0.5,7.1,0.7,10.2,0.7c10.9,0,19.2-2.8,25.2-8.3c8.3-7.7,11.6-20.3,10.5-39.6c0.1-4.6,0.2-8.3,0-11.2c1.7,0.1,3.4,0.1,5,0.1
	c23.9,0,40.8-6.1,50.4-18.1c0.5-0.6,0.8-1.3,1.1-2c2.3-6.9,3.2-14.3,4-21.4c0.8-6.6,1.5-12.8,3.3-18.3c0-0.1,0.1-0.3,0.1-0.4
	C345.8,323.2,342.1,302.1,326.8,294.6L326.8,294.6z M205.8,264.7c8.1-9.6,22.7-14.2,41.1-13.1c0,0,0.1,0,0.1,0
	c21.7,0.9,26.5,13.8,26.3,38.7c-5.7,0.6-10.7,2.7-14.8,6.2c-11.4,9.8-13.2,28.2-14.2,42.9c-1.5,0-3,0.2-4.5,0.4
	c-2.2,0.2-4.8,0.5-7.9,0.6c-0.8,0-1.6,0-2.4,0.1c-5.7,0.1-12.2,0.3-17.8,2.5c-3.8,1.5-6.8,3.9-8.7,6.9c-0.8-7.9-1.1-16.4-1.3-20.6
	c-0.2-5.3-0.4-8.3-0.6-10.2c-0.1-1.9-1-13.9-1-14.3c0,0,0-0.1,0-0.1c0-0.3-0.1-0.6-0.1-0.9C196.1,287.2,198.1,273.8,205.8,264.7
	L205.8,264.7z M177.5,422.1c-4.8,0.2-9.3,0.4-13.6,0.7c-0.2,0-0.4,0-0.6,0.1c-4,0.6-5.4-0.5-5.9-0.9c-3-2.3-4-9-4.3-12
	c1-10.2,1.6-20.8,2.2-31c1-19,2.1-38.6,6.2-56.3c6-7.3,15.4-11.4,25.9-11.4c0.1,0,0.1,0,0.2,0l0.6,9c0,0.2,0,0.4,0.1,0.6
	c0.2,1.3,0.4,5.2,0.5,9c1.2,28.7,3.2,43.1,11.1,47.5c-0.3,4.2-0.7,8.5-1.1,13c-0.9,10.2-1.9,20.8-1.5,30.7
	C191,421.5,184.2,421.8,177.5,422.1L177.5,422.1z M254.2,457.2c-4.7,4.4-12.9,5.8-24.9,4.2c-0.1,0-0.1,0-0.2,0
	c-18.8-1.8-19.9-25.7-18.9-39.8c0-0.3,0-0.5,0-0.8c-0.5-9.2,0.5-19.5,1.4-29.4c0.9-10.2,1.9-20.8,1.5-30.8c-0.1-5.3,2.3-7,16.7-7.3
	c0.9,0,1.7,0,2.5-0.1c3.5-0.1,6.5-0.4,8.8-0.6c1.3-0.1,2.7-0.3,3.8-0.3c0.2,1.1,0.5,3.5,0.6,8.1c0,0.3,0,0.7,0.1,1
	c0.9,5.7,1.2,12.7,1.5,19.4c0.3,7.1,0.6,14.4,1.6,20.7c0.2,1,0.6,2,1.2,2.8c4.7,6.4,8.3,8.4,10.5,9.7c0,0,0.1,0,0.1,0.1
	c0.4,2.5,0.2,9.6,0.1,12.8c0,0.2,0,0.4,0,0.5C261.5,442.6,259.4,452.3,254.2,457.2L254.2,457.2z M325,352.3
	c-2.1,6.7-3,13.7-3.8,20.6c-0.8,6.3-1.5,12.3-3.1,17.7c-8.7,9.9-26,13.9-51.6,11.8c-0.2,0-0.3,0-0.5,0c-1.2-0.8-2.7-1.9-4.8-4.5
	c-0.7-5.3-1-11.5-1.2-17.6c-0.3-7-0.6-14.2-1.6-20.5c-0.1-5.5-0.4-9.8-1.6-13c0-0.2,0.1-0.4,0.1-0.7l0.2-2.8
	c0.8-12.7,1.8-30.1,9.9-37.1c3-2.6,7-3.6,12.1-3.1c0.2,0,0.3,0,0.5,0c0,0,0.1,0,0.1,0c0.2,0,0.4,0,0.6,0c0,0,0.1,0,0.1,0
	c8.2-0.9,17.5,0.5,26.4,1.7c5.1,0.7,10.3,1.5,15.4,1.9C329.8,311.9,331,328.7,325,352.3L325,352.3z"/>
<path id="black_cards_outline" class="st1" d="M350.6,314.8v-7.1l-1.6-6.3l-3.6-6l-4-3.9l-5.1-3.8l-6.3-3.3l-5.1-1.3l-5.6-0.9
	l-6.6-0.6l-6-0.3l-5.7-0.6l-3.3-0.7v-7.2l-1.6-6.1l-1.1-5.6l-1.5-5.4l-2.6-6.1l-3.3-6l-4.3-5.1l-5.5-3.5l-7.9-3.2l-7.2-2.7l-6.2-1.1
	l-5.9-0.4l-5.3-0.5l-8,0l-12.7,2.2l-4.4,0.9l-8.1,0.9l-8.3,4.1l-7.4,2.8l-6,4.5l-2.9,4.8l-3.6,5.6l-3.7,6.6l-1,5.7l-1.3,5.2
	l-2.7,7.3l0.1,5.9v3.9l-5.2,1.3l-5.8,1.8l-6.6,2.6l-5.3,3.8l-4.4,5l-3.8,5.2l-3.5,5.3l-3,5.9l-2.2,7.6l-1.1,7.2V348l-0.4,10.1
	l-2,12.2l-1,12l0.1,14.1l-0.3,9.6l-0.8,12.2l1.4,9.4l4.2,7.7l6.3,8.6l8.2,3.2l11,0.8l15.6-0.8l10.7-0.5l0.5,4.7l3.1,7.6l3.9,7.3
	l5.4,6.4l6.1,5.9l7.4,4.2l8.7,2.5l9.3,0.6h8.4l11.3-0.8l9-1.5l6.3-3.4l6.5-5.8l3.5-5.7l3.6-7.8l2.2-7.5l1.1-6.8l0.7-7.6l0-7.8
	l-0.3-4.8l6.1-0.7l9.3-0.9l7.8-1l6.8-3.3l6.5-1.3l7.2-3.8l5.9-4.6l4.4-6.3l3.1-7.9l2-7.2l1.7-8.6l0.9-8.6l1.2-5.8l1.8-7.1l1.5-10.4
	l0.8-8l0.5-8.5v-9.4L350.6,314.8L350.6,314.8z M325.1,394.7c-8.6,10.8-24.2,16.2-46.5,16.2c-1.4,0-3,0-4.8-0.1l-5.4-0.2l0.3,5.4
	c0.1,2.6,0.1,6,0,10.9v0.2v0.2c1,17.7-1.8,29-8.9,35.7c-5,4.7-12.1,7-21.7,7c-2.9,0-6.2-0.2-9.6-0.7l-0.1,0
	c-20.1-2-25.3-20.5-26.2-35.6l-0.3-5.1l-5.1,0.4c-6.1,0.5-12.9,0.8-18.9,1c-4.6,0.2-9,0.4-13.1,0.6l-0.4,0
	c-4.8,0.7-8.7-0.1-11.8-2.5c-5.3-4.1-6.8-11.9-7.5-18.2v-0.3c1.1-10.2,1.6-20.9,2.2-31.3c1.1-19.8,2.2-40.3,6.7-59.1
	c0.1-0.2,0.1-0.4,0.3-0.5c7.2-9.5,18.7-15.2,31.6-15.6l5.5-0.2l-0.7-5.5c-2-15.5,1.1-28.6,9.1-38c9.8-11.5,26.7-17.2,47.7-16
	c30.5,1.3,34.2,24.1,33.9,46.2l-0.1,5.1l5.1,0c7.1,0,14.4,1.1,21.5,2.1c5.6,0.8,11,1.6,16.2,1.9c0.2,0,0.4,0.1,0.6,0.1l0,0
	c16.3,8,13.4,34.6,8.1,55.5c-1.9,6-2.7,12.4-3.5,19.3c-0.8,6.9-1.7,14-3.8,20.4C325.3,394.4,325.2,394.6,325.1,394.7L325.1,394.7z"
	/>
<g id="small_numbers">
	<g id="lower">
		<path id="l9" class="st0" d="M323.6,586.5c0.2,0,0.4,0,0.6,0l9.6,0.9c0.9,0.1,1.7,0.4,2.5,0.8l7.7,4.6c2.9,1.7,3.8,5.4,2.1,8.2
			s-5.4,3.8-8.2,2.1l-6.5-3.9l-7.4-0.7l-6.2,1.4l-4,3.2l-1.2,4.9l-1.6,7l0.5,7.4l1.8-1.3c0.9-0.7,1.9-1,3-1.1l10-0.9
			c0.4,0,0.8,0,1.2,0l8.6,0.9c1.8,0.2,3.4,1.2,4.4,2.7l3.8,5.7c0.9,1.3,1.2,2.9,0.9,4.5l-2,9.9c-0.1,0.6-0.3,1.2-0.6,1.8l-4.6,8.2
			c-0.8,1.5-2.3,2.6-4,3l-10.3,2.2c-0.4,0.1-0.8,0.1-1.3,0.1h-7c-1.6,0-3.2-0.7-4.4-1.9l-4.4-4.7c-1.5-1.6-2-3.7-1.4-5.6
			c-2.1-0.8-3.7-2.7-4-5l-1.7-17c0-0.1,0-0.2,0-0.2L299,615c0-0.6,0-1.2,0.1-1.7l1.8-8l1.7-7c0.3-1.3,1-2.4,2.1-3.2l6.6-5.3
			c0.7-0.6,1.5-1,2.4-1.2l8.5-2C322.7,586.5,323.2,586.5,323.6,586.5L323.6,586.5z M332,631.7l-5.2-0.5l-7.8,0.7l-3.5,2.6l-2.5,7.3
			c0.9,0.3,1.7,0.8,2.3,1.5l2.7,2.8h3.8l7-1.5l2.8-5l1.3-6.6L332,631.7L332,631.7z"/>
		<path id="l8" class="st0" d="M323.8,588.7c0.5,0,0.9,0,1.4,0.1l1.9,0.2c0.6,0.1,1.1,0.1,1.7,0.3l2.9,0.6c1.4,0.3,2.8,0.8,4,1.5
			l1.3,0.7c1,0.5,1.9,1.2,2.7,2l1,1c0.9,0.8,1.6,1.7,2.2,2.6l0.2,0.2c1,1.6,1.8,3.3,2.1,5.1l0.2,0.9c0.2,1.1,0.3,2.2,0.3,3.3l0,1.4
			c0,1.4-0.3,2.8-0.7,4.2l-0.4,1c-0.6,2-1.7,3.7-3.1,5.2l1,0.7c1.1,0.8,2.1,1.7,3,2.8l0.8,0.9c0.8,1,1.5,2.1,2,3.2l0.6,1.3
			c0.8,1.8,1.2,3.7,1.3,5.6l0,1.7c0,1.1-0.1,2.2-0.3,3.2l-0.4,2c-0.2,1.2-0.6,2.3-1.1,3.4l-0.3,0.6c-0.9,1.8-2.1,3.5-3.7,4.8l-1.1,1
			c-0.8,0.7-1.7,1.3-2.7,1.8l-1.5,0.8c-0.9,0.5-1.9,0.8-2.8,1.1l-1.9,0.5c-0.7,0.2-1.3,0.3-2,0.4l-2.1,0.3c-0.6,0.1-1.2,0.1-1.8,0.1
			H326c-0.4,0-0.7,0-1.1,0l0,0l-2.3-0.2c-1.8-0.1-3.4-0.6-5-1.3l-1.5-0.7c-1.1-0.5-2.2-1.2-3.1-2l-1.1-0.9c-1.7-1.4-3.1-3.2-4-5.2
			l-0.2-0.5c-0.5-1-0.8-2.1-1-3.1l-0.4-1.8c-0.3-1.5-0.4-2.9-0.2-4.4l0.3-2.7c0.1-0.8,0.2-1.5,0.4-2.2l0.3-1.3
			c0.7-2.5,2-4.8,3.9-6.7l0.9-0.9c-0.6-0.4-1.2-0.8-1.8-1.3l-0.4-0.4c-1.2-1-2.2-2.3-3.1-3.6l-0.5-0.9c-1-1.7-1.6-3.5-1.9-5.5
			l-0.2-1.7c-0.1-1.1-0.2-2.2-0.1-3.4l0.1-1.5c0.2-1.8,0.7-3.6,1.5-5.2c1-2,2.5-3.7,4.3-5l0.2-0.2c0.6-0.5,1.3-0.9,2-1.2l1.2-0.6
			c1.3-0.7,2.6-1.1,4.1-1.4l1.6-0.3c0.6-0.1,1.2-0.2,1.8-0.2l2.3-0.1C323.3,588.7,323.5,588.7,323.8,588.7L323.8,588.7z
			 M327.4,613.7l1.4-0.6c0.1-0.1,0.2-0.1,0.4-0.2l1.8-1.5c0.1,0,0.1-0.1,0.2-0.2l0.9-1c0.1-0.2,0.3-0.3,0.3-0.6l0.4-1
			c0-0.1,0.1-0.3,0.1-0.4l0-1.4c0-0.1,0-0.2,0-0.4l-0.2-0.9c0-0.2-0.1-0.4-0.2-0.5l-0.2-0.2c-0.1-0.1-0.1-0.2-0.2-0.3l-1-1
			c-0.1-0.1-0.2-0.2-0.3-0.2l-1.3-0.7c-0.1-0.1-0.3-0.1-0.4-0.2l-2.9-0.6c-0.1,0-0.1,0-0.2,0l-1.9-0.2c-0.1,0-0.2,0-0.2,0l-2.3,0.1
			c-0.1,0-0.1,0-0.2,0l-1.6,0.3c-0.1,0-0.3,0.1-0.4,0.2l-1.2,0.6c-0.1,0-0.1,0.1-0.2,0.1l-0.2,0.2c-0.2,0.1-0.4,0.3-0.5,0.5
			c-0.1,0.2-0.1,0.4-0.2,0.5l-0.1,1.5c0,0.1,0,0.2,0,0.4l0.2,1.7c0,0.2,0.1,0.4,0.2,0.6l0.5,0.9c0.1,0.2,0.2,0.3,0.3,0.4l0.4,0.4
			c0.1,0.1,0.3,0.2,0.5,0.3l2.5,0.8c0.6,0.2,1.1,0.4,1.6,0.7l2.9,1.4c0.1,0,0.1,0.1,0.2,0.1L327.4,613.7L327.4,613.7z M328.4,642.2
			c0.1,0,0.1,0,0.2,0l2.1-0.3c0.1,0,0.1,0,0.2,0l1.9-0.5c0.1,0,0.2-0.1,0.3-0.1l1.5-0.8c0.1,0,0.2-0.1,0.3-0.2l1.1-1
			c0.2-0.1,0.3-0.3,0.4-0.5l0.3-0.6c0-0.1,0.1-0.2,0.1-0.4l0.4-1.9c0-0.1,0-0.2,0-0.3l0-1.7c0-0.2,0-0.4-0.1-0.6l-0.6-1.3
			c-0.1-0.1-0.1-0.2-0.2-0.3l-0.8-0.9c-0.1-0.1-0.2-0.2-0.3-0.3l-2.3-1.6c-0.1-0.1-0.3-0.2-0.5-0.2l-3-0.8l-1.9-0.6l-0.7,0.2
			c-0.1,0-0.1,0-0.2,0.1l-3,1.2c-0.1,0-0.2,0.1-0.3,0.2l-2.2,1.6c-0.1,0-0.1,0.1-0.2,0.1l-0.9,0.9c-0.2,0.2-0.3,0.4-0.4,0.7
			l-0.3,1.3c0,0.1,0,0.2,0,0.2l-0.3,2.7c0,0.2,0,0.3,0,0.5l0.4,1.8c0,0.1,0.1,0.2,0.1,0.3l0.2,0.5c0.1,0.2,0.2,0.4,0.4,0.5l1.1,0.9
			c0.1,0.1,0.2,0.2,0.3,0.2l1.5,0.7c0.2,0.1,0.4,0.1,0.5,0.1l2.4,0.2L328.4,642.2L328.4,642.2z"/>
		<path id="l7" class="st0" d="M305.8,627.8l3-0.1l-8,18.8c-0.7,1.8-0.6,3.8,0.4,5.4s2.6,2.7,4.5,2.9l19.6,2.1c0.4,0,0.7,0,1.1,0
			l17.4-1.3c3.3-0.2,5.8-3.1,5.5-6.4s-3.1-5.8-6.4-5.5L326,645l-11-1.2l6.9-16.3l12.1-0.2c3.3-0.1,6-2.8,5.9-6.1
			c-0.1-3.3-2.7-5.9-6-5.9c0,0-0.1,0-0.1,0l-5.5,0.1l13.7-21.5c1.8-2.8,1-6.5-1.9-8.3c-1-0.6-2.1-0.9-3.2-0.9c-2,0-3.9,1-5.1,2.8
			l-17.7,27.9c-0.1,0.1-0.1,0.2-0.2,0.3l-8.4,0.2c-3.3,0.1-6,2.8-5.9,6.1S302.5,627.9,305.8,627.8L305.8,627.8z"/>
		<path id="l6" class="st0" d="M323.6,589.9c1.2,0,2.4,0.1,3.6,0.3l2,0.3c3.3,0.6,6.4,2.1,8.9,4.5l2.7,2.6c2.4,2.2,4.2,5.1,5.3,8.1
			l0.7,2.1c1,2.8,1.3,5.6,1.1,8.5l-0.6,7.2c-0.1,1.3-0.3,2.5-0.7,3.7l-2.1,7.2c-1,3.6-2.7,6.9-5,9.9c-3,4.1-7.1,7.4-11.7,9.6l-5,2.3
			c-3.2,1.5-7.1,0.1-8.6-3.1c-1.5-3.2-0.1-7.1,3.1-8.7l5-2.3c2.7-1.3,5.1-3.2,6.9-5.6c1.3-1.8,2.3-3.7,2.9-5.8l2.1-7.2
			c0-0.2,0.1-0.3,0.1-0.5c-0.3,0.1-0.6,0.2-0.9,0.2l-7.1,1.5c-1.1,0.2-2.3,0.3-3.4,0.3l-4.7-0.1c-1.6,0-3.1-0.3-4.6-0.9l-0.5-0.2
			c-3.9-1.4-7-4.5-8.5-8.4c-0.9-2.2-1.2-4.7-0.9-7.1l0.4-3.2c0.4-2.9,1.6-5.6,3.5-7.8l1.7-1.9c1.6-1.8,3.6-3.2,5.9-4l1.2-0.4
			C318.7,590.3,321.2,589.9,323.6,589.9L323.6,589.9z M333.6,609.4c-0.4-0.9-1-1.7-1.7-2.4l-2.7-2.6c-0.6-0.6-1.3-0.9-2.1-1.1
			l-2-0.3c-1.4-0.2-2.8-0.1-4.1,0.4l-1.2,0.4c-0.2,0.1-0.5,0.2-0.6,0.4l-1.7,1.9c-0.2,0.2-0.3,0.5-0.4,0.8l-0.4,3.2
			c0,0.2,0,0.5,0.1,0.7c0.2,0.4,0.5,0.7,0.9,0.9l0.5,0.2c0.1,0.1,0.3,0.1,0.5,0.1l4.7,0.1c0.1,0,0.2,0,0.4,0l7.1-1.5
			c0.1,0,0.2,0,0.2-0.1L333.6,609.4L333.6,609.4z"/>
		<path id="l5" class="st0" d="M322.6,587.1c0.1,0,0.2,0,0.3,0l4.2,0.1c5.5,0.1,10.8,2.3,14.8,6.1l2.6,2.5c2.4,2.3,2.5,6.1,0.2,8.5
			s-6.1,2.5-8.5,0.2l-2.6-2.5c-1.9-1.8-4.3-2.7-6.8-2.8l-4.2-0.1c0,0-0.1,0-0.1,0l-1.8,0.3c-3.2,0.5-6.1,2-8.4,4.2
			c0,0-0.1,0.1-0.1,0.1c0,0-0.1,0.1-0.1,0.2l-0.4,0.9c-1.3,3-1.8,6.3-1.3,9.5c0,0,0,0.1,0,0.1l0.7,1.9c0.7,1.9,2,3.4,3.8,4.3
			c0.1,0,0.2,0.1,0.3,0.1l7.1,0.2c0,0,0.1,0,0.1,0l13.6,0.7c1.7,0.1,3.3,0.9,4.3,2.2s1.5,3,1.3,4.7l-0.4,3.1
			c-0.6,4.1-1.8,8-3.6,11.8l-2.8,5.5c-2.1,4.3-6.5,7-11.3,7.1l-15.6,0.1h0c-3.3,0-6-2.7-6-6c0-3.3,2.6-6,6-6l15.6-0.1
			c0.3,0,0.5-0.2,0.6-0.4l2.8-5.5c0.8-1.5,1.4-3.1,1.8-4.7l-6.7-0.3l-7.1-0.2c-1.8-0.1-3.7-0.5-5.3-1.3c-4.6-2.3-8-6.2-9.8-11
			l-0.7-1.9c-0.3-0.8-0.5-1.6-0.6-2.5c-0.8-5.5,0-11,2.2-16l0.4-0.9c0.6-1.5,1.6-2.8,2.7-3.9c0,0,0.1-0.1,0.1-0.1
			c4.1-4,9.2-6.6,14.9-7.5l1.8-0.3C321.3,587.2,321.9,587.1,322.6,587.1L322.6,587.1z"/>
		<path id="l4" class="st0" d="M309.9,623.3c1.3,0.2,2.9,0.4,4.6,0.6l-0.7,6.2c-0.4,3.6,2.2,6.8,5.8,7.2c3.6,0.4,6.8-2.2,7.2-5.8
			l0.7-6.1c1.1,0.1,2.2,0.2,3.3,0.3l-1.5,9.2l-4.1,12.6c-1.1,3.4,0.7,7.1,4.1,8.2s7.1-0.7,8.2-4.2l4.3-13.1c0.1-0.3,0.2-0.7,0.2-1
			l2.6-16.6c0.3-1.8-0.2-3.6-1.3-5.1c-1.1-1.4-2.8-2.3-4.6-2.4c-2.6-0.2-6.3-0.5-10.3-1l0.1-8.2l0.5-6.7c0.2-3.6-2.5-6.7-6-6.9
			c-0.2,0-0.3,0-0.5,0c-3.4,0-6.2,2.6-6.5,6l-0.5,7c0,0.1,0,0.3,0,0.4l0,6.9c-1.4-0.2-2.6-0.3-3.7-0.5c-0.3,0-0.6-0.1-0.9-0.1
			c-3.2,0-6,2.3-6.4,5.6C303.9,619.5,306.4,622.8,309.9,623.3L309.9,623.3z"/>
		<path id="l3" class="st0" d="M325.9,587c0.5,0,1,0.1,1.4,0.2l6.9,1.7c1.3,0.3,2.5,1.1,3.3,2.1l4.6,5.9c2,2.6,1.6,6.4-1,8.4
			c-2.6,2-6.4,1.6-8.4-1l-3.3-4.2l-4-1l-6.6,0.4l-5,1.7l-2.7,2.5l-1.6,3.3l-0.3,4.6l1.3,4.7l1.3,1.4l4.5,0.7c2.5,0.4,4.5,2.3,5,4.9
			c0.5,2.5-0.7,5-2.9,6.3l-4.1,2.3l-1.3,2.7l0.3,3.8l2.4,3.7l3.5,3.4l2.3,0.8l6.1-0.4l4-1.3l4-3.2l1.6-4c1.2-3.1,4.7-4.5,7.8-3.3
			s4.5,4.7,3.3,7.8l-2.2,5.5c-0.4,1-1,1.8-1.9,2.5l-6.1,4.8c-0.6,0.5-1.2,0.8-1.9,1l-5.7,1.8c-0.5,0.2-1,0.2-1.4,0.3l-8.1,0.5
			c-0.8,0-1.6-0.1-2.4-0.3l-4.7-1.7c-0.8-0.3-1.5-0.8-2.1-1.3l-5-4.8c-0.3-0.3-0.6-0.7-0.9-1.1l-3.5-5.6c-0.5-0.8-0.8-1.8-0.9-2.7
			l-0.5-6.9c-0.1-1.1,0.1-2.1,0.6-3.1l2.2-4.4l-2.8-2.9c-0.7-0.7-1.2-1.6-1.5-2.6l-2-7.2c-0.2-0.6-0.2-1.3-0.2-1.9l0.4-6.8
			c0-0.8,0.2-1.6,0.6-2.3l2.6-5.3c0.3-0.7,0.8-1.2,1.3-1.7l4.4-4.2c0.6-0.6,1.4-1,2.2-1.3l7-2.3c0.5-0.2,1-0.3,1.5-0.3l8.4-0.5
			C325.7,587,325.8,587,325.9,587L325.9,587z"/>
		<path id="l2" class="st0" d="M309.6,601.2l3.5,0.9c0.1,0,0.1,0,0.2,0l3.9,0.9l4.2,1.2l-2.6,4.1c-0.3,0.5-0.5,1-0.7,1.5l-2.4,7.6
			c-0.1,0.3-0.1,0.5-0.2,0.8l-1,6.5c0,0.1,0,0.3,0,0.4l-0.6,7.2c0,0.2,0,0.4,0,0.5v5.9c0,0.4,0,0.8,0.1,1.1l0.9,4.8
			c0.1,0.6,0.3,1.1,0.6,1.7l1.7,3.3c0.5,0.9,1.1,1.6,2,2.2l3.3,2.2c1,0.7,2.2,1,3.4,1h2.9c0.6,0,1.2-0.1,1.7-0.3l4.3-1.3
			c0.2-0.1,0.4-0.1,0.6-0.2l3.6-1.6c3-1.3,4.5-4.8,3.1-7.9s-4.8-4.5-7.9-3.2l-3.4,1.4l-3.1,1h-0.1l-0.5-0.3l-0.6-1.1l-0.6-3.4v-5
			l0.6-6.7l0.9-5.9l2-6.4l2.4-3.8l1.8-1.7l2.8-0.8h2.4c3.2,0,5.8-2.5,6-5.7c0.2-3.2-2.2-6-5.4-6.3l-7.1-0.7l-5.8-1.8l-6.1-1.8
			c-0.1,0-0.3-0.1-0.4-0.1l-4-0.9l-3.4-0.9c-0.5-0.1-1-0.2-1.5-0.2c-2.7,0-5.1,1.8-5.8,4.5C304.4,597,306.3,600.3,309.6,601.2
			L309.6,601.2z"/>
		<path id="l1" class="st0" d="M311.6,589.6c3.2,0,5.9,2.5,6,5.7l0.1,3c0,0.1,0,0.3,0,0.4l-0.2,10.1l0.6,11.4c0,0.1,0,0.2,0,0.2
			l0.3,14.2l0.1,3.9l11.1-10.8l9.2-9.2c2.3-2.3,6.1-2.3,8.5,0s2.3,6.1,0,8.5l-9.3,9.3l-20.8,20.3c-1.7,1.7-4.2,2.2-6.4,1.3
			c-2.2-0.9-3.7-3-3.8-5.3l-0.6-17.5c0,0,0-0.1,0-0.1l-0.3-14.1l-0.6-11.5c0-0.2,0-0.3,0-0.5l0.3-10.1l-0.1-2.8
			c-0.1-3.3,2.4-6.1,5.7-6.2C311.4,589.6,311.5,589.6,311.6,589.6L311.6,589.6z"/>
		<path id="l0" class="st0" d="M325.9,589.3c1.2,0,2.5,0.2,3.7,0.5l3.8,1c2.3,0.6,4.5,1.8,6.2,3.5l2,1.9c1.3,1.3,2.4,2.7,3.2,4.4
			l1.8,3.9c0.6,1.3,1,2.7,1.2,4.1l0.8,5.3c0.1,0.4,0.1,0.8,0.1,1.2l0.4,7.1c0.1,1.1,0,2.1-0.2,3.2l-0.8,4.7c0,0.3-0.1,0.6-0.2,0.9
			l-1.3,5.6c-0.2,0.8-0.5,1.7-0.8,2.5l-2,4.7c-0.4,1-0.9,1.9-1.6,2.8l-2.1,2.9c-1.2,1.6-2.6,3-4.3,4l-2.9,1.7
			c-1.8,1.1-3.8,1.7-5.8,1.9l-3.3,0.3c-0.4,0-0.8,0.1-1.2,0.1c0,0,0,0,0,0l-3.8,0.1c-4.4,0.1-8.7-1.9-11.5-5.3
			c-1.1-1.3-1.9-2.8-2.4-4.4l-1.3-3.7c-0.1-0.3-0.2-0.7-0.3-1l-1.3-4.8c-0.1-0.6-0.3-1.2-0.4-1.8l-1-7.2c0-0.1,0-0.1,0-0.2l-0.8-7.4
			c-0.1-1.4-0.1-2.9,0.2-4.3l1.4-7c0.1-0.8,0.4-1.5,0.6-2.2l1.4-3.8c0.6-1.7,1.5-3.2,2.6-4.5l3-3.4c0.7-0.8,1.6-1.6,2.5-2.3l2.5-1.8
			c1.8-1.3,3.9-2.2,6-2.5l3.5-0.6C324.3,589.4,325.1,589.3,325.9,589.3L325.9,589.3z M322.3,645.3c0.1,0,0.1,0,0.2,0l3.3-0.3
			c0.4,0,0.7-0.2,1-0.3l2.9-1.7c0.3-0.2,0.5-0.4,0.7-0.7l2.1-2.9c0.1-0.1,0.2-0.3,0.3-0.5l2-4.7c0.1-0.1,0.1-0.3,0.1-0.4l1.3-5.7
			l0.8-4.7c0-0.2,0-0.4,0-0.5l-0.4-7.1c0-0.1,0-0.1,0-0.2l-0.8-5.3c0-0.2-0.1-0.5-0.2-0.7l-1.8-3.9c-0.1-0.3-0.3-0.5-0.5-0.7l-2-1.9
			c-0.3-0.3-0.6-0.5-1-0.6l-3.8-1c-0.3-0.1-0.7-0.1-1,0l-3.5,0.6c-0.4,0.1-0.7,0.2-1,0.4l-2.5,1.8c-0.1,0.1-0.3,0.2-0.4,0.4l-3,3.4
			c-0.2,0.2-0.3,0.5-0.5,0.8l-1.4,3.8c0,0.1-0.1,0.2-0.1,0.4l-1.4,7c0,0.2-0.1,0.5,0,0.7l0.8,7.3l1,7.1c0,0.1,0,0.2,0.1,0.3l1.3,4.8
			c0,0.1,0,0.1,0,0.2l1.3,3.7c0.1,0.3,0.2,0.5,0.4,0.7c0.5,0.6,1.2,0.9,1.9,0.9L322.3,645.3L322.3,645.3z"/>
	</g>
	<g id="upper">
		<path id="u9" class="st0" d="M151.5,129.5c-0.2,0-0.4,0-0.6,0l-9.6-0.9c-0.9-0.1-1.7-0.4-2.5-0.8l-7.7-4.6
			c-2.9-1.7-3.8-5.4-2.1-8.2c1.7-2.8,5.4-3.8,8.2-2.1l6.5,3.9l7.4,0.7l6.2-1.4l4-3.2l1.2-4.9l1.6-7l-0.4-7.4l-1.8,1.3
			c-0.9,0.7-1.9,1-3,1.1l-10,0.9c-0.4,0-0.8,0-1.2,0L139,96c-1.8-0.2-3.4-1.2-4.4-2.7l-3.8-5.7c-0.9-1.3-1.2-2.9-0.9-4.5l2-9.9
			c0.1-0.6,0.3-1.2,0.6-1.8l4.6-8.2c0.8-1.5,2.3-2.6,4-3l10.3-2.2c0.4-0.1,0.8-0.1,1.3-0.1h7c1.6,0,3.2,0.7,4.4,1.9l4.4,4.7
			c1.5,1.6,1.9,3.7,1.4,5.6c2.1,0.8,3.7,2.7,3.9,5.1l1.7,17c0,0.1,0,0.2,0,0.2l0.5,8.6c0,0.6,0,1.2-0.1,1.7l-1.8,8l-1.7,7
			c-0.3,1.3-1,2.4-2.1,3.2l-6.6,5.3c-0.7,0.6-1.5,1-2.4,1.2l-8.5,2C152.4,129.5,151.9,129.5,151.5,129.5L151.5,129.5z M143.1,84.3
			l5.2,0.6l7.8-0.7l3.5-2.6l2.5-7.3c-0.9-0.3-1.7-0.8-2.3-1.5l-2.7-2.8h-3.8l-7,1.5l-2.8,5l-1.3,6.6L143.1,84.3L143.1,84.3z"/>
		<path id="u8" class="st0" d="M151.3,127.3c-0.5,0-0.9,0-1.4-0.1l-1.9-0.2c-0.6-0.1-1.1-0.1-1.7-0.3l-2.9-0.6
			c-1.4-0.3-2.8-0.8-4-1.5l-1.3-0.7c-1-0.6-1.9-1.2-2.7-2l-1.1-1c-0.9-0.8-1.6-1.7-2.2-2.6l-0.2-0.2c-1.1-1.6-1.8-3.3-2.1-5.1
			l-0.2-0.9c-0.2-1.1-0.3-2.2-0.3-3.3l0-1.4c0-1.4,0.3-2.8,0.7-4.2l0.4-1.1c0.6-2,1.7-3.7,3.1-5.2l-1-0.7c-1.1-0.8-2.1-1.7-3-2.8
			l-0.8-0.9c-0.8-1-1.5-2.1-2-3.2l-0.6-1.3c-0.8-1.8-1.2-3.7-1.3-5.6l0-1.7c0-1.1,0.1-2.2,0.3-3.2l0.4-1.9c0.2-1.2,0.6-2.3,1.2-3.4
			l0.3-0.6c0.9-1.8,2.1-3.4,3.7-4.8l1.1-1c0.8-0.7,1.7-1.3,2.7-1.8l1.5-0.8c0.9-0.5,1.9-0.8,2.8-1.1l1.9-0.5c0.7-0.2,1.3-0.3,2-0.4
			l2.1-0.3c0.6-0.1,1.2-0.1,1.8-0.1h2.4c0.4,0,0.7,0,1.1,0l0,0l2.3,0.2c1.8,0.1,3.4,0.6,5,1.3l1.6,0.7c1.1,0.5,2.2,1.2,3.1,2
			l1.1,0.9c1.7,1.4,3.1,3.2,4,5.2l0.2,0.5c0.4,1,0.8,2.1,1,3.1l0.4,1.8c0.3,1.4,0.4,2.9,0.2,4.4l-0.3,2.7c-0.1,0.8-0.2,1.5-0.4,2.2
			l-0.3,1.3c-0.7,2.5-2,4.8-3.9,6.7l-0.9,0.9c0.6,0.4,1.2,0.8,1.8,1.3l0.4,0.4c1.2,1,2.2,2.3,3.1,3.6l0.6,0.9c1,1.7,1.6,3.5,1.9,5.5
			l0.2,1.7c0.1,1.1,0.2,2.2,0.1,3.4l-0.1,1.5c-0.2,1.8-0.7,3.6-1.6,5.2c-1,2-2.5,3.7-4.3,5l-0.2,0.2c-0.6,0.5-1.3,0.9-2,1.2
			l-1.2,0.6c-1.3,0.7-2.6,1.1-4.1,1.4l-1.6,0.3c-0.6,0.1-1.2,0.2-1.8,0.2l-2.3,0.1C151.8,127.3,151.6,127.3,151.3,127.3L151.3,127.3
			z M147.7,102.3l-1.4,0.6c-0.1,0.1-0.2,0.1-0.4,0.2l-1.8,1.5c-0.1,0.1-0.1,0.1-0.2,0.2l-0.9,0.9c-0.1,0.2-0.3,0.3-0.3,0.6l-0.4,1
			c-0.1,0.1-0.1,0.3-0.1,0.4l0,1.4c0,0.1,0,0.2,0,0.4l0.2,0.9c0,0.2,0.1,0.4,0.2,0.5l0.2,0.2c0.1,0.1,0.1,0.2,0.2,0.3l1.1,1
			c0.1,0.1,0.2,0.2,0.3,0.2l1.3,0.7c0.1,0.1,0.3,0.1,0.4,0.2l2.9,0.6c0.1,0,0.1,0,0.2,0l1.9,0.2c0.1,0,0.2,0,0.2,0l2.3-0.1
			c0.1,0,0.1,0,0.2,0l1.6-0.3c0.1,0,0.3-0.1,0.4-0.2l1.2-0.6c0.1,0,0.1-0.1,0.2-0.1l0.2-0.2c0.2-0.1,0.4-0.3,0.5-0.5
			c0.1-0.2,0.1-0.4,0.2-0.6l0.1-1.6c0-0.1,0-0.2,0-0.4l-0.2-1.7c0-0.2-0.1-0.4-0.2-0.6l-0.6-0.9c-0.1-0.2-0.2-0.3-0.3-0.4l-0.4-0.4
			c-0.1-0.1-0.3-0.2-0.5-0.3l-2.5-0.8c-0.6-0.2-1.1-0.4-1.6-0.7l-2.9-1.4c-0.1,0-0.1-0.1-0.2-0.1L147.7,102.3L147.7,102.3z
			 M146.7,73.8c-0.1,0-0.1,0-0.2,0l-2.1,0.3c-0.1,0-0.1,0-0.2,0l-1.9,0.5c-0.1,0-0.2,0.1-0.3,0.1l-1.5,0.8c-0.1,0.1-0.2,0.1-0.3,0.2
			l-1.1,1c-0.2,0.1-0.3,0.3-0.4,0.5l-0.3,0.6c-0.1,0.1-0.1,0.2-0.1,0.4l-0.4,1.9c0,0.1,0,0.2,0,0.3l0,1.7c0,0.2,0.1,0.4,0.1,0.6
			l0.6,1.3c0.1,0.1,0.1,0.2,0.2,0.3l0.8,0.9c0.1,0.1,0.2,0.2,0.3,0.3l2.3,1.6c0.1,0.1,0.3,0.2,0.5,0.2l3,0.8l1.9,0.6l0.7-0.2
			c0.1,0,0.1,0,0.2-0.1l3-1.2c0.1,0,0.2-0.1,0.3-0.2l2.2-1.6c0.1,0,0.1-0.1,0.2-0.1l0.9-0.9c0.2-0.2,0.3-0.4,0.4-0.7l0.3-1.3
			c0-0.1,0-0.2,0-0.2l0.3-2.7c0-0.2,0-0.3,0-0.5l-0.4-1.8c0-0.1-0.1-0.2-0.1-0.3l-0.2-0.5c-0.1-0.2-0.2-0.4-0.4-0.6l-1.1-0.9
			c-0.1-0.1-0.2-0.2-0.3-0.2l-1.6-0.7c-0.2-0.1-0.4-0.1-0.5-0.1l-2.4-0.2L146.7,73.8L146.7,73.8z"/>
		<path id="u7" class="st0" d="M169.3,88.2l-3,0.1l8-18.8c0.7-1.8,0.6-3.8-0.4-5.4s-2.6-2.7-4.5-2.9L149.8,59c-0.4,0-0.7,0-1.1,0
			l-17.4,1.3c-3.3,0.2-5.8,3.1-5.5,6.4c0.2,3.3,3.1,5.8,6.4,5.5l16.8-1.3l11,1.2l-6.9,16.3L141,88.7c-3.3,0.1-5.9,2.8-5.9,6.1
			c0.1,3.3,2.7,5.9,6,5.9c0,0,0.1,0,0.1,0l5.5-0.1L133,122.1c-1.8,2.8-0.9,6.5,1.9,8.3c1,0.6,2.1,0.9,3.2,0.9c2,0,3.9-1,5.1-2.8
			l17.7-27.9c0.1-0.1,0.1-0.2,0.2-0.3l8.4-0.2c3.3-0.1,5.9-2.8,5.9-6.1S172.6,88.1,169.3,88.2L169.3,88.2z"/>
		<path id="u6" class="st0" d="M151.5,126.1c-1.2,0-2.4-0.1-3.6-0.3l-2-0.3c-3.3-0.6-6.4-2.1-8.9-4.4l-2.7-2.6
			c-2.4-2.2-4.2-5.1-5.3-8.1l-0.7-2.1c-1-2.8-1.3-5.6-1.1-8.5l0.6-7.2c0.1-1.3,0.3-2.5,0.7-3.7l2.1-7.2c1.1-3.6,2.7-6.9,4.9-9.9
			c3.1-4.1,7.1-7.4,11.7-9.6l5-2.3c3.2-1.5,7.1-0.1,8.6,3.1c1.5,3.2,0.1,7.1-3.1,8.7l-5,2.3c-2.7,1.3-5.1,3.2-6.9,5.6
			c-1.3,1.8-2.3,3.7-2.9,5.8l-2.1,7.2c-0.1,0.2-0.1,0.3-0.1,0.5c0.3-0.1,0.6-0.2,0.9-0.2l7.1-1.5c1.1-0.2,2.3-0.3,3.4-0.3L157,91
			c1.6,0,3.1,0.3,4.6,0.9l0.5,0.2c3.9,1.4,7,4.5,8.6,8.4c0.9,2.2,1.2,4.7,0.9,7.1l-0.4,3.2c-0.4,2.9-1.6,5.6-3.6,7.8l-1.7,1.9
			c-1.6,1.8-3.6,3.2-5.9,4l-1.2,0.4C156.4,125.7,153.9,126.1,151.5,126.1L151.5,126.1z M141.5,106.6c0.4,0.9,1,1.7,1.7,2.4l2.7,2.6
			c0.6,0.6,1.3,0.9,2.1,1.1l2,0.3c1.4,0.2,2.8,0.1,4.1-0.4l1.2-0.4c0.2-0.1,0.4-0.2,0.6-0.4l1.7-1.9c0.2-0.2,0.3-0.5,0.4-0.8
			l0.4-3.2c0-0.2,0-0.5-0.1-0.7c-0.2-0.4-0.5-0.7-0.9-0.9l-0.5-0.2c-0.1-0.1-0.3-0.1-0.5-0.1l-4.7-0.1c-0.1,0-0.2,0-0.4,0l-7.1,1.5
			c-0.1,0-0.2,0-0.2,0.1L141.5,106.6L141.5,106.6z"/>
		<path id="u5" class="st0" d="M152.5,128.9c-0.1,0-0.2,0-0.3,0l-4.2-0.1c-5.5-0.1-10.8-2.3-14.8-6.1l-2.6-2.5
			c-2.4-2.3-2.5-6.1-0.2-8.5s6.1-2.5,8.5-0.2l2.6,2.5c1.9,1.8,4.3,2.7,6.8,2.8l4.2,0.1c0,0,0.1,0,0.1,0l1.8-0.3
			c3.2-0.5,6.1-1.9,8.4-4.2c0,0,0.1-0.1,0.1-0.1c0.1,0,0.1-0.1,0.1-0.2l0.4-0.9c1.3-3,1.8-6.3,1.3-9.5c0-0.1,0-0.1,0-0.1l-0.7-1.9
			c-0.7-1.9-2-3.4-3.8-4.3c-0.1-0.1-0.2-0.1-0.3-0.1l-7.1-0.2c0,0-0.1,0-0.1,0l-13.6-0.7c-1.7-0.1-3.3-0.9-4.3-2.2s-1.6-3-1.3-4.7
			l0.4-3.1c0.6-4.1,1.8-8.1,3.6-11.8l2.8-5.5c2.1-4.3,6.5-7,11.3-7.1l15.6-0.1h0c3.3,0,6,2.7,6,6c0,3.3-2.6,6-6,6l-15.6,0.1
			c-0.3,0-0.5,0.2-0.6,0.4l-2.8,5.5c-0.8,1.5-1.4,3.1-1.8,4.7l6.7,0.3l7.1,0.2c1.8,0.1,3.7,0.5,5.3,1.3c4.6,2.3,8,6.2,9.8,11
			l0.7,1.9c0.3,0.8,0.5,1.6,0.6,2.5c0.8,5.5,0,11-2.2,16.1L174,117c-0.6,1.5-1.6,2.8-2.7,3.9c0,0-0.1,0.1-0.1,0.1
			c-4.1,4-9.2,6.6-14.9,7.5l-1.8,0.3C153.8,128.8,153.2,128.9,152.5,128.9L152.5,128.9z"/>
		<path id="u4" class="st0" d="M165.2,92.7c-1.3-0.2-2.9-0.4-4.6-0.6l0.7-6.2c0.4-3.6-2.2-6.8-5.8-7.2c-3.6-0.4-6.8,2.2-7.2,5.8
			l-0.7,6.1c-1.1-0.1-2.2-0.2-3.3-0.3l1.5-9.2l4.1-12.6c1.1-3.4-0.7-7.1-4.1-8.2c-3.4-1.1-7.1,0.7-8.2,4.1l-4.3,13.1
			c-0.1,0.3-0.2,0.7-0.2,1l-2.6,16.6c-0.3,1.8,0.2,3.6,1.3,5.1c1.1,1.4,2.8,2.3,4.6,2.4c2.6,0.2,6.3,0.5,10.3,1l-0.1,8.2l-0.5,6.7
			c-0.2,3.6,2.4,6.7,6,6.9c0.2,0,0.3,0,0.5,0c3.4,0,6.2-2.6,6.5-6l0.5-6.9c0-0.1,0-0.3,0-0.4l0.1-6.9c1.4,0.2,2.6,0.3,3.7,0.5
			c0.3,0.1,0.6,0.1,0.9,0.1c3.2,0,6-2.3,6.4-5.6C171.2,96.5,168.8,93.2,165.2,92.7L165.2,92.7z"/>
		<path id="u3" class="st0" d="M149.2,129c-0.5,0-1-0.1-1.4-0.2l-6.9-1.7c-1.3-0.3-2.5-1.1-3.3-2.1l-4.6-5.9c-2-2.6-1.6-6.4,1.1-8.4
			c2.6-2,6.4-1.6,8.4,1.1l3.3,4.2l4,1l6.6-0.4l5.1-1.7l2.7-2.5l1.6-3.3l0.3-4.6l-1.3-4.7l-1.3-1.4l-4.6-0.7c-2.5-0.4-4.5-2.3-5-4.9
			c-0.4-2.5,0.7-5,2.9-6.3l4.1-2.3l1.3-2.7l-0.3-3.8l-2.4-3.7l-3.5-3.4l-2.3-0.8l-6.1,0.4l-4,1.3l-4,3.2l-1.6,4
			c-1.2,3.1-4.7,4.6-7.8,3.3c-3.1-1.2-4.6-4.7-3.3-7.8l2.2-5.5c0.4-1,1-1.8,1.9-2.5l6.1-4.8c0.6-0.5,1.2-0.8,1.9-1l5.7-1.8
			c0.5-0.2,0.9-0.2,1.4-0.3l8.1-0.5c0.8,0,1.6,0.1,2.4,0.3l4.7,1.7c0.8,0.3,1.5,0.8,2.1,1.3l5,4.8c0.3,0.3,0.6,0.7,0.9,1.1l3.5,5.6
			c0.5,0.8,0.8,1.8,0.9,2.7l0.5,6.9c0.1,1.1-0.1,2.1-0.6,3.1l-2.2,4.4l2.8,2.9c0.7,0.7,1.2,1.6,1.5,2.6l2,7.2
			c0.2,0.6,0.2,1.3,0.2,1.9l-0.4,6.8c-0.1,0.8-0.2,1.6-0.6,2.3l-2.6,5.3c-0.3,0.7-0.8,1.2-1.3,1.7l-4.4,4.2
			c-0.6,0.6-1.4,1.1-2.2,1.3l-7,2.3c-0.5,0.2-1,0.3-1.5,0.3l-8.4,0.5C149.4,129,149.3,129,149.2,129L149.2,129z"/>
		<path id="u2" class="st0" d="M165.5,114.8l-3.5-0.9c-0.1,0-0.1,0-0.2,0L158,113l-4.2-1.2l2.6-4.1c0.3-0.5,0.5-0.9,0.7-1.5l2.4-7.6
			c0.1-0.3,0.1-0.5,0.2-0.8l1-6.5c0-0.1,0-0.3,0.1-0.4l0.6-7.2c0-0.2,0-0.4,0-0.5v-5.9c0-0.4,0-0.8-0.1-1.1l-0.9-4.8
			c-0.1-0.6-0.3-1.1-0.6-1.7l-1.7-3.3c-0.5-0.9-1.1-1.6-1.9-2.2l-3.3-2.2c-1-0.7-2.2-1-3.4-1h-2.9c-0.6,0-1.2,0.1-1.7,0.3l-4.3,1.3
			c-0.2,0.1-0.4,0.1-0.6,0.2l-3.6,1.6c-3.1,1.3-4.5,4.8-3.1,7.9c1.3,3.1,4.8,4.5,7.9,3.2l3.4-1.4l3.1-0.9h0.1l0.5,0.3l0.6,1.1
			l0.6,3.4v5l-0.6,6.7l-0.9,5.9l-2,6.4l-2.4,3.8l-1.8,1.7l-2.8,0.8h-2.4c-3.2,0-5.8,2.5-6,5.7c-0.2,3.2,2.2,5.9,5.4,6.3l7.1,0.7
			l5.8,1.8l6.1,1.8c0.1,0,0.3,0.1,0.4,0.1l3.9,0.9l3.4,0.9c0.5,0.1,1,0.2,1.5,0.2c2.7,0,5.1-1.8,5.8-4.5
			C170.7,118.9,168.8,115.7,165.5,114.8L165.5,114.8z"/>
		<path id="u1" class="st0" d="M163.5,126.4c-3.2,0-5.9-2.5-6-5.7l-0.1-3c0-0.1,0-0.3,0-0.4l0.2-10.1L157,95.8c0-0.1,0-0.2,0-0.2
			l-0.3-14.2l-0.1-3.9l-11.1,10.8l-9.2,9.2c-2.3,2.3-6.1,2.3-8.5,0s-2.3-6.1,0-8.5l9.3-9.3l20.8-20.3c1.7-1.7,4.2-2.2,6.4-1.3
			c2.2,0.9,3.7,3,3.8,5.3l0.6,17.5c0,0,0,0.1,0,0.1l0.3,14.1l0.6,11.5c0,0.2,0,0.3,0,0.5l-0.3,10.1l0.1,2.8c0.1,3.3-2.4,6.1-5.7,6.2
			C163.7,126.4,163.6,126.4,163.5,126.4L163.5,126.4z"/>
		<path id="u0" class="st0" d="M149.2,126.7c-1.2,0-2.5-0.2-3.7-0.5l-3.8-1c-2.3-0.6-4.5-1.8-6.2-3.5l-2-1.9
			c-1.3-1.3-2.4-2.7-3.2-4.4l-1.8-3.9c-0.6-1.3-1-2.7-1.2-4.1l-0.8-5.3c-0.1-0.4-0.1-0.8-0.1-1.2l-0.4-7.1c-0.1-1.1,0-2.1,0.2-3.2
			l0.8-4.7c0.1-0.3,0.1-0.6,0.2-0.9l1.3-5.6c0.2-0.8,0.5-1.7,0.8-2.5l2-4.7c0.4-1,0.9-1.9,1.6-2.8l2.1-2.9c1.2-1.6,2.6-3,4.3-4
			l2.9-1.7c1.8-1.1,3.8-1.7,5.8-1.9l3.3-0.3c0.4,0,0.8-0.1,1.2-0.1c0,0,0,0,0,0l3.8-0.1c4.4-0.1,8.7,1.9,11.5,5.3
			c1.1,1.3,1.9,2.8,2.4,4.4l1.3,3.7c0.1,0.3,0.2,0.7,0.3,1l1.3,4.8c0.1,0.6,0.3,1.2,0.4,1.8l1,7.2c0,0.1,0,0.1,0,0.2l0.8,7.4
			c0.1,1.4,0.1,2.9-0.2,4.3l-1.4,7c-0.1,0.8-0.4,1.5-0.6,2.2l-1.4,3.8c-0.6,1.7-1.5,3.2-2.6,4.5l-3,3.4c-0.7,0.8-1.6,1.6-2.5,2.3
			l-2.5,1.8c-1.8,1.3-3.9,2.2-6,2.5l-3.4,0.6C150.8,126.6,150,126.7,149.2,126.7L149.2,126.7z M152.8,70.7c-0.1,0-0.1,0-0.2,0
			l-3.3,0.3c-0.4,0-0.7,0.2-1,0.3l-2.9,1.7c-0.3,0.2-0.5,0.4-0.7,0.7l-2.1,2.9c-0.1,0.1-0.2,0.3-0.3,0.5l-2,4.7
			c-0.1,0.1-0.1,0.3-0.1,0.4l-1.3,5.7l-0.8,4.7c0,0.2,0,0.4,0,0.5l0.4,7.1c0,0.1,0,0.1,0,0.2l0.8,5.3c0,0.2,0.1,0.5,0.2,0.7l1.8,3.9
			c0.1,0.3,0.3,0.5,0.5,0.7l2,1.9c0.3,0.3,0.6,0.5,1,0.6l3.8,1c0.3,0.1,0.7,0.1,1,0.1l3.4-0.6c0.4-0.1,0.7-0.2,1-0.4l2.5-1.8
			c0.1-0.1,0.3-0.2,0.4-0.4l3-3.4c0.2-0.2,0.3-0.5,0.4-0.8l1.4-3.8c0-0.1,0.1-0.2,0.1-0.4l1.4-6.9c0.1-0.2,0.1-0.5,0-0.7l-0.8-7.3
			l-0.9-7.1c0-0.1,0-0.2-0.1-0.3l-1.3-4.8c0-0.1,0-0.1-0.1-0.2l-1.3-3.7c-0.1-0.3-0.2-0.5-0.4-0.7c-0.5-0.6-1.2-0.9-1.9-0.9
			L152.8,70.7L152.8,70.7z"/>
	</g>
	<path id="lower_plus" class="st0" d="M339,620c0.1,3.3,2.9,5.9,6.2,5.8l8.4-0.3l-0.5,4.7c-0.4,3.3,2,6.3,5.3,6.7
		c3.3,0.4,6.3-2,6.7-5.3l0.7-6.2l7.3,0.2c3.3,0.1,6.1-2.5,6.2-5.8c0.1-3.3-2.5-6.1-5.8-6.2l-6.7-0.2l0.2-5.6
		c0.1-3.3-2.4-6.1-5.7-6.3c-0.1,0-0.2,0-0.3,0c-3.2,0-5.9,2.5-6,5.7l-0.3,6.1l-10,0.4C341.4,613.9,338.9,616.7,339,620L339,620z"/>
	<path id="upper_plus" class="st0" d="M136.1,96c-0.1-3.3-2.9-5.9-6.2-5.8l-8.4,0.3l0.6-4.7c0.4-3.3-2-6.3-5.3-6.7
		c-3.3-0.4-6.3,2-6.7,5.3l-0.7,6.2l-7.3-0.2c-3.3-0.1-6.1,2.5-6.2,5.8c-0.1,3.3,2.5,6.1,5.8,6.2l6.7,0.2l-0.2,5.6
		c-0.2,3.3,2.4,6.1,5.7,6.3c0.1,0,0.2,0,0.3,0c3.2,0,5.8-2.5,6-5.7l0.3-6.1l10-0.4C133.7,102.1,136.2,99.3,136.1,96L136.1,96z"/>
</g>
</svg>
