<?xml version="1.0" encoding="UTF-8"?>
<svg id="Card" xmlns="http://www.w3.org/2000/svg" viewBox="0 0 480.8 718">
  <defs>
    <style>
      .cls-1 {
        fill: #fff;
      }

      .cls-2 {
        fill: #111;
      }

      .cls-3 {
        fill: #3ce53e;
      }

      .cls-4 {
        fill: #ffad00;
      }

      .cls-5 {
        fill: #ff002c;
      }

      .cls-6 {
        fill: #5190fc;
      }
    </style>
  </defs>
  <path id="background" class="cls-1" d="M460.4,515.7c0-31.1,.4-75.4-4.4-105.9-.9-30-4.5-65.7-5.4-95.6,2.5-64.7-8.3-136.3,1.2-200.6,4.6-20.4,3.5-53.4,4.7-74.3l-.9-5.8c-1-1.4-2.7-4.5-3.6-6-3.4-2.5-8.4-4.6-12.6-4.2-5.2-1.5-12.8-3.3-17.8-5.4-7.5-.2-22.7-1.4-30.1-2.1l-17.1-.7c-6.5-1.9-21.7-3-28.5-3.4-29.6-2.5-73.7-1.7-103.4-1.8-42.4,1-123.5-4.1-164.7,4.2-9.6-.3-20.4,5.5-29.9,5.7-4.2,4.3-11.7,5.2-17.4,6-4.9,3.9-5.9,4.4-8.5,10-4,7.1-3,23.3-3.1,31.3-.6,24.8,1.5,66,1.4,90.9l1.6,10.6c-.3,43.5-1,109.1-2.3,152.4-1.2,19.9-1.1,50.6-3.2,70.4-1.7,10-2.1,26-2.7,36.3-1.6,1.5-1.9,49.2-2.1,52.2-.2,5.9-.8,25.2-2.1,30.8v26.7c1.7,7,1.8,17.5,3.2,24.5,1.6,1.9,1.7,5.1,2,7.3,.7,1.3,1.8,4.2,2.3,5.7l.5,6.9,1.3,4.8,.4,32.7c-1.5,9.8-2,29.9-1.7,39.9,.4,1.1,3.2,4.1,4.2,5,2.4,4.5,7.1,10,10.5,13.8,2.8,1.1,6,2.9,8,5.2,1.5,2,5,5.2,7.1,6.6,6.4,1.7,13.5,4.4,20.1,5.3l7.3,2.4,11.3,.5,5.5,2.1,8.4,1.1c5.9,1.3,13.2,2.6,18.8,4.6l5.2,1.5h18.2c6-1.1,17.7-2.8,23.8-3.3,14.6-.7,37.6-.9,51.9,1.4,5.4,.3,79,.2,81.4,1.9,2.6,1.2,9.3,1.6,12.1,1.8h52.7c3.5-.9,10.7-1.7,14.3-1.8,4.3-.6,13.9-2,18.3-2.5l16.2-.5,11.1-2.3,8.1-.7,3.9-1.2c4.2-1,10.7-1.1,14.7-3.1l5.1-1.9,2.9-3.1,2.2-4c1-4.7,1.4-15.4,1.8-20.2l.8-12.4,2.4-5.8,.8-5.2c1.7-5,3.2-12.4,4.4-17.5l.9-19.2-.2-18c-.6-2.6-1.3-8.1-1.9-10.7l-2.3-3-.9-6.6c-1.9-4.6-2.6-11.8-4-16.5-.9-9.6-2.8-27.9-2.2-37.2h0Z"/>
  <path id="border" class="cls-2" d="M154.6,9.1c26.5,0,53.5,.8,74.7,.8,4.7,0,9.1,0,13.2-.1h4.7c10.1,0,21.5-.1,33.3-.1,22.8,0,46.9,.3,65.4,1.9,6.8,.5,22,1.6,28.5,3.4l17.1,.7c7.4,.6,22.6,1.8,30.1,2,5,2.2,12.5,4,17.8,5.4h.9c4,0,8.5,2,11.7,4.3,.9,1.5,2.6,4.6,3.6,6l.9,5.8c-1.2,20.9-.1,53.9-4.7,74.3-9.5,64.4,1.3,136-1.2,200.6,.9,30,4.5,65.7,5.4,95.6,4.8,30.5,4.4,74.8,4.4,105.9-.6,9.3,1.2,27.6,2,36.7,1.4,4.8,2.1,11.9,4,16.5l.9,6.6,2.3,3c.7,2.6,1.4,8.1,1.9,10.7l.2,18-.9,19.2c-1.2,5.1-2.7,12.5-4.4,17.5l-.8,5.2-2.4,5.8-.8,12.4c-.5,4.8-.8,15.5-1.8,20.2l-2.2,4-2.9,3.1-5.1,1.9c-3.9,2-10.5,2.1-14.7,3.1l-3.9,1.2-8.1,.7-11.1,2.3-16.2,.5c-4.4,.5-14,1.9-18.3,2.5-3.6,.1-10.8,1-14.3,1.8h-52.7c-2.8-.2-9.5-.7-12.1-1.8-2.4-1.7-76-1.6-81.4-1.9-8.6-1.4-20.5-1.9-31.8-1.9-7.3,0-14.3,.2-20.1,.5-6,.5-17.7,2.2-23.8,3.3h-18.2l-5.2-1.5c-5.7-2-13-3.3-18.8-4.6l-8.4-1.1-5.5-2.1-11.3-.5-7.3-2.4c-6.6-.9-13.7-3.7-20.1-5.3-2.1-1.4-5.6-4.6-7.1-6.6-2-2.2-5.2-4.1-8-5.2-3.4-3.8-8.1-9.2-10.5-13.8-.9-.8-3.8-3.8-4.2-5-.3-10,.3-30.1,1.7-39.9l-.4-32.7-1.3-4.8-.5-6.9c-.5-1.4-1.7-4.3-2.3-5.7-.4-2.2-.4-5.4-2-7.3-1.5-7-1.5-17.5-3.2-24.5v-26.7c1.3-5.6,1.9-24.9,2.1-30.8,.3-3,.5-50.8,2.1-52.2,.6-10.2,1-26.2,2.7-36.3,2.1-19.7,1.9-50.5,3.2-70.4,1.3-43.3,2-108.9,2.3-152.4l-1.4-10c.1-24.9-2-66.1-1.4-90.9,.1-8-.9-24.2,3.1-31.3,2.6-5.6,3.7-6.1,8.5-10,5.6-.8,13.2-1.7,17.4-6,9.3-.3,19.7-5.8,29.1-5.8h.8c19.5-3.9,47.8-4.9,76.8-4.9m0-9.1h0c-35.8,0-60.5,1.5-77.6,4.9-6.1,0-11.9,1.6-17.5,3.2-4.4,1.2-8.5,2.4-11.9,2.5l-3.8,.1-2.6,2.7c-1.7,1.8-7.5,2.6-11,3.1l-1.1,.2-2.5,.4-1.9,1.6c-.5,.4-.9,.7-1.3,1-4.5,3.5-6.6,5.4-9.7,11.9-4.1,7.5-4.3,18.5-4.1,31.1v4.3c-.3,14,.2,32.8,.7,51.1,.4,14.9,.8,28.9,.7,39.9h.1c0,1.1,.2,2.1,.3,3.1l.6,3.6,.7,4.6c-.2,30.1-.9,103.3-2.3,151.3-.5,8.1-.8,17.6-1.1,27.8-.4,14.9-.9,30.3-2.1,41.8-1.2,8-1.7,19-2.2,28.8-.1,2.4-.2,4.7-.3,6.7-.8,3.1-1.1,8.1-1.4,17.4-.3,8.6-.5,18.9-.6,26.4-.1,4.2-.2,8.6-.2,9.5v1.7c-.5,15.5-1.2,24.8-1.8,27.7l-.7,2.5,.3,1v26.4l.3,1.1c.8,3,1.2,7.5,1.6,11.7,.4,4.3,.8,8.7,1.6,12.4l.5,2.3,1,1.2c.1,.5,.2,1.2,.3,1.7,.1,.6,.2,1.2,.3,1.8l.1,1.5,.7,1.3c.3,.6,.9,2.1,1.4,3.4l.4,5.6,.1,.8,.2,.8,1,3.7,.3,30.9c-1.5,10.8-2,30.8-1.7,40.8v1.3l.4,1.3c1,2.9,3.9,6.1,5.6,7.8,2.3,3.9,5.9,8.5,11,14.2l1.5,1.6,2,.8c2,.8,3.7,1.9,4.4,2.6,2.2,2.7,6.2,6.3,9,8.2l1.3,.8,1.5,.4c2,.5,4.2,1.2,6.4,1.9,4.5,1.4,9.1,2.8,13.8,3.5l.4,.1,2.5,.8,3.7,1.2,1.2,.4,1.3,.1,9.8,.4,4.1,1.6,1,.4,1.1,.1,8,1c.9,.2,1.9,.4,2.9,.6,4.8,1,10.3,2.2,14.4,3.6h0c.2,.1,.4,.1,.6,.2l.6,.2,1.8,.5,2.6,.8,1.3,.4h20.4l.8-.2c5.9-1.1,17.1-2.6,22.7-3.2,6.1-.3,13-.5,19.4-.5,12.7,0,23.2,.6,30.3,1.8l.5,.1h.5c1.6,.1,6.9,.1,17.7,.2,16.5,.1,54.5,.4,61.3,1.3,3.1,1.2,7.4,1.7,13.4,2.2l.8,.1h0c.4,0,.9,.1,1.3,.1h53.2l1.1-.3c2.6-.7,9.2-1.5,12.4-1.6h.5l.5-.1,1.4-.2c4.4-.6,12.3-1.8,16.3-2.2,2.4-.1,15.8-.5,15.8-.5h.8l.8-.2,10.6-2.2,7.6-.7,1-.1,1-.3,3.5-1.1c1-.2,2.5-.4,4-.7,3.9-.5,8.2-1.2,12-3,1-.4,2.5-.9,4.5-1.7l1.9-.7,1.4-1.5,2.9-3.1,.8-.9,.6-1.1,2.2-4,.6-1.1,.3-1.3c.9-3.9,1.3-10.2,1.6-15.7,.1-2.2,.3-4.2,.4-5.5l.5-5-.1-.1c.1-2.2,.3-4.6,.4-6.1l1.8-4.4,.4-1,.2-1.1,.6-4.3c1.3-3.9,2.4-8.6,3.3-12.8,.4-1.7,.7-3.3,1.1-4.6h-.1c.2-.8,.3-1.6,.4-2.6l.1-2.2,.3-6.6,.5-9.6v-.6l-.2-18v-1l-.2-.9c-.2-.9-.5-2.5-.7-4.1-.4-2.2-.7-4.5-1.1-6.3-.4-2-1.5-3.5-2.6-5l-.6-4.2-.2-1.1-.4-1c-.8-1.9-1.4-5.3-2-8.2-.4-2.2-.9-4.5-1.4-6.5-.1-1.4-.2-2.9-.4-4.6-.8-9.1-2-23-1.5-29.9v-5.7c.1-30.5,.2-72.1-4.4-101.7-.5-15-1.6-31.5-2.7-47.5s-2.2-32.5-2.7-47.3c1-25.8-.1-53-1.2-79.3-1.6-40.2-3.3-81.7,2.2-119.8,3.4-15.2,3.8-36.2,4.2-54.7,.2-7.6,.3-14.8,.6-20.8l.6-10.9-2.6,.3-.6-.9c-.5-.7-1.6-2.7-2.3-3.9-.3-.6-.6-1.1-.9-1.5l-1-1.6-1.5-1.1c-5.1-3.8-11.4-6-16.9-6.1-.9-.2-1.8-.5-2.7-.7-4.4-1.2-9.4-2.5-12.6-3.9l-1.6-.7-1.8-.1c-7.2-.2-22-1.4-29.6-2h-1.1l-1.9-.1-5.9-.2-7.2-.2c-6.8-1.7-18.5-2.7-29.1-3.5-19.4-1.7-44.3-1.9-66.1-1.9h-38.2c-3.8,.1-8.1,.1-13,.1-9.9,0-21.2-.2-33.1-.4-13.7-.1-27.7-.3-41.8-.3h0Z"/>
  <path id="bottom_color" data-name="bottom color" class="cls-2" d="M423.5,339.1v29.6l1.6,32.4v21.4c0,2,.3,4,.8,6l.5,1.8c.3,1.3,.6,2.6,.7,3.9l1,11.3,1.3,17.2,.7,16.1c0,.6,.1,1.2,.1,1.8l1.1,8.8c.1,.5,.1,1,.2,1.5l1.1,6,1.4,8.3c.1,.9,.4,1.7,.6,2.6l1.5,5.2c.2,.6,.3,1.2,.5,1.8l1.7,8.1,1.8,9.6c.1,.7,.2,1.5,.3,2.2l1.2,12.3,1.7,13.9c.2,1.4,.2,2.8,.1,4.1l-.7,12.6c0,.8-.1,1.7-.3,2.5l-1.4,8.6c-.1,.5-.1,.9-.2,1.4l-.9,8c-.1,1-.1,1.9-.1,2.9l.1,6.2c0,2.6-.3,5.2-1.1,7.6l-1.2,3.7c-.4,1.2-.9,2.4-1.5,3.5l-.3,.6c-.8,1.4-1.4,3-1.8,4.5l-1,3.6-1.6,4.9c-.2,.6-.4,1.1-.6,1.7l-1.9,4.6c-.3,.7-.6,1.4-1,2l-1.2,2.2c-.8,1.5-1.7,2.8-2.7,4.1l-1.1,1.3c-.9,1.1-1.9,2.1-3,3l-3,2.5c-1.5,1.2-3.1,2.2-4.8,3.1l-6.8,3.3-4.6,2c-1.4,.6-2.8,1-4.3,1.3l-7.4,1.6-9.1,1.7-9.9,1.3c-.5,.1-1,.1-1.4,.1l-13.3,.9h-1.2l-28,.4h-30.6c-1.1,0-2.1-.1-3.2-.2l-8.9-1.2c-1-.1-2-.2-3.1-.2l-98.4-.5c-1,0-2.1-.1-3.1-.2l-16.4-2.3c-.7-.1-1.4-.2-2.1-.2l-21.6-1.1c-.6,0-1.1-.1-1.7-.1l-11.1-1.4c-1.7-.2-3.3-.6-4.8-1.1l-12.2-4.3-12.2-3.6-10.3-3.4c-.5-.2-1.1-.4-1.6-.6l-5.4-2.2c-1.8-.7-3.5-1.7-5.1-2.9l-2.6-1.9c-.7-.5-1.4-1.1-2.1-1.8l-3.3-3.2c-.5-.5-1-1-1.4-1.5l-.9-1.1c-1.6-1.8-2.9-3.8-3.9-6l-.3-.8c-.5-1.1-.9-2.2-1.2-3.3h0c-.8-3.1-2.3-5.9-4.3-8.4l-.6-.7c-.3-.4-.7-.8-1-1.3l-3.3-4.7c-.8-1.2-1.5-2.4-2.1-3.7l-2.9-6.5-3.7-9-2.2-5.9c-.6-1.7-1.1-3.5-1.3-5.3l-1.7-14.1c0-.4-.1-.8-.1-1.2l-1.4-18.8-.5-27v-1.3l.7-19.1c0-.9,.1-1.8,.2-2.7l1.3-8.7c.1-.9,.3-1.9,.6-2.8l2.8-9.8c.2-.6,.3-1.3,.5-2l1.6-8.2,1.2-7.2c.2-.9,.3-1.9,.3-2.8l.1-2.7,4.7,11.5c.6,1.5,1.4,3,2.3,4.4l5,7.3,7.2,11.4,3.4,5.2c1.1,1.6,2.4,3.1,3.8,4.5l6.2,5.6c.5,.4,1,.9,1.5,1.2l3.1,2.3c.7,.5,1.3,1,2.1,1.4l5.2,3.1,8.8,5.4c.9,.5,1.8,1,2.8,1.5l7.2,3.2c1.1,.5,2.3,.9,3.5,1.2l5.1,1.3c1.7,.5,3.4,.7,5.2,.8l9.4,.3,21.3,.7,29.1,.4,29.9-.1c.6,0,1.3,0,1.9-.1l9.6-.8c.9-.1,1.7-.2,2.5-.4l7.6-1.5c1.5-.3,3-.8,4.4-1.3l6.4-2.7c.6-.2,1.2-.5,1.8-.7l4.3-1.4c1.4-.5,2.9-.8,4.3-1l5.9-.7c1-.1,2-.3,3-.6l5.5-1.4,6.2-1.9c1.4-.4,2.8-1,4-1.6l5.5-2.8c.8-.4,1.5-.8,2.2-1.3l5.8-3.9c.6-.4,1.2-.8,1.7-1.3l6.7-5.5,7.5-5.5c.5-.4,1.1-.8,1.7-1.1l6.4-3.9,9.8-5.7c.6-.4,1.2-.7,1.9-1l9.3-4.4,5.5-2.6c.9-.4,1.8-.9,2.7-1.5l5-3.2c.7-.5,1.4-1,2-1.5l4.6-3.7c.8-.6,1.5-1.3,2.2-2.1l3.7-3.9c.3-.4,.7-.7,1-1l5.1-4.7c1-.9,1.8-1.8,2.6-2.9l4.7-6.1c.5-.6,.9-1.3,1.4-2l9.7-15.7c.5-.8,.9-1.6,1.3-2.4l4.4-9.3,5.6-12.4,5.7-12.3,5.7-11.7,4.4-9.6,4.7-11,3.6-9.5c.2-.5,.4-.9,.5-1.4l1.9-4.2h0Z"/>
  <path id="top_color" data-name="top color" class="cls-2" d="M47,341l1.7-3.2c.9-1.6,1.3-3.5,1.3-5.3v-6.6c0-1,.1-2,.4-2.9l1.1-3.9c.2-.7,.5-1.5,.8-2.1l3.6-7c.3-.5,.6-1.1,1-1.6l3.1-4.2c.6-.8,1.2-1.4,1.9-2l4-3.2,5.1-4.2c.2-.2,.4-.4,.7-.6l4.8-4.6c.1-.1,.3-.3,.4-.4l5.1-5.4c.1-.1,.3-.3,.4-.5l5.3-6.4c.2-.3,.4-.5,.7-.7l6.4-6.4c.2-.2,.4-.4,.7-.6l7.3-6.2,7.2-5.9,6.8-5.6c.2-.2,.4-.3,.6-.5l4.1-3.9c.2-.2,.5-.5,.7-.8l.4-.5c1.2-1.3,2.6-2.4,4.3-3h0c.3-.1,.6-.2,.8-.4l2.2-1.1c.3-.2,.6-.3,.9-.5l3.4-2.1c.6-.4,1.2-.7,1.8-.9l4.1-1.6c.3-.1,.5-.2,.8-.4l7-3.4c.4-.2,.8-.4,1.2-.7l5.3-3.5c.4-.3,.8-.5,1.3-.7l6.7-3.2c.2-.1,.5-.2,.7-.4l7.3-4.2c.4-.2,.8-.4,1.2-.6l5.5-2.4c.2-.1,.4-.2,.6-.3l5.3-2.6c.4-.2,.9-.5,1.3-.7l4.3-2.9c.4-.2,.7-.5,1.1-.7l4.5-2.3c.4-.2,.8-.4,1.2-.7l2.5-1.7c.4-.3,.9-.5,1.3-.8l3.6-1.8,2.5-1.4c1.2-.6,2.4-1.1,3.8-1.2l14.6-2.1,10.7-1.2c1.1-.1,2.2-.4,3.2-.9l1.2-.5c1.2-.5,2.5-.8,3.8-.9l10.8-.6c.2,0,.4,0,.7-.1l5.8-.7c.2,0,.5-.1,.7-.1l5.3-1c.2,0,.5-.1,.7-.1l12.1-1.5,12.8-1.6c.4,0,.7-.1,1.1-.1l34.8-.7c.5,0,1,0,1.5,.1l8.3,1,7.6,.8c.8,.1,1.5,.2,2.3,.5l4.2,1.4c.2,.1,.4,.1,.6,.2l5.1,1.3c.3,.1,.6,.2,.9,.3l6.6,2.3,7.6,2.8c.3,.1,.5,.2,.8,.3l6.7,3.1c.2,.1,.5,.2,.7,.4l7.6,4.2c.3,.1,.5,.3,.8,.5l4.4,2.9c.2,.1,.3,.2,.5,.4l7.7,5.8,5,4.1c.2,.2,.4,.4,.6,.6l4.5,4.2c.3,.3,.6,.6,.9,.9l3.3,4c.2,.2,.4,.5,.6,.8l3.6,5.2,3,4.3c.4,.6,.8,1.3,1.1,2l.8,2c.1,.4,.3,.7,.4,1.1l1.1,3.6c.1,.3,.2,.6,.2,.9l1.4,6.6,.6-15.6v-.6l-.5-23c0-.4,0-.8-.1-1.3l-1.5-11.3c-.1-.5-.1-.9-.1-1.4l-.1-18.4v-7.8c0-.5,0-1.1,.1-1.6l.9-6.5c.1-.5,.1-1,.1-1.5v-8.1l-.4-8.3c0-.8-.2-1.5-.4-2.3l-1-3.8c-.1-.3-.2-.6-.3-.9l-1.2-3.4c-.1-.3-.2-.6-.4-.9-.6-1.3-2.4-5.1-2.4-5.2s0-4.1,.1-5.4c0-.3,0-.6,.1-.9l.7-6.3c0-.4,.1-.9,.1-1.3l-.4-24.3c0-1.2-.2-2.3-.6-3.4l-.2-.7c-.2-.5-.4-.9-.6-1.4l-1.5-3c-.4-.7-.8-1.4-1.3-2l-1.6-2c-.3-.4-.7-.8-1.1-1.2l-2.8-2.7c-.3-.2-.5-.5-.8-.7l-3.8-3-2.9-2.3c-.6-.5-1.3-.9-2-1.2l-2.9-1.4c-.9-.4-1.7-1-2.4-1.6l-1.9-1.7c-.2-.2-.4-.4-.6-.5l-4.5-3.4c-.2-.2-.5-.4-.8-.5l-5.1-3.3c-.2-.1-.5-.3-.7-.4l-5.4-2.9-7.3-3.8c-.4-.2-.8-.4-1.2-.5l-5-1.9c-.2-.1-.4-.1-.6-.2l-7.9-2.5-7.2-2c-.4-.1-.8-.2-1.1-.2l-7.8-1.3c-.2,0-.5-.1-.7-.1l-9.5-.9-16.7-.8-25.6-.4-40.1,.4c-.4,0-.7,0-1.1,.1l-8.6,1c-.4,0-.8,.1-1.2,.1l-37.2,.2h-1.1l-13.5-1.2c-.2,0-.5-.1-.8-.1l-7.2-1.2c-.2,0-.4-.1-.6-.1l-6.9-1.5c-.4-.1-.8-.2-1.2-.2l-8.8-.9c-.4,0-.8-.1-1.2-.2l-7.5-1.6-6.6-1.9c-.2,0-.5-.1-.7-.1l-8.2-1.2c-.7-.1-1.5-.1-2.2-.1l-4.7,.3c-.7,0-1.4,.2-2.1,.3l-7.8,2c-.4,.1-.7,.2-1.1,.2l-5.8,.9c-.4,.1-.8,.1-1.2,.2l-6.4,1.7-5.5,1.6c-.7,.2-1.5,.4-2.2,.4l-9.1,.8c-.8,.1-1.7,.2-2.5,.5l-5.3,1.7c-.5,.2-1,.4-1.5,.6l-3.9,1.9c-1.2,.6-2.2,1.3-3.1,2.2l-2.4,2.5-3.6,3.6c-.4,.4-.8,.8-1.1,1.2l-2.8,3.6c-.2,.3-.4,.6-.6,.9l-2.7,4.3c-.4,.6-.7,1.2-1,1.9l-1.3,3.4c-.3,.9-.5,1.8-.7,2.7l-1,9.1c-.1,.6-.1,1.2-.1,1.7l1.9,43.8v.6l-.7,50.1v.8l-3,34.7-3.3,23.7c0,.3-.1,.6-.1,.9l-1.5,28-.6,24.6-.2,32.3,.2,17.3c.2,.5,.7,.7,.9,.4h0Z"/>
  <g id="colors">
    <path id="blue" class="cls-6" d="M229.5,341.4c.8,0,1.6,0,2.4-.1,3.1-.1,5.7-.4,7.9-.6,1.5-.1,3-.3,4.4-.4h.9l.1-.9c1-15.5,3-32.8,13.8-42.2,4-3.4,8.8-5.4,14.3-6l.9-.1v-.9c.2-24.4-4.1-38.7-27.3-39.7-18.7-1.1-33.6,3.7-41.9,13.5-7.9,9.3-10,23-6.2,39.8,.1,.3,.1,.5,.1,.9,0,.5,.9,12.5,1,14.4,.3,1.9,.4,4.9,.6,10.1,.2,4.1,.5,12.7,1.3,20.6l.3,2.9,1.6-2.4c1.9-2.9,4.7-5.1,8.2-6.5,5.6-2.2,11.9-2.3,17.6-2.4h0Z"/>
    <path id="red" class="cls-5" d="M189.6,329.7c-.2-4-.3-7.8-.5-9.1,0-.2,0-.3-.1-.5l-.7-9.9h-1.1c-10.8,0-20.4,4.3-26.6,11.8l-.1,.2-.1,.2c-4.1,17.8-5.2,37.5-6.2,56.5-.6,10.2-1.1,20.8-2.2,31v.2c.8,6.6,2.4,10.9,4.7,12.7,.4,.4,1.6,1.3,4.4,1.3,.7,0,1.4,0,2.3-.2h.5c4.3-.3,8.8-.5,13.6-.7,6.3-.3,13.4-.6,19.7-1.1l.9-.1v-1c-.4-9.9,.5-20.4,1.5-30.6,.4-4.6,.8-8.8,1.1-13v-.6l-.6-.3c-7.4-4.3-9.3-18.5-10.5-46.8h0Z"/>
    <path id="yellow" class="cls-4" d="M261.6,427c.1-3.4,.2-10.4-.2-13l-.2-.5-.4-.2c-2.1-1.2-5.6-3.2-10.2-9.4-.5-.7-.9-1.5-1-2.4-1-6.3-1.3-13.6-1.6-20.6-.3-6.8-.6-13.8-1.5-19.6-.1-.3-.1-.6-.1-.8,0-3.9-.2-6.7-.6-8.3l-.2-.8h-.8c-1.1,0-2.6,.2-3.8,.3-2.4,.2-5.3,.5-8.8,.6-.8,0-1.6,0-2.5,.1-14.3,.3-17.8,2-17.7,8.4,.5,9.9-.5,20.4-1.5,30.6-.9,10-1.9,20.2-1.4,29.5v.7c-1,14.4,.2,38.9,19.8,40.8h.2c3.2,.4,6.2,.6,8.9,.6,7.6,0,13.2-1.7,16.9-5.1,5.4-5.1,7.6-15,6.7-30.4,0-.2,0-.3,0-.5h0Z"/>
    <path id="green" class="cls-3" d="M322.6,305.9l-.2-.1h-.3c-5.1-.4-10.3-1.1-15.3-1.8-9-1.3-18.2-2.6-26.6-1.7h-1c-5.4-.5-9.6,.6-12.9,3.4-8.4,7.2-9.5,24.9-10.2,37.8l-.2,2.8c0,.2,0,.4-.1,.6l-.1,.3,.1,.2c1,2.8,1.5,6.4,1.6,12.6v.1c1,6.3,1.3,13.5,1.6,20.4,.2,6.1,.5,12.4,1.2,17.7v.3l.2,.2c2.2,2.8,3.8,3.9,5.1,4.7l.2,.1h.7c4.4,.4,8.5,.5,12.4,.5,19.2,0,32.6-4.3,40-12.7l.1-.2,.1-.2c1.6-5.4,2.4-11.4,3.1-17.8,.8-6.8,1.6-13.8,3.7-20.4v-.1c6.2-24.3,5-41.3-3.2-46.7h0Z"/>
  </g>
  <path id="white_outline" data-name="white outline" class="cls-1" d="M326.8,294.6c-.8-.4-1.6-.6-2.5-.7-5-.3-10.2-1-15.8-1.8-7.3-1-14.8-2.1-22.2-2.2,.3-20.4-2.6-49.8-38.7-51.3-22.5-1.3-40.9,5-51.7,17.7-9,10.6-12.4,25-10.2,41.9-14.4,.4-27.2,6.7-35.4,17.6-.5,.7-.9,1.5-1.1,2.4-4.6,19.2-5.8,40-6.8,60-.6,10.3-1.1,21-2.2,31-.1,.5-.1,.9,0,1.4,.8,7.3,2.6,16.4,9.4,21.6,3.2,2.5,7.1,3.8,11.7,3.8,1.2,0,2.5-.1,3.8-.3,4.1-.3,8.4-.4,13.1-.6,6.4-.3,12.9-.5,19-1,1.4,24,12.2,38.4,30.7,40.3,3.6,.5,7.1,.7,10.2,.7,10.9,0,19.2-2.8,25.2-8.3,8.3-7.7,11.6-20.3,10.5-39.6,.1-4.6,.2-8.3,0-11.2,1.7,.1,3.4,.1,5,.1,23.9,0,40.8-6.1,50.4-18.1,.5-.6,.8-1.3,1.1-2,2.3-6.9,3.2-14.3,4-21.4,.8-6.6,1.5-12.8,3.3-18.3,0-.1,.1-.3,.1-.4,8.1-32.7,4.4-53.8-10.9-61.3h0Zm-121-29.9c8.1-9.6,22.7-14.2,41.1-13.1h.1c21.7,.9,26.5,13.8,26.3,38.7-5.7,.6-10.7,2.7-14.8,6.2-11.4,9.8-13.2,28.2-14.2,42.9-1.5,0-3,.2-4.5,.4-2.2,.2-4.8,.5-7.9,.6-.8,0-1.6,0-2.4,.1-5.7,.1-12.2,.3-17.8,2.5-3.8,1.5-6.8,3.9-8.7,6.9-.8-7.9-1.1-16.4-1.3-20.6-.2-5.3-.4-8.3-.6-10.2-.1-1.9-1-13.9-1-14.3v-.1c0-.3-.1-.6-.1-.9-3.9-16.6-1.9-30,5.8-39.1h0Zm-28.3,157.4c-4.8,.2-9.3,.4-13.6,.7-.2,0-.4,0-.6,.1-4,.6-5.4-.5-5.9-.9-3-2.3-4-9-4.3-12,1-10.2,1.6-20.8,2.2-31,1-19,2.1-38.6,6.2-56.3,6-7.3,15.4-11.4,25.9-11.4h.2l.6,9c0,.2,0,.4,.1,.6,.2,1.3,.4,5.2,.5,9,1.2,28.7,3.2,43.1,11.1,47.5-.3,4.2-.7,8.5-1.1,13-.9,10.2-1.9,20.8-1.5,30.7-6.3,.4-13.1,.7-19.8,1h0Zm76.7,35.1c-4.7,4.4-12.9,5.8-24.9,4.2h-.2c-18.8-1.8-19.9-25.7-18.9-39.8v-.8c-.5-9.2,.5-19.5,1.4-29.4,.9-10.2,1.9-20.8,1.5-30.8-.1-5.3,2.3-7,16.7-7.3,.9,0,1.7,0,2.5-.1,3.5-.1,6.5-.4,8.8-.6,1.3-.1,2.7-.3,3.8-.3,.2,1.1,.5,3.5,.6,8.1,0,.3,0,.7,.1,1,.9,5.7,1.2,12.7,1.5,19.4,.3,7.1,.6,14.4,1.6,20.7,.2,1,.6,2,1.2,2.8,4.7,6.4,8.3,8.4,10.5,9.7,0,0,.1,0,.1,.1,.4,2.5,.2,9.6,.1,12.8v.5c.9,15.2-1.2,24.9-6.4,29.8h0Zm70.8-104.9c-2.1,6.7-3,13.7-3.8,20.6-.8,6.3-1.5,12.3-3.1,17.7-8.7,9.9-26,13.9-51.6,11.8h-.5c-1.2-.8-2.7-1.9-4.8-4.5-.7-5.3-1-11.5-1.2-17.6-.3-7-.6-14.2-1.6-20.5-.1-5.5-.4-9.8-1.6-13,0-.2,.1-.4,.1-.7l.2-2.8c.8-12.7,1.8-30.1,9.9-37.1,3-2.6,7-3.6,12.1-3.1h1.3c8.2-.9,17.5,.5,26.4,1.7,5.1,.7,10.3,1.5,15.4,1.9,7.6,5.2,8.8,22,2.8,45.6h0Z"/>
  <path id="black_cards_outline" data-name="black cards outline" class="cls-2" d="M350.6,314.8v-7.1l-1.6-6.3-3.6-6-4-3.9-5.1-3.8-6.3-3.3-5.1-1.3-5.6-.9-6.6-.6-6-.3-5.7-.6-3.3-.7v-7.2l-1.6-6.1-1.1-5.6-1.5-5.4-2.6-6.1-3.3-6-4.3-5.1-5.5-3.5-7.9-3.2-7.2-2.7-6.2-1.1-5.9-.4-5.3-.5h-8l-12.7,2.2-4.4,.9-8.1,.9-8.3,4.1-7.4,2.8-6,4.5-2.9,4.8-3.6,5.6-3.7,6.6-1,5.7-1.3,5.2-2.7,7.3,.1,5.9v3.9l-5.2,1.3-5.8,1.8-6.6,2.6-5.3,3.8-4.4,5-3.8,5.2-3.5,5.3-3,5.9-2.2,7.6-1.1,7.2v14.8l-.4,10.1-2,12.2-1,12,.1,14.1-.3,9.6-.8,12.2,1.4,9.4,4.2,7.7,6.3,8.6,8.2,3.2,11,.8,15.6-.8,10.7-.5,.5,4.7,3.1,7.6,3.9,7.3,5.4,6.4,6.1,5.9,7.4,4.2,8.7,2.5,9.3,.6h8.4l11.3-.8,9-1.5,6.3-3.4,6.5-5.8,3.5-5.7,3.6-7.8,2.2-7.5,1.1-6.8,.7-7.6v-7.8l-.3-4.8,6.1-.7,9.3-.9,7.8-1,6.8-3.3,6.5-1.3,7.2-3.8,5.9-4.6,4.4-6.3,3.1-7.9,2-7.2,1.7-8.6,.9-8.6,1.2-5.8,1.8-7.1,1.5-10.4,.8-8,.5-8.5v-9.4l-1-8.1h0Zm-25.5,79.9c-8.6,10.8-24.2,16.2-46.5,16.2-1.4,0-3,0-4.8-.1l-5.4-.2,.3,5.4c.1,2.6,.1,6,0,10.9v.4c1,17.7-1.8,29-8.9,35.7-5,4.7-12.1,7-21.7,7-2.9,0-6.2-.2-9.6-.7h-.1c-20.1-2-25.3-20.5-26.2-35.6l-.3-5.1-5.1,.4c-6.1,.5-12.9,.8-18.9,1-4.6,.2-9,.4-13.1,.6h-.4c-4.8,.7-8.7-.1-11.8-2.5-5.3-4.1-6.8-11.9-7.5-18.2v-.3c1.1-10.2,1.6-20.9,2.2-31.3,1.1-19.8,2.2-40.3,6.7-59.1,.1-.2,.1-.4,.3-.5,7.2-9.5,18.7-15.2,31.6-15.6l5.5-.2-.7-5.5c-2-15.5,1.1-28.6,9.1-38,9.8-11.5,26.7-17.2,47.7-16,30.5,1.3,34.2,24.1,33.9,46.2l-.1,5.1h5.1c7.1,0,14.4,1.1,21.5,2.1,5.6,.8,11,1.6,16.2,1.9,.2,0,.4,.1,.6,.1h0c16.3,8,13.4,34.6,8.1,55.5-1.9,6-2.7,12.4-3.5,19.3s-1.7,14-3.8,20.4c-.2,.4-.3,.6-.4,.7h0Z"/>
  <g id="small_numbers" data-name="small numbers">
    <g id="lower">
      <path id="l9" class="cls-1" d="M336.82,584.2h.6l9.6,.9c.9,.1,1.7,.4,2.5,.8l7.7,4.6c2.9,1.7,3.8,5.4,2.1,8.2s-5.4,3.8-8.2,2.1l-6.5-3.9-7.4-.7-6.2,1.4-4,3.2-1.2,4.9-1.6,7,.5,7.4,1.8-1.3c.9-.7,1.9-1,3-1.1l10-.9h1.2l8.6,.9c1.8,.2,3.4,1.2,4.4,2.7l3.8,5.7c.9,1.3,1.2,2.9,.9,4.5l-2,9.9c-.1,.6-.3,1.2-.6,1.8l-4.6,8.2c-.8,1.5-2.3,2.6-4,3l-10.3,2.2c-.4,.1-.8,.1-1.3,.1h-7c-1.6,0-3.2-.7-4.4-1.9l-4.4-4.7c-1.5-1.6-2-3.7-1.4-5.6-2.1-.8-3.7-2.7-4-5l-1.7-17v-.2l-.5-8.7c0-.6,0-1.2,.1-1.7l1.8-8,1.7-7c.3-1.3,1-2.4,2.1-3.2l6.6-5.3c.7-.6,1.5-1,2.4-1.2l8.5-2c.5-.1,1-.1,1.4-.1h0Zm8.4,45.2l-5.2-.5-7.8,.7-3.5,2.6-2.5,7.3c.9,.3,1.7,.8,2.3,1.5l2.7,2.8h3.8l7-1.5,2.8-5,1.3-6.6-.9-1.3h0Z"/>
      <path id="l8" class="cls-1" d="M337.02,586.4c.5,0,.9,0,1.4,.1l1.9,.2c.6,.1,1.1,.1,1.7,.3l2.9,.6c1.4,.3,2.8,.8,4,1.5l1.3,.7c1,.5,1.9,1.2,2.7,2l1,1c.9,.8,1.6,1.7,2.2,2.6l.2,.2c1,1.6,1.8,3.3,2.1,5.1l.2,.9c.2,1.1,.3,2.2,.3,3.3v1.4c0,1.4-.3,2.8-.7,4.2l-.4,1c-.6,2-1.7,3.7-3.1,5.2l1,.7c1.1,.8,2.1,1.7,3,2.8l.8,.9c.8,1,1.5,2.1,2,3.2l.6,1.3c.8,1.8,1.2,3.7,1.3,5.6v1.7c0,1.1-.1,2.2-.3,3.2l-.4,2c-.2,1.2-.6,2.3-1.1,3.4l-.3,.6c-.9,1.8-2.1,3.5-3.7,4.8l-1.1,1c-.8,.7-1.7,1.3-2.7,1.8l-1.5,.8c-.9,.5-1.9,.8-2.8,1.1l-1.9,.5c-.7,.2-1.3,.3-2,.4l-2.1,.3c-.6,.1-1.2,.1-1.8,.1h-3.6l-2.3-.2c-1.8-.1-3.4-.6-5-1.3l-1.5-.7c-1.1-.5-2.2-1.2-3.1-2l-1.1-.9c-1.7-1.4-3.1-3.2-4-5.2l-.2-.5c-.5-1-.8-2.1-1-3.1l-.4-1.8c-.3-1.5-.4-2.9-.2-4.4l.3-2.7c.1-.8,.2-1.5,.4-2.2l.3-1.3c.7-2.5,2-4.8,3.9-6.7l.9-.9c-.6-.4-1.2-.8-1.8-1.3l-.4-.4c-1.2-1-2.2-2.3-3.1-3.6l-.5-.9c-1-1.7-1.6-3.5-1.9-5.5l-.2-1.7c-.1-1.1-.2-2.2-.1-3.4l.1-1.5c.2-1.8,.7-3.6,1.5-5.2,1-2,2.5-3.7,4.3-5l.2-.2c.6-.5,1.3-.9,2-1.2l1.2-.6c1.3-.7,2.6-1.1,4.1-1.4l1.6-.3c.6-.1,1.2-.2,1.8-.2l2.3-.1c.3-.1,.5-.1,.8-.1h0Zm3.6,25l1.4-.6c.1-.1,.2-.1,.4-.2l1.8-1.5c.1,0,.1-.1,.2-.2l.9-1c.1-.2,.3-.3,.3-.6l.4-1c0-.1,.1-.3,.1-.4v-1.8l-.2-.9c0-.2-.1-.4-.2-.5l-.2-.2c-.1-.1-.1-.2-.2-.3l-1-1c-.1-.1-.2-.2-.3-.2l-1.3-.7c-.1-.1-.3-.1-.4-.2l-2.9-.6h-.2l-1.9-.2h-.2l-2.3,.1h-.2l-1.6,.3c-.1,0-.3,.1-.4,.2l-1.2,.6c-.1,0-.1,.1-.2,.1l-.2,.2c-.2,.1-.4,.3-.5,.5s-.1,.4-.2,.5l-.1,1.5v.4l.2,1.7c0,.2,.1,.4,.2,.6l.5,.9c.1,.2,.2,.3,.3,.4l.4,.4c.1,.1,.3,.2,.5,.3l2.5,.8c.6,.2,1.1,.4,1.6,.7l2.9,1.4c.1,0,.1,.1,.2,.1l1.1,.4h0Zm1,28.5h.2l2.1-.3h.2l1.9-.5c.1,0,.2-.1,.3-.1l1.5-.8c.1,0,.2-.1,.3-.2l1.1-1c.2-.1,.3-.3,.4-.5l.3-.6c0-.1,.1-.2,.1-.4l.4-1.9v-2c0-.2,0-.4-.1-.6l-.6-1.3c-.1-.1-.1-.2-.2-.3l-.8-.9c-.1-.1-.2-.2-.3-.3l-2.3-1.6c-.1-.1-.3-.2-.5-.2l-3-.8-1.9-.6-.7,.2q-.1,0-.2,.1l-3,1.2c-.1,0-.2,.1-.3,.2l-2.2,1.6c-.1,0-.1,.1-.2,.1l-.9,.9c-.2,.2-.3,.4-.4,.7l-.3,1.3v.2l-.3,2.7v.5l.4,1.8c0,.1,.1,.2,.1,.3l.2,.5c.1,.2,.2,.4,.4,.5l1.1,.9c.1,.1,.2,.2,.3,.2l1.5,.7c.2,.1,.4,.1,.5,.1l2.4,.2h2.5Z"/>
      <path id="l7" class="cls-1" d="M319.02,625.5l3-.1-8,18.8c-.7,1.8-.6,3.8,.4,5.4s2.6,2.7,4.5,2.9l19.6,2.1h1.1l17.4-1.3c3.3-.2,5.8-3.1,5.5-6.4s-3.1-5.8-6.4-5.5l-16.9,1.3-11-1.2,6.9-16.3,12.1-.2c3.3-.1,6-2.8,5.9-6.1s-2.7-5.9-6-5.9h-.1l-5.5,.1,13.7-21.5c1.8-2.8,1-6.5-1.9-8.3-1-.6-2.1-.9-3.2-.9-2,0-3.9,1-5.1,2.8l-17.7,27.9c-.1,.1-.1,.2-.2,.3l-8.4,.2c-3.3,.1-6,2.8-5.9,6.1s2.9,5.9,6.2,5.8h0Z"/>
      <path id="l6" class="cls-1" d="M336.82,587.6c1.2,0,2.4,.1,3.6,.3l2,.3c3.3,.6,6.4,2.1,8.9,4.5l2.7,2.6c2.4,2.2,4.2,5.1,5.3,8.1l.7,2.1c1,2.8,1.3,5.6,1.1,8.5l-.6,7.2c-.1,1.3-.3,2.5-.7,3.7l-2.1,7.2c-1,3.6-2.7,6.9-5,9.9-3,4.1-7.1,7.4-11.7,9.6l-5,2.3c-3.2,1.5-7.1,.1-8.6-3.1-1.5-3.2-.1-7.1,3.1-8.7l5-2.3c2.7-1.3,5.1-3.2,6.9-5.6,1.3-1.8,2.3-3.7,2.9-5.8l2.1-7.2c0-.2,.1-.3,.1-.5-.3,.1-.6,.2-.9,.2l-7.1,1.5c-1.1,.2-2.3,.3-3.4,.3l-4.7-.1c-1.6,0-3.1-.3-4.6-.9l-.5-.2c-3.9-1.4-7-4.5-8.5-8.4-.9-2.2-1.2-4.7-.9-7.1l.4-3.2c.4-2.9,1.6-5.6,3.5-7.8l1.7-1.9c1.6-1.8,3.6-3.2,5.9-4l1.2-.4c2.3-.7,4.8-1.1,7.2-1.1h0Zm10,19.5c-.4-.9-1-1.7-1.7-2.4l-2.7-2.6c-.6-.6-1.3-.9-2.1-1.1l-2-.3c-1.4-.2-2.8-.1-4.1,.4l-1.2,.4c-.2,.1-.5,.2-.6,.4l-1.7,1.9c-.2,.2-.3,.5-.4,.8l-.4,3.2c0,.2,0,.5,.1,.7,.2,.4,.5,.7,.9,.9l.5,.2c.1,.1,.3,.1,.5,.1l4.7,.1h.4l7.1-1.5c.1,0,.2,0,.2-.1l2.5-1.1h0Z"/>
      <path id="l5" class="cls-1" d="M335.82,584.8h.3l4.2,.1c5.5,.1,10.8,2.3,14.8,6.1l2.6,2.5c2.4,2.3,2.5,6.1,.2,8.5s-6.1,2.5-8.5,.2l-2.6-2.5c-1.9-1.8-4.3-2.7-6.8-2.8l-4.2-.1h-.1l-1.8,.3c-3.2,.5-6.1,2-8.4,4.2l-.1,.1s-.1,.1-.1,.2l-.4,.9c-1.3,3-1.8,6.3-1.3,9.5v.1l.7,1.9c.7,1.9,2,3.4,3.8,4.3,.1,0,.2,.1,.3,.1l7.1,.2h.1l13.6,.7c1.7,.1,3.3,.9,4.3,2.2s1.5,3,1.3,4.7l-.4,3.1c-.6,4.1-1.8,8-3.6,11.8l-2.8,5.5c-2.1,4.3-6.5,7-11.3,7.1l-15.6,.1h0c-3.3,0-6-2.7-6-6s2.6-6,6-6l15.6-.1c.3,0,.5-.2,.6-.4l2.8-5.5c.8-1.5,1.4-3.1,1.8-4.7l-6.7-.3-7.1-.2c-1.8-.1-3.7-.5-5.3-1.3-4.6-2.3-8-6.2-9.8-11l-.7-1.9c-.3-.8-.5-1.6-.6-2.5-.8-5.5,0-11,2.2-16l.4-.9c.6-1.5,1.6-2.8,2.7-3.9l.1-.1c4.1-4,9.2-6.6,14.9-7.5l1.8-.3c.7-.3,1.3-.4,2-.4h0Z"/>
      <path id="l4" class="cls-1" d="M323.12,621c1.3,.2,2.9,.4,4.6,.6l-.7,6.2c-.4,3.6,2.2,6.8,5.8,7.2,3.6,.4,6.8-2.2,7.2-5.8l.7-6.1c1.1,.1,2.2,.2,3.3,.3l-1.5,9.2-4.1,12.6c-1.1,3.4,.7,7.1,4.1,8.2s7.1-.7,8.2-4.2l4.3-13.1c.1-.3,.2-.7,.2-1l2.6-16.6c.3-1.8-.2-3.6-1.3-5.1-1.1-1.4-2.8-2.3-4.6-2.4-2.6-.2-6.3-.5-10.3-1l.1-8.2,.5-6.7c.2-3.6-2.5-6.7-6-6.9h-.5c-3.4,0-6.2,2.6-6.5,6l-.5,7v7.3c-1.4-.2-2.6-.3-3.7-.5-.3,0-.6-.1-.9-.1-3.2,0-6,2.3-6.4,5.6-.6,3.7,1.9,7,5.4,7.5h0Z"/>
      <path id="l3" class="cls-1" d="M339.12,584.7c.5,0,1,.1,1.4,.2l6.9,1.7c1.3,.3,2.5,1.1,3.3,2.1l4.6,5.9c2,2.6,1.6,6.4-1,8.4s-6.4,1.6-8.4-1l-3.3-4.2-4-1-6.6,.4-5,1.7-2.7,2.5-1.6,3.3-.3,4.6,1.3,4.7,1.3,1.4,4.5,.7c2.5,.4,4.5,2.3,5,4.9,.5,2.5-.7,5-2.9,6.3l-4.1,2.3-1.3,2.7,.3,3.8,2.4,3.7,3.5,3.4,2.3,.8,6.1-.4,4-1.3,4-3.2,1.6-4c1.2-3.1,4.7-4.5,7.8-3.3s4.5,4.7,3.3,7.8l-2.2,5.5c-.4,1-1,1.8-1.9,2.5l-6.1,4.8c-.6,.5-1.2,.8-1.9,1l-5.7,1.8c-.5,.2-1,.2-1.4,.3l-8.1,.5c-.8,0-1.6-.1-2.4-.3l-4.7-1.7c-.8-.3-1.5-.8-2.1-1.3l-5-4.8c-.3-.3-.6-.7-.9-1.1l-3.5-5.6c-.5-.8-.8-1.8-.9-2.7l-.5-6.9c-.1-1.1,.1-2.1,.6-3.1l2.2-4.4-2.8-2.9c-.7-.7-1.2-1.6-1.5-2.6l-2-7.2c-.2-.6-.2-1.3-.2-1.9l.4-6.8c0-.8,.2-1.6,.6-2.3l2.6-5.3c.3-.7,.8-1.2,1.3-1.7l4.4-4.2c.6-.6,1.4-1,2.2-1.3l7-2.3c.5-.2,1-.3,1.5-.3l8.4-.5c0-.1,.1-.1,.2-.1h0Z"/>
      <path id="l2" class="cls-1" d="M322.82,598.9l3.5,.9h.2l3.9,.9,4.2,1.2-2.6,4.1c-.3,.5-.5,1-.7,1.5l-2.4,7.6c-.1,.3-.1,.5-.2,.8l-1,6.5v.4l-.6,7.2v6.4c0,.4,0,.8,.1,1.1l.9,4.8c.1,.6,.3,1.1,.6,1.7l1.7,3.3c.5,.9,1.1,1.6,2,2.2l3.3,2.2c1,.7,2.2,1,3.4,1h2.9c.6,0,1.2-.1,1.7-.3l4.3-1.3c.2-.1,.4-.1,.6-.2l3.6-1.6c3-1.3,4.5-4.8,3.1-7.9s-4.8-4.5-7.9-3.2l-3.4,1.4-3.1,1h-.1l-.5-.3-.6-1.1-.6-3.4v-5l.6-6.7,.9-5.9,2-6.4,2.4-3.8,1.8-1.7,2.8-.8h2.4c3.2,0,5.8-2.5,6-5.7s-2.2-6-5.4-6.3l-7.1-.7-5.8-1.8-6.1-1.8c-.1,0-.3-.1-.4-.1l-4-.9-3.4-.9c-.5-.1-1-.2-1.5-.2-2.7,0-5.1,1.8-5.8,4.5-.9,3.1,1,6.4,4.3,7.3h0Z"/>
      <path id="l1" class="cls-1" d="M324.82,587.3c3.2,0,5.9,2.5,6,5.7l.1,3v.4l-.2,10.1,.6,11.4v.2l.3,14.2,.1,3.9,11.1-10.8,9.2-9.2c2.3-2.3,6.1-2.3,8.5,0s2.3,6.1,0,8.5l-9.3,9.3-20.8,20.3c-1.7,1.7-4.2,2.2-6.4,1.3-2.2-.9-3.7-3-3.8-5.3l-.6-17.5v-.1l-.3-14.1-.6-11.5v-.5l.3-10.1-.1-2.8c-.1-3.3,2.4-6.1,5.7-6.2,0-.2,.1-.2,.2-.2h0Z"/>
      <path id="l0" class="cls-1" d="M339.12,587c1.2,0,2.5,.2,3.7,.5l3.8,1c2.3,.6,4.5,1.8,6.2,3.5l2,1.9c1.3,1.3,2.4,2.7,3.2,4.4l1.8,3.9c.6,1.3,1,2.7,1.2,4.1l.8,5.3c.1,.4,.1,.8,.1,1.2l.4,7.1c.1,1.1,0,2.1-.2,3.2l-.8,4.7c0,.3-.1,.6-.2,.9l-1.3,5.6c-.2,.8-.5,1.7-.8,2.5l-2,4.7c-.4,1-.9,1.9-1.6,2.8l-2.1,2.9c-1.2,1.6-2.6,3-4.3,4l-2.9,1.7c-1.8,1.1-3.8,1.7-5.8,1.9l-3.3,.3c-.4,0-.8,.1-1.2,.1h0l-3.8,.1c-4.4,.1-8.7-1.9-11.5-5.3-1.1-1.3-1.9-2.8-2.4-4.4l-1.3-3.7c-.1-.3-.2-.7-.3-1l-1.3-4.8c-.1-.6-.3-1.2-.4-1.8l-1-7.2v-.2l-.8-7.4c-.1-1.4-.1-2.9,.2-4.3l1.4-7c.1-.8,.4-1.5,.6-2.2l1.4-3.8c.6-1.7,1.5-3.2,2.6-4.5l3-3.4c.7-.8,1.6-1.6,2.5-2.3l2.5-1.8c1.8-1.3,3.9-2.2,6-2.5l3.5-.6c.8,0,1.6-.1,2.4-.1h0Zm-3.6,56h.2l3.3-.3c.4,0,.7-.2,1-.3l2.9-1.7c.3-.2,.5-.4,.7-.7l2.1-2.9c.1-.1,.2-.3,.3-.5l2-4.7c.1-.1,.1-.3,.1-.4l1.3-5.7,.8-4.7v-.5l-.4-7.1v-.2l-.8-5.3c0-.2-.1-.5-.2-.7l-1.8-3.9c-.1-.3-.3-.5-.5-.7l-2-1.9c-.3-.3-.6-.5-1-.6l-3.8-1c-.3-.1-.7-.1-1,0l-3.5,.6c-.4,.1-.7,.2-1,.4l-2.5,1.8c-.1,.1-.3,.2-.4,.4l-3,3.4c-.2,.2-.3,.5-.5,.8l-1.4,3.8c0,.1-.1,.2-.1,.4l-1.4,7c0,.2-.1,.5,0,.7l.8,7.3,1,7.1c0,.1,0,.2,.1,.3l1.3,4.8v.2l1.3,3.7c.1,.3,.2,.5,.4,.7,.5,.6,1.2,.9,1.9,.9l3.8-.5h0Z"/>
    </g>
    <g id="upper">
      <path id="u9" class="cls-1" d="M142.35,130.17h-.6l-9.6-.9c-.9-.1-1.7-.4-2.5-.8l-7.7-4.6c-2.9-1.7-3.8-5.4-2.1-8.2,1.7-2.8,5.4-3.8,8.2-2.1l6.5,3.9,7.4,.7,6.2-1.4,4-3.2,1.2-4.9,1.6-7-.4-7.4-1.8,1.3c-.9,.7-1.9,1-3,1.1l-10,.9h-1.2l-8.7-.9c-1.8-.2-3.4-1.2-4.4-2.7l-3.8-5.7c-.9-1.3-1.2-2.9-.9-4.5l2-9.9c.1-.6,.3-1.2,.6-1.8l4.6-8.2c.8-1.5,2.3-2.6,4-3l10.3-2.2c.4-.1,.8-.1,1.3-.1h7c1.6,0,3.2,.7,4.4,1.9l4.4,4.7c1.5,1.6,1.9,3.7,1.4,5.6,2.1,.8,3.7,2.7,3.9,5.1l1.7,17v.2l.5,8.6c0,.6,0,1.2-.1,1.7l-1.8,8-1.7,7c-.3,1.3-1,2.4-2.1,3.2l-6.6,5.3c-.7,.6-1.5,1-2.4,1.2l-8.5,2c-.4,.1-.9,.1-1.3,.1h0Zm-8.4-45.2l5.2,.6,7.8-.7,3.5-2.6,2.5-7.3c-.9-.3-1.7-.8-2.3-1.5l-2.7-2.8h-3.8l-7,1.5-2.8,5-1.3,6.6,.9,1.2h0Z"/>
      <path id="u8" class="cls-1" d="M142.15,127.97c-.5,0-.9,0-1.4-.1l-1.9-.2c-.6-.1-1.1-.1-1.7-.3l-2.9-.6c-1.4-.3-2.8-.8-4-1.5l-1.3-.7c-1-.6-1.9-1.2-2.7-2l-1.1-1c-.9-.8-1.6-1.7-2.2-2.6l-.2-.2c-1.1-1.6-1.8-3.3-2.1-5.1l-.2-.9c-.2-1.1-.3-2.2-.3-3.3v-1.4c0-1.4,.3-2.8,.7-4.2l.4-1.1c.6-2,1.7-3.7,3.1-5.2l-1-.7c-1.1-.8-2.1-1.7-3-2.8l-.8-.9c-.8-1-1.5-2.1-2-3.2l-.6-1.3c-.8-1.8-1.2-3.7-1.3-5.6v-1.7c0-1.1,.1-2.2,.3-3.2l.4-1.9c.2-1.2,.6-2.3,1.2-3.4l.3-.6c.9-1.8,2.1-3.4,3.7-4.8l1.1-1c.8-.7,1.7-1.3,2.7-1.8l1.5-.8c.9-.5,1.9-.8,2.8-1.1l1.9-.5c.7-.2,1.3-.3,2-.4l2.1-.3c.6-.1,1.2-.1,1.8-.1h3.5l2.3,.2c1.8,.1,3.4,.6,5,1.3l1.6,.7c1.1,.5,2.2,1.2,3.1,2l1.1,.9c1.7,1.4,3.1,3.2,4,5.2l.2,.5c.4,1,.8,2.1,1,3.1l.4,1.8c.3,1.4,.4,2.9,.2,4.4l-.3,2.7c-.1,.8-.2,1.5-.4,2.2l-.3,1.3c-.7,2.5-2,4.8-3.9,6.7l-.9,.9c.6,.4,1.2,.8,1.8,1.3l.4,.4c1.2,1,2.2,2.3,3.1,3.6l.6,.9c1,1.7,1.6,3.5,1.9,5.5l.2,1.7c.1,1.1,.2,2.2,.1,3.4l-.1,1.5c-.2,1.8-.7,3.6-1.6,5.2-1,2-2.5,3.7-4.3,5l-.2,.2c-.6,.5-1.3,.9-2,1.2l-1.2,.6c-1.3,.7-2.6,1.1-4.1,1.4l-1.6,.3c-.6,.1-1.2,.2-1.8,.2l-2.3,.1c-.3,.1-.5,.1-.8,.1h0Zm-3.6-25l-1.4,.6c-.1,.1-.2,.1-.4,.2l-1.8,1.5q-.1,.1-.2,.2l-.9,.9c-.1,.2-.3,.3-.3,.6l-.4,1c-.1,.1-.1,.3-.1,.4v1.8l.2,.9c0,.2,.1,.4,.2,.5l.2,.2c.1,.1,.1,.2,.2,.3l1.1,1c.1,.1,.2,.2,.3,.2l1.3,.7c.1,.1,.3,.1,.4,.2l2.9,.6h.2l1.9,.2h.2l2.3-.1h.2l1.6-.3c.1,0,.3-.1,.4-.2l1.2-.6c.1,0,.1-.1,.2-.1l.2-.2c.2-.1,.4-.3,.5-.5s.1-.4,.2-.6l.1-1.6v-.4l-.2-1.7c0-.2-.1-.4-.2-.6l-.6-.9c-.1-.2-.2-.3-.3-.4l-.4-.4c-.1-.1-.3-.2-.5-.3l-2.5-.8c-.6-.2-1.1-.4-1.6-.7l-2.9-1.4c-.1,0-.1-.1-.2-.1l-1.1-.1h0Zm-1-28.5h-.2l-2.1,.3h-.2l-1.9,.5c-.1,0-.2,.1-.3,.1l-1.5,.8c-.1,.1-.2,.1-.3,.2l-1.1,1c-.2,.1-.3,.3-.4,.5l-.3,.6c-.1,.1-.1,.2-.1,.4l-.4,1.9v2c0,.2,.1,.4,.1,.6l.6,1.3c.1,.1,.1,.2,.2,.3l.8,.9c.1,.1,.2,.2,.3,.3l2.3,1.6c.1,.1,.3,.2,.5,.2l3,.8,1.9,.6,.7-.2q.1,0,.2-.1l3-1.2c.1,0,.2-.1,.3-.2l2.2-1.6c.1,0,.1-.1,.2-.1l.9-.9c.2-.2,.3-.4,.4-.7l.3-1.3v-.2l.3-2.7v-.5l-.4-1.8c0-.1-.1-.2-.1-.3l-.2-.5c-.1-.2-.2-.4-.4-.6l-1.1-.9c-.1-.1-.2-.2-.3-.2l-1.6-.7c-.2-.1-.4-.1-.5-.1l-2.4-.2-2.4,.1h0Z"/>
      <path id="u7" class="cls-1" d="M160.15,88.87l-3,.1,8-18.8c.7-1.8,.6-3.8-.4-5.4s-2.6-2.7-4.5-2.9l-19.6-2.2h-1.1l-17.4,1.3c-3.3,.2-5.8,3.1-5.5,6.4,.2,3.3,3.1,5.8,6.4,5.5l16.8-1.3,11,1.2-6.9,16.3-12.1,.3c-3.3,.1-5.9,2.8-5.9,6.1,.1,3.3,2.7,5.9,6,5.9h.1l5.5-.1-13.7,21.5c-1.8,2.8-.9,6.5,1.9,8.3,1,.6,2.1,.9,3.2,.9,2,0,3.9-1,5.1-2.8l17.7-27.9c.1-.1,.1-.2,.2-.3l8.4-.2c3.3-.1,5.9-2.8,5.9-6.1s-2.8-5.9-6.1-5.8h0Z"/>
      <path id="u6" class="cls-1" d="M142.35,126.77c-1.2,0-2.4-.1-3.6-.3l-2-.3c-3.3-.6-6.4-2.1-8.9-4.4l-2.7-2.6c-2.4-2.2-4.2-5.1-5.3-8.1l-.7-2.1c-1-2.8-1.3-5.6-1.1-8.5l.6-7.2c.1-1.3,.3-2.5,.7-3.7l2.1-7.2c1.1-3.6,2.7-6.9,4.9-9.9,3.1-4.1,7.1-7.4,11.7-9.6l5-2.3c3.2-1.5,7.1-.1,8.6,3.1,1.5,3.2,.1,7.1-3.1,8.7l-5,2.3c-2.7,1.3-5.1,3.2-6.9,5.6-1.3,1.8-2.3,3.7-2.9,5.8l-2.1,7.2c-.1,.2-.1,.3-.1,.5,.3-.1,.6-.2,.9-.2l7.1-1.5c1.1-.2,2.3-.3,3.4-.3l4.9-.1c1.6,0,3.1,.3,4.6,.9l.5,.2c3.9,1.4,7,4.5,8.6,8.4,.9,2.2,1.2,4.7,.9,7.1l-.4,3.2c-.4,2.9-1.6,5.6-3.6,7.8l-1.7,1.9c-1.6,1.8-3.6,3.2-5.9,4l-1.2,.4c-2.4,.8-4.9,1.2-7.3,1.2h0Zm-10-19.5c.4,.9,1,1.7,1.7,2.4l2.7,2.6c.6,.6,1.3,.9,2.1,1.1l2,.3c1.4,.2,2.8,.1,4.1-.4l1.2-.4c.2-.1,.4-.2,.6-.4l1.7-1.9c.2-.2,.3-.5,.4-.8l.4-3.2c0-.2,0-.5-.1-.7-.2-.4-.5-.7-.9-.9l-.5-.2c-.1-.1-.3-.1-.5-.1l-4.7-.1h-.4l-7.1,1.5c-.1,0-.2,0-.2,.1l-2.5,1.1h0Z"/>
      <path id="u5" class="cls-1" d="M143.35,129.57h-.3l-4.2-.1c-5.5-.1-10.8-2.3-14.8-6.1l-2.6-2.5c-2.4-2.3-2.5-6.1-.2-8.5s6.1-2.5,8.5-.2l2.6,2.5c1.9,1.8,4.3,2.7,6.8,2.8l4.2,.1h.1l1.8-.3c3.2-.5,6.1-1.9,8.4-4.2l.1-.1c.1,0,.1-.1,.1-.2l.4-.9c1.3-3,1.8-6.3,1.3-9.5v-.1l-.7-1.9c-.7-1.9-2-3.4-3.8-4.3-.1-.1-.2-.1-.3-.1l-7.1-.2h-.1l-13.6-.7c-1.7-.1-3.3-.9-4.3-2.2s-1.6-3-1.3-4.7l.4-3.1c.6-4.1,1.8-8.1,3.6-11.8l2.8-5.5c2.1-4.3,6.5-7,11.3-7.1l15.6-.1h0c3.3,0,6,2.7,6,6s-2.6,6-6,6l-15.6,.1c-.3,0-.5,.2-.6,.4l-2.8,5.5c-.8,1.5-1.4,3.1-1.8,4.7l6.7,.3,7.1,.2c1.8,.1,3.7,.5,5.3,1.3,4.6,2.3,8,6.2,9.8,11l.7,1.9c.3,.8,.5,1.6,.6,2.5,.8,5.5,0,11-2.2,16.1l-.4,1.1c-.6,1.5-1.6,2.8-2.7,3.9l-.1,.1c-4.1,4-9.2,6.6-14.9,7.5l-1.8,.3c-.7,0-1.3,.1-2,.1h0Z"/>
      <path id="u4" class="cls-1" d="M156.05,93.37c-1.3-.2-2.9-.4-4.6-.6l.7-6.2c.4-3.6-2.2-6.8-5.8-7.2-3.6-.4-6.8,2.2-7.2,5.8l-.7,6.1c-1.1-.1-2.2-.2-3.3-.3l1.5-9.2,4.1-12.6c1.1-3.4-.7-7.1-4.1-8.2-3.4-1.1-7.1,.7-8.2,4.1l-4.3,13.1c-.1,.3-.2,.7-.2,1l-2.6,16.6c-.3,1.8,.2,3.6,1.3,5.1,1.1,1.4,2.8,2.3,4.6,2.4,2.6,.2,6.3,.5,10.3,1l-.1,8.2-.5,6.7c-.2,3.6,2.4,6.7,6,6.9h.5c3.4,0,6.2-2.6,6.5-6l.5-6.9v-.4l.1-6.9c1.4,.2,2.6,.3,3.7,.5,.3,.1,.6,.1,.9,.1,3.2,0,6-2.3,6.4-5.6,.5-3.7-1.9-7-5.5-7.5h0Z"/>
      <path id="u3" class="cls-1" d="M140.05,129.67c-.5,0-1-.1-1.4-.2l-6.9-1.7c-1.3-.3-2.5-1.1-3.3-2.1l-4.6-5.9c-2-2.6-1.6-6.4,1.1-8.4,2.6-2,6.4-1.6,8.4,1.1l3.3,4.2,4,1,6.6-.4,5.1-1.7,2.7-2.5,1.6-3.3,.3-4.6-1.3-4.7-1.3-1.4-4.6-.7c-2.5-.4-4.5-2.3-5-4.9-.4-2.5,.7-5,2.9-6.3l4.1-2.3,1.3-2.7-.3-3.8-2.4-3.7-3.5-3.4-2.3-.8-6.1,.4-4,1.3-4,3.2-1.6,4c-1.2,3.1-4.7,4.6-7.8,3.3-3.1-1.2-4.6-4.7-3.3-7.8l2.2-5.5c.4-1,1-1.8,1.9-2.5l6.1-4.8c.6-.5,1.2-.8,1.9-1l5.7-1.8c.5-.2,.9-.2,1.4-.3l8.1-.5c.8,0,1.6,.1,2.4,.3l4.7,1.7c.8,.3,1.5,.8,2.1,1.3l5,4.8c.3,.3,.6,.7,.9,1.1l3.5,5.6c.5,.8,.8,1.8,.9,2.7l.5,6.9c.1,1.1-.1,2.1-.6,3.1l-2.2,4.4,2.8,2.9c.7,.7,1.2,1.6,1.5,2.6l2,7.2c.2,.6,.2,1.3,.2,1.9l-.4,6.8c-.1,.8-.2,1.6-.6,2.3l-2.6,5.3c-.3,.7-.8,1.2-1.3,1.7l-4.4,4.2c-.6,.6-1.4,1.1-2.2,1.3l-7,2.3c-.5,.2-1,.3-1.5,.3l-8.4,.5h-.3Z"/>
      <path id="u2" class="cls-1" d="M156.35,115.47l-3.5-.9h-.2l-3.8-.9-4.2-1.2,2.6-4.1c.3-.5,.5-.9,.7-1.5l2.4-7.6c.1-.3,.1-.5,.2-.8l1-6.5c0-.1,0-.3,.1-.4l.6-7.2v-6.4c0-.4,0-.8-.1-1.1l-.9-4.8c-.1-.6-.3-1.1-.6-1.7l-1.7-3.3c-.5-.9-1.1-1.6-1.9-2.2l-3.3-2.2c-1-.7-2.2-1-3.4-1h-2.9c-.6,0-1.2,.1-1.7,.3l-4.3,1.3c-.2,.1-.4,.1-.6,.2l-3.6,1.6c-3.1,1.3-4.5,4.8-3.1,7.9,1.3,3.1,4.8,4.5,7.9,3.2l3.4-1.4,3.1-.9h.1l.5,.3,.6,1.1,.6,3.4v5l-.6,6.7-.9,5.9-2,6.4-2.4,3.8-1.8,1.7-2.8,.8h-2.4c-3.2,0-5.8,2.5-6,5.7s2.2,5.9,5.4,6.3l7.1,.7,5.8,1.8,6.1,1.8c.1,0,.3,.1,.4,.1l3.9,.9,3.4,.9c.5,.1,1,.2,1.5,.2,2.7,0,5.1-1.8,5.8-4.5,.7-3.3-1.2-6.5-4.5-7.4h0Z"/>
      <path id="u1" class="cls-1" d="M154.35,127.07c-3.2,0-5.9-2.5-6-5.7l-.1-3v-.4l.2-10.1-.6-11.4v-.2l-.3-14.2-.1-3.9-11.1,10.8-9.2,9.2c-2.3,2.3-6.1,2.3-8.5,0s-2.3-6.1,0-8.5l9.3-9.3,20.8-20.3c1.7-1.7,4.2-2.2,6.4-1.3s3.7,3,3.8,5.3l.6,17.5v.1l.3,14.1,.6,11.5v.5l-.3,10.1,.1,2.8c.1,3.3-2.4,6.1-5.7,6.2,0,.2-.1,.2-.2,.2h0Z"/>
      <path id="u0" class="cls-1" d="M140.05,127.37c-1.2,0-2.5-.2-3.7-.5l-3.8-1c-2.3-.6-4.5-1.8-6.2-3.5l-2-1.9c-1.3-1.3-2.4-2.7-3.2-4.4l-1.8-3.9c-.6-1.3-1-2.7-1.2-4.1l-.8-5.3c-.1-.4-.1-.8-.1-1.2l-.4-7.1c-.1-1.1,0-2.1,.2-3.2l.8-4.7c.1-.3,.1-.6,.2-.9l1.3-5.6c.2-.8,.5-1.7,.8-2.5l2-4.7c.4-1,.9-1.9,1.6-2.8l2.1-2.9c1.2-1.6,2.6-3,4.3-4l2.9-1.7c1.8-1.1,3.8-1.7,5.8-1.9l3.3-.3c.4,0,.8-.1,1.2-.1h0l3.8-.1c4.4-.1,8.7,1.9,11.5,5.3,1.1,1.3,1.9,2.8,2.4,4.4l1.3,3.7c.1,.3,.2,.7,.3,1l1.3,4.8c.1,.6,.3,1.2,.4,1.8l1,7.2v.2l.8,7.4c.1,1.4,.1,2.9-.2,4.3l-1.4,7c-.1,.8-.4,1.5-.6,2.2l-1.4,3.8c-.6,1.7-1.5,3.2-2.6,4.5l-3,3.4c-.7,.8-1.6,1.6-2.5,2.3l-2.5,1.8c-1.8,1.3-3.9,2.2-6,2.5l-3.4,.6c-.9,0-1.7,.1-2.5,.1h0Zm3.6-56h-.2l-3.3,.3c-.4,0-.7,.2-1,.3l-2.9,1.7c-.3,.2-.5,.4-.7,.7l-2.1,2.9c-.1,.1-.2,.3-.3,.5l-2,4.7c-.1,.1-.1,.3-.1,.4l-1.3,5.7-.8,4.7v.5l.4,7.1v.2l.8,5.3c0,.2,.1,.5,.2,.7l1.8,3.9c.1,.3,.3,.5,.5,.7l2,1.9c.3,.3,.6,.5,1,.6l3.8,1c.3,.1,.7,.1,1,.1l3.4-.6c.4-.1,.7-.2,1-.4l2.5-1.8c.1-.1,.3-.2,.4-.4l3-3.4c.2-.2,.3-.5,.4-.8l1.4-3.8c0-.1,.1-.2,.1-.4l1.4-6.9c.1-.2,.1-.5,0-.7l-.8-7.3-.9-7.1c0-.1,0-.2-.1-.3l-1.3-4.8q0-.1-.1-.2l-1.3-3.7c-.1-.3-.2-.5-.4-.7-.5-.6-1.2-.9-1.9-.9l-3.6,.3h0Z"/>
    </g>
    <path id="lower_plus" data-name="lower plus" class="cls-1" d="M359.15,620c.1,3.3,2.9,5.9,6.2,5.8l8.4-.3-.5,4.7c-.4,3.3,2,6.3,5.3,6.7s6.3-2,6.7-5.3l.7-6.2,7.3,.2c3.3,.1,6.1-2.5,6.2-5.8s-2.5-6.1-5.8-6.2l-6.7-.2,.2-5.6c.1-3.3-2.4-6.1-5.7-6.3h-.3c-3.2,0-5.9,2.5-6,5.7l-.3,6.1-10,.4c-3.3,.2-5.8,3-5.7,6.3h0Z"/>
    <path id="upper_plus" data-name="upper plus" class="cls-1" d="M118.68,94.37c-.1-3.3-2.9-5.9-6.2-5.8l-8.4,.3,.6-4.7c.4-3.3-2-6.3-5.3-6.7-3.3-.4-6.3,2-6.7,5.3l-.7,6.2-7.3-.2c-3.3-.1-6.1,2.5-6.2,5.8s2.5,6.1,5.8,6.2l6.7,.2-.2,5.6c-.2,3.3,2.4,6.1,5.7,6.3h.3c3.2,0,5.8-2.5,6-5.7l.3-6.1,10-.4c3.2-.2,5.7-3,5.6-6.3h0Z"/>
  </g>
  <g id="small_types" data-name="small types">
    <g id="upper-2" data-name="upper">
      <g id="lrd">
        <polygon id="lower_blue" data-name="lower blue" class="cls-6" points="358.67 657.91 391.54 633.65 357.1 621.39 323.97 639.65 358.67 657.91"/>
        <polygon id="lower_red" data-name="lower red" class="cls-5" points="320.9 636.52 357.1 618 357.1 586.17 333.1 589.46 315.37 601.04 320.9 636.52"/>
        <polygon id="lower_green" data-name="lower green" class="cls-3" points="391.54 627.27 360.76 619.04 360.76 587.22 376.15 587.22 393.37 598.17 391.54 627.27"/>
        <path id="lower_cube" data-name="lower cube" class="cls-1" d="M308.48,602.26l3.7,38.49c.2,2.06,1.43,3.87,3.27,4.82l16.67,8.55c.09,.05,.18,.09,.27,.13l23.68,10.69c1.92,.87,4.15,.68,5.89-.51l17.17-11.63c.14-.09,.27-.19,.4-.29l19.94-16.03c1.54-1.24,2.38-3.15,2.25-5.12l-2.14-32.98c-.13-2.01-1.25-3.83-3-4.85l-21.74-12.69c-.33-.19-.68-.35-1.04-.48l-14.34-5.07c-.65-.23-1.34-.35-2.02-.35-.65,0-1.29,.1-1.91,.31l-23.81,7.91c-.51,.17-1,.41-1.45,.71l-19.13,12.74c-1.86,1.24-2.89,3.4-2.67,5.63Zm63.65,40.64l-14.16,9.59-20.46-9.23-6.41-3.29,26.14-12.7,25.87,6.81-10.98,8.83Zm15.57-40.52l1.34,20.71-26.28-6.92,.67-26.61,5.81,2.05,18.46,10.77Zm-51.36-7.95l14.96-4.97-.69,27.54-27.25,13.24-2.45-25.53,15.43-10.28Z"/>
        <path id="lower_questiondot" data-name="lower questiondot" class="cls-1" d="M356.42,597.77c3.1,0,5.7-2.6,5.7-5.7v-.2c0-3.1-2.6-5.7-5.7-5.7s-5.7,2.6-5.7,5.7v.2c0,3.1,2.6,5.7,5.7,5.7Z"/>
        <path id="lower_questionmark" data-name="lower questionmark" class="cls-1" d="M369.52,630.17c-2.5-1.9-6.1-1.3-8,1.2l-.9,1.2-1.3,1.4-.9,.7-1.2,.6-.9,.2-.9-.1-.1-.5-.3-2.3-.1-2.1,.4-1.2,1-1.2,1.9-1.6,3.3-2.1c.4-.3,.8-.6,1.2-.9l1.1-.9c1.5-1.3,2.7-3,3.3-4.9l.2-.5c.3-1,.5-2,.5-3v-.7c0-1.4-.2-2.9-.7-4.2l-.2-.5c-.7-1.8-1.8-3.4-3.3-4.6l-.8-.6c-.5-.4-1-.8-1.6-1.1l-1.2-.7c-.8-.4-1.6-.8-2.4-1l-.7-.2c-.5-.1-1-.2-1.5-.2-2.5,0-4.8,1.7-5.5,4.2-.8,3,1,6.2,4,7l.6,.1,1.1,.6,.7,.6,.1,.2v.5l-.1,.3-.9,.8-3.3,2.1c-.4,.3-.9,.6-1.2,.9l-1.9,1.7c-.4,.3-.8,.7-1.1,1.1l-1.1,1.3c-.9,1-1.5,2.1-2,3.4l-.5,1.4c-.5,1.3-.7,2.7-.7,4.1l.1,2.2c0,.3,0,.6,.1,1l.3,2.3c.1,.5,.1,1,.3,1.5l.2,.8c.3,1.3,.9,2.5,1.7,3.6,1.2,1.6,2.8,2.9,4.7,3.7l.2,.1c1.1,.4,2.2,.7,3.4,.8l1,.1c.8,.1,1.6,0,2.4-.1l1.1-.2c.2,0,.5-.1,.7-.2l1.1-.3c.3-.1,.6-.2,.9-.3l1-.5c.2-.1,.5-.2,.7-.4l.6-.3c.6-.3,1.2-.7,1.7-1.2l.9-.8c.4-.3,.7-.7,1.1-1l1.4-1.5c.2-.3,.5-.6,.7-.8l.9-1.2c1.8-2.4,1.3-6-1.3-7.8h0Z"/>
        <path id="lower_questionmark_outline" data-name="lower questionmark outline" class="cls-2" d="M374.29,633.42c-.35-2.16-1.52-4.03-3.3-5.27-3.57-2.68-8.7-1.92-11.47,1.72l-.82,1.09-1.07,1.15-.12,.09-.07-1.4,.1-.31,.56-.67,1.6-1.35,3.16-2.01,1.12-.83,1.48-1.19c1.9-1.65,3.29-3.7,4.02-5.94l.24-.63c.41-1.36,.61-2.57,.61-3.72v-.7c0-1.3-.15-3.23-.88-5.13l-.19-.48c-.88-2.27-2.29-4.22-4.13-5.69l-.74-.55c-.55-.44-1.17-.93-1.97-1.35l-1.14-.66-.15-.08c-.23-.11-.46-.23-.7-.35,2.48-1.43,4.2-4.11,4.2-7.11v-.2c0-4.45-3.75-8.2-8.2-8.2s-8.2,3.75-8.2,8.2v.2c0,2.72,1.41,5.18,3.53,6.68-2.02,1.02-3.6,2.87-4.25,5.17-1.08,4.06,1.05,8.23,4.83,9.75l-1.55,.99-.16,.11c-.11,.08-.23,.16-.35,.25-.34,.23-.72,.5-1.06,.83l-1.79,1.6c-.53,.41-1.05,.93-1.46,1.46l-1.01,1.19c-1.04,1.15-1.82,2.48-2.5,4.23l-.48,1.34c-.58,1.5-.87,3.18-.87,5l.1,2.26c0,.33,0,.8,.14,1.39l.28,2.18,.03,.17c.02,.11,.04,.23,.05,.34,.05,.37,.11,.87,.31,1.42l.15,.62c.36,1.56,1.07,3.07,2.14,4.54,1.48,1.98,3.43,3.52,5.65,4.47l.4,.18c1.48,.54,2.76,.83,4,.94l.94,.09c.35,.04,.69,.06,1.01,.06,.72,0,1.39-.08,2.01-.16l1.1-.2c.49-.05,.94-.2,1.24-.32l.91-.25,1.03-.34,1.38-.66c.21-.09,.54-.24,.89-.5l.35-.18c.88-.44,1.65-.98,2.29-1.61l.78-.7c.3-.23,.53-.47,.72-.66,.09-.09,.18-.19,.28-.27l1.73-1.8,.25-.32c.07-.1,.29-.33,.39-.42l1.13-1.47c1.28-1.7,1.81-3.91,1.46-6.05Zm-21.06-41.55c0-1.71,1.5-3.2,3.2-3.2s3.2,1.5,3.2,3.2v.2c0,1.7-1.5,3.2-3.2,3.2s-3.2-1.5-3.2-3.2v-.2Zm15.6,44.6l-.8,1.06c-.21,.22-.49,.51-.75,.86l-1.16,1.24c-.25,.21-.45,.41-.62,.58-.09,.09-.18,.19-.28,.27l-1.06,.93-.11,.1c-.27,.27-.63,.52-1.05,.73l-.96,.48-.12,.11c-.08,.04-.15,.07-.22,.1l-.84,.42-1.7,.5-1.52,.34c-.64,.08-1.24,.15-1.77,.08l-1.04-.1c-.81-.07-1.62-.26-2.62-.61l-.22-.1c-1.43-.6-2.7-1.6-3.65-2.86-.65-.89-1.08-1.8-1.3-2.74l-.2-.8-.1-.32c-.02-.06-.05-.26-.07-.41-.03-.19-.05-.38-.09-.56l-.29-2.23-.05-.29c-.02-.09-.03-.15-.03-.39l-.1-2.25c0-1.18,.19-2.24,.55-3.21l.48-1.34c.43-1.12,.9-1.93,1.58-2.68l1.1-1.3,.09-.11c.16-.21,.39-.44,.6-.6l2.07-1.84,.09-.08c.12-.11,.28-.21,.44-.32,.14-.1,.28-.2,.42-.3l3.22-2.05,1.72-1.49,.44-1.32v-1.49l-.59-1.18-1.29-1.1-1.7-.93-.88-.15c-1.6-.49-2.57-2.25-2.14-3.88,.39-1.38,1.69-2.37,3.09-2.37,.23,0,.57,.06,.91,.13l.68,.19c.51,.13,1.14,.44,1.82,.78l1.13,.66,.14,.08c.36,.18,.73,.48,1.22,.86l.74,.55c1.11,.89,1.96,2.08,2.54,3.58l.19,.47c.34,.89,.53,2.07,.53,3.3v.7c0,.62-.12,1.34-.36,2.18l-.22,.57c-.44,1.38-1.34,2.71-2.5,3.72l-1.06,.87-1.08,.81-3.22,2.05-2.17,1.8-1.61,1.87-.7,2.09,.12,2.57,.32,2.5,.49,2.46,3.13,.35,1.6-.36,1.47-.74,1.32-.96,1.6-1.67,1.06-1.39c1.08-1.42,3.14-1.75,4.5-.72l.09,.07c.67,.47,1.12,1.18,1.25,2,.13,.81-.06,1.63-.53,2.25Z"/>
      </g>
      <g id="urd">
        <polygon id="upper_blue" data-name="upper blue" class="cls-6" points="122.13 60.09 89.26 84.35 123.7 96.61 156.83 78.35 122.13 60.09"/>
        <polygon id="upper_red" data-name="upper red" class="cls-5" points="159.9 81.48 123.7 100 123.7 131.83 147.7 128.54 165.43 116.96 159.9 81.48"/>
        <polygon id="upper_green" data-name="upper green" class="cls-3" points="89.26 90.73 120.04 98.96 120.04 130.78 104.65 130.78 87.43 119.83 89.26 90.73"/>
        <path id="upper_cube" data-name="upper cube" class="cls-1" d="M172.32,115.74l-3.7-38.49c-.2-2.06-1.43-3.87-3.27-4.82l-16.67-8.55c-.09-.05-.18-.09-.27-.13l-23.68-10.69c-1.92-.87-4.15-.68-5.89,.51l-17.17,11.63c-.14,.09-.27,.19-.4,.29l-19.94,16.03c-1.54,1.24-2.38,3.15-2.25,5.12l2.14,32.98c.13,2.01,1.25,3.83,3,4.85l21.74,12.69c.33,.19,.68,.35,1.04,.48l14.34,5.07c.65,.23,1.34,.35,2.02,.35,.65,0,1.29-.1,1.91-.31l23.81-7.91c.51-.17,1-.41,1.45-.71l19.13-12.74c1.86-1.24,2.89-3.4,2.67-5.63Zm-63.65-40.64l14.16-9.59,20.46,9.23,6.41,3.29-26.14,12.7-25.87-6.81,10.98-8.83Zm-15.57,40.52l-1.34-20.71,26.28,6.92-.67,26.61-5.81-2.05-18.46-10.77Zm51.36,7.95l-14.96,4.97,.69-27.54,27.25-13.24,2.45,25.53-15.43,10.28Z"/>
        <path id="upper_questiondot" data-name="upper questiondot" class="cls-1" d="M124.38,120.23c-3.1,0-5.7,2.6-5.7,5.7v.2c0,3.1,2.6,5.7,5.7,5.7s5.7-2.6,5.7-5.7v-.2c0-3.1-2.6-5.7-5.7-5.7Z"/>
        <path id="upper_questionmark" data-name="upper questionmark" class="cls-1" d="M111.28,87.83c2.5,1.9,6.1,1.3,8-1.2l.9-1.2,1.3-1.4,.9-.7,1.2-.6,.9-.2,.9,.1,.1,.5,.3,2.3,.1,2.1-.4,1.2-1,1.2-1.9,1.6-3.3,2.1c-.4,.3-.8,.6-1.2,.9l-1.1,.9c-1.5,1.3-2.7,3-3.3,4.9l-.2,.5c-.3,1-.5,2-.5,3v.7c0,1.4,.2,2.9,.7,4.2l.2,.5c.7,1.8,1.8,3.4,3.3,4.6l.8,.6c.5,.4,1,.8,1.6,1.1l1.2,.7c.8,.4,1.6,.8,2.4,1l.7,.2c.5,.1,1,.2,1.5,.2,2.5,0,4.8-1.7,5.5-4.2,.8-3-1-6.2-4-7l-.6-.1-1.1-.6-.7-.6-.1-.2v-.5l.1-.3,.9-.8,3.3-2.1c.4-.3,.9-.6,1.2-.9l1.9-1.7c.4-.3,.8-.7,1.1-1.1l1.1-1.3c.9-1,1.5-2.1,2-3.4l.5-1.4c.5-1.3,.7-2.7,.7-4.1l-.1-2.2c0-.3,0-.6-.1-1l-.3-2.3c-.1-.5-.1-1-.3-1.5l-.2-.8c-.3-1.3-.9-2.5-1.7-3.6-1.2-1.6-2.8-2.9-4.7-3.7l-.2-.1c-1.1-.4-2.2-.7-3.4-.8l-1-.1c-.8-.1-1.6,0-2.4,.1l-1.1,.2c-.2,0-.5,.1-.7,.2l-1.1,.3c-.3,.1-.6,.2-.9,.3l-1,.5c-.2,.1-.5,.2-.7,.4l-.6,.3c-.6,.3-1.2,.7-1.7,1.2l-.9,.8c-.4,.3-.7,.7-1.1,1l-1.4,1.5c-.2,.3-.5,.6-.7,.8l-.9,1.2c-1.8,2.4-1.3,6,1.3,7.8h0Z"/>
        <path id="upper_questionmark_outline" data-name="upper questionmark outline" class="cls-2" d="M139.58,85.07c0-.33,0-.8-.14-1.39l-.28-2.18-.03-.17c-.02-.11-.04-.23-.05-.34-.05-.37-.11-.86-.31-1.41l-.16-.62c-.36-1.56-1.07-3.07-2.14-4.54-1.48-1.98-3.44-3.52-5.65-4.47l-.39-.18c-1.47-.53-2.76-.83-4.01-.94l-.94-.09c-1.11-.14-2.12-.01-3.02,.1l-1.1,.2c-.49,.05-.94,.2-1.23,.32l-.91,.25-1.03,.34-1.38,.66c-.21,.09-.54,.24-.89,.5l-.35,.18c-.88,.44-1.65,.98-2.29,1.61l-.78,.7c-.3,.23-.53,.47-.72,.66-.09,.09-.18,.19-.28,.27l-1.73,1.79-.25,.32c-.07,.1-.29,.33-.39,.42l-1.13,1.47c-1.28,1.7-1.81,3.91-1.46,6.05,.35,2.16,1.52,4.03,3.3,5.28,1.74,1.3,3.9,1.83,6.08,1.5,2.15-.33,4.06-1.47,5.39-3.22l.82-1.09,1.07-1.16,.12-.09,.07,1.4-.1,.31-.56,.67-1.6,1.35-3.16,2.01-1.36,1.01-1.24,1.01c-1.9,1.65-3.29,3.7-4.02,5.94l-.24,.63c-.41,1.36-.61,2.57-.61,3.72v.7c0,1.3,.15,3.24,.88,5.13l.19,.48c.88,2.27,2.29,4.22,4.13,5.69l.74,.55c.55,.44,1.17,.93,1.96,1.34l1.14,.66,.15,.08c.23,.11,.46,.23,.71,.35-2.48,1.43-4.2,4.11-4.2,7.11v.2c0,4.44,3.76,8.2,8.2,8.2s8.2-3.76,8.2-8.2v-.2c0-2.72-1.41-5.19-3.53-6.69,2.02-1.02,3.6-2.87,4.25-5.17,.56-2.09,.27-4.3-.82-6.2-.93-1.63-2.33-2.86-4.01-3.54l1.56-.99,.16-.11c.11-.08,.23-.16,.35-.24,.34-.23,.72-.5,1.06-.83l1.79-1.6c.53-.41,1.05-.93,1.46-1.46l1.01-1.19c1.04-1.15,1.82-2.48,2.5-4.23l.48-1.34c.57-1.5,.87-3.18,.87-5l-.1-2.26Zm-12,41.06c0,1.7-1.5,3.2-3.2,3.2s-3.2-1.5-3.2-3.2v-.2c0-1.7,1.5-3.2,3.2-3.2s3.2,1.5,3.2,3.2v.2Zm6.55-35.54l-.48,1.34c-.43,1.12-.9,1.93-1.58,2.68l-1.1,1.3-.09,.11c-.16,.21-.39,.44-.6,.6l-2.07,1.84-.09,.08c-.12,.11-.29,.21-.45,.32-.14,.1-.28,.2-.41,.29l-3.23,2.05-1.72,1.48-.44,1.32v1.5l.59,1.18,1.28,1.1,1.7,.93,.88,.15c.75,.23,1.39,.75,1.8,1.47,.43,.76,.55,1.63,.34,2.42-.39,1.38-1.69,2.37-3.09,2.37-.23,0-.56-.06-.91-.13l-.68-.19c-.51-.13-1.14-.44-1.82-.77l-1.13-.66-.14-.08c-.36-.18-.73-.48-1.22-.86l-.74-.55c-1.11-.89-1.96-2.08-2.54-3.58l-.19-.47c-.34-.89-.53-2.07-.53-3.3v-.7c0-.63,.12-1.34,.36-2.18l.22-.57c.44-1.38,1.34-2.71,2.5-3.72l1.06-.87,1.08-.81,3.22-2.05,2.17-1.8,1.61-1.88,.7-2.09-.12-2.57-.32-2.5-.49-2.46-3.13-.35-1.61,.36-1.48,.74-1.32,.96-1.6,1.67-1.06,1.39c-.53,.7-1.3,1.16-2.17,1.29-.85,.13-1.67-.07-2.33-.57l-.09-.06c-.67-.47-1.12-1.18-1.25-2-.13-.81,.06-1.63,.53-2.25l.8-1.06c.21-.22,.49-.51,.75-.86l1.16-1.24c.25-.2,.45-.4,.62-.57,.09-.09,.18-.19,.28-.27l1.06-.93,.11-.1c.27-.27,.63-.52,1.05-.73l.96-.48,.11-.11c.08-.04,.16-.07,.22-.11l.84-.42,1.7-.5,1.52-.34c.64-.08,1.24-.15,1.77-.08l1.04,.1c.81,.07,1.63,.26,2.62,.61l.22,.1c1.43,.6,2.7,1.6,3.65,2.87,.65,.89,1.08,1.79,1.3,2.74l.2,.8,.1,.32c.02,.06,.05,.26,.07,.41,.03,.19,.05,.38,.09,.57l.29,2.23,.05,.28c.02,.09,.03,.15,.03,.4l.1,2.25c0,1.18-.19,2.24-.55,3.21Z"/>
      </g>
    </g>
  </g>
</svg>